<svg viewBox="-91 0 512 512.00099" xmlns="http://www.w3.org/2000/svg"><path d="m234.660156 182.757812c-4.234375 0-7.664062 3.433594-7.664062 7.664063v22.753906c0 4.230469 3.429687 7.664063 7.664062 7.664063 4.230469 0 7.664063-3.433594 7.664063-7.664063v-22.753906c0-4.230469-3.433594-7.664063-7.664063-7.664063zm0 0"/><path d="m95.132812 182.757812c-4.234374 0-7.664062 3.433594-7.664062 7.664063v22.753906c0 4.230469 3.429688 7.664063 7.664062 7.664063 4.234376 0 7.664063-3.433594 7.664063-7.664063v-22.753906c0-4.230469-3.429687-7.664063-7.664063-7.664063zm0 0"/><path d="m298.15625 228.332031c-1.097656-2.148437-3.144531-3.660156-5.523438-4.070312-.363281-.066407-.730468-.089844-1.097656-.101563-3.15625-20.699218-10.519531-60.582031-21.226562-82.96875l26.28125-24.839844c2.472656-2.335937 3.109375-6.019531 1.566406-9.046874-12.863281-25.273438-28.761719-47.832032-45.972656-65.242188-2.976563-3.007812-7.828125-3.035156-10.839844-.058594-3.007812 2.976563-3.035156 7.828125-.058594 10.835938 14.964844 15.136718 28.921875 34.53125 40.570313 56.347656l-53.265625 50.335938-59.988282-33.0625c-2.304687-1.269532-5.097656-1.269532-7.398437 0l-59.980469 33.0625-53.285156-50.34375c14.167969-26.542969 31.40625-49.027344 50.082031-65.273438 21.800781-18.960938 44.300781-28.578125 66.882813-28.578125 19.636718 0 39.351562 7.355469 58.589844 21.855469 3.378906 2.550781 8.1875 1.875 10.734374-1.503906 2.546876-3.382813 1.871094-8.1875-1.507812-10.734376-21.957031-16.550781-44.773438-24.945312-67.816406-24.945312-49.234375 0-99.054688 40.109375-133.265625 107.292969-1.542969 3.03125-.90625 6.714843 1.566406 9.046875l26.152344 24.714844c-13.488281 24.710937-21.195313 53.21875-22.597657 83.289062-2.203124.503906-4.089843 1.949219-5.125 3.980469-20.101562 39.472656-31.632812 82.765625-31.632812 118.777343 0 36.328126 11.582031 70.78125 33.496094 99.636719 2.558594 3.371094 7.363281 4.03125 10.738281 1.46875 3.371094-2.558593 4.027344-7.367187 1.46875-10.738281-19.871094-26.167969-30.375-57.417969-30.375-90.367188 0-30.914062 9.207031-67.796874 25.449219-102.570312l53.980468 51.007812c2.421876 2.289063 6.046876 2.75 8.964844 1.140626l61.175782-33.726563 61.191406 33.726563c2.914062 1.609374 6.542968 1.148437 8.960937-1.140626l53.960938-50.996093c16.246093 34.761719 25.449219 71.644531 25.449219 102.558593 0 82.472657-67.09375 149.570313-149.5625 149.570313-37.824219 0-73.921876-14.148437-101.644532-39.84375-3.105468-2.878906-7.953125-2.691406-10.832031.410156-2.875 3.105469-2.691406 7.953125.410156 10.832031 30.566407 28.328126 70.367188 43.929688 112.066407 43.929688 90.921874 0 164.890624-73.972656 164.890624-164.898438.003907-36.015624-11.527343-79.304687-31.632812-118.769531zm-69.566406 52.222657-59.988282-33.0625c-2.304687-1.269532-5.097656-1.269532-7.398437 0l-59.980469 33.0625-49.382812-46.660157c.058594-29.546875 6.640625-57.636719 19.089844-81.902343l23.828124 22.515624c1.460938 1.378907 3.355469 2.09375 5.265626 2.09375 1.265624 0 2.539062-.3125 3.699218-.953124l61.179688-33.722657 61.1875 33.722657c2.917968 1.609374 6.542968 1.148437 8.964844-1.140626l23.457031-22.167968c10.144531 24.59375 17.207031 68.5 19.023437 81.960937zm0 0"/><path d="m208.464844 182.546875-39.5625-24.230469c-2.453125-1.503906-5.550782-1.503906-8.003906 0l-39.558594 24.230469c-2.003906 1.226563-3.332032 3.300781-3.609375 5.632813-.273438 2.332031.535156 4.660156 2.191406 6.320312l39.558594 39.558594c1.441406 1.4375 3.386719 2.246094 5.421875 2.246094s3.980468-.804688 5.421875-2.246094l39.558593-39.558594c1.65625-1.660156 2.464844-3.988281 2.191407-6.320312-.277344-2.332032-1.609375-4.40625-3.609375-5.632813zm-43.5625 35.253906-27.265625-27.261719 27.265625-16.699218 27.261718 16.699218zm0 0"/></svg>