<svg viewBox="0 -78 512.00007 512" xmlns="http://www.w3.org/2000/svg"><path d="m511.933594 319.253906-28.632813-216.246094c-1.933593-14.601562-9.472656-27.53125-21.234375-36.402343-9.457031-7.132813-20.6875-10.910157-32.296875-10.992188-13.617187-16.019531-36.347656-29.640625-66.066406-39.539062-31.574219-10.515625-68.816406-16.074219-107.699219-16.074219-.328125 0-.652344 0-.988281.0117188-38.671875.0898432-75.6875 5.6835932-107.050781 16.1757812-29.550782 9.890625-52.164063 23.46875-65.730469 39.425781-11.609375.082031-22.839844 3.855469-32.296875 10.984375-11.765625 8.871094-19.3125 21.796875-21.25 36.410156l-1.429688 10.816407c-9.082031 68.585937-18.148437 137.0625-27.1914058 205.429687-.5156252 3.90625 2.0351558 7.558594 5.8789058 8.417969 20.472657 4.574219 41.335938 8.636719 62.011719 12.074219 4.144531.691406 8.0625-2.109375 8.75-6.253906.6875-4.140626-2.113281-8.058594-6.253906-8.746094-18.121094-3.011719-36.386719-6.511719-54.394531-10.417969 8.386718-63.410156 16.796875-126.921875 25.21875-190.519531 70.824218 13.511718 142.734375 20.320312 214.742187 20.320312 27.054688 0 54.128907-.960937 81.15625-2.878906 4.1875-.296875 7.34375-3.9375 7.046875-8.125s-3.953125-7.351562-8.125-7.046875c-97.933594 6.957031-196.414062 1.113281-292.824218-17.359375l.492187-3.710938c1.398437-10.539062 6.839844-19.867187 15.328125-26.261718 8.46875-6.386719 18.910156-9.050782 29.402344-7.5 111.148437 16.414062 223.863281 16.414062 335.011718 0 10.488282-1.550782 20.929688 1.113281 29.402344 7.503906 8.484375 6.398438 13.921875 15.71875 15.316406 26.25l.492188 3.707031c-33.820312 6.476563-68.25 11.472657-102.46875 14.824219-4.183594.410156-7.238281 4.132812-6.828125 8.3125.386719 3.925781 3.695313 6.863281 7.558594 6.863281.25 0 .5-.015625.75-.039062 34.390625-3.371094 68.988281-8.375 102.984375-14.859375l25.226562 190.519531c-130.617187 28.363281-263.929687 33.363281-396.375 14.871094-4.160156-.582031-8.003906 2.320312-8.585937 6.480469-.578125 4.160156 2.320312 8 6.480469 8.582031 52.882812 7.382812 105.902343 11.070312 158.835937 11.070312 83.753906 0 167.304687-9.230469 249.757813-27.660156 3.84375-.859375 6.394531-4.511719 5.878906-8.417969zm-410.394532-261.507812c12.140626-10.550782 29.8125-19.957032 51.253907-27.132813 29.863281-9.992187 65.261719-15.316406 102.363281-15.394531.082031 0 .164062 0 .246094-.003906.207031-.007813.402344-.003906.601562-.007813 37.269532 0 72.851563 5.292969 102.894532 15.296875 21.585937 7.191406 39.367187 16.636719 51.570312 27.242188-102.558594 14.136718-206.375 14.136718-308.929688 0zm0 0"/><path d="m122.492188 282.828125c2.585937 3.316406 6.523437 4.996094 11.710937 4.996094 9.886719 0 25.6875-6.34375 38.425781-15.425781 13.496094-9.625 22.011719-20.914063 24.644532-32.421876h22.0625c-1.265626 11.992188-5.488282 22.769532-11.84375 29.746094-2.828126 3.105469-2.601563 7.914063.503906 10.742188 1.457031 1.328125 3.289062 1.980468 5.117187 1.980468 2.0625 0 4.121094-.835937 5.621094-2.480468 8.910156-9.785156 14.523437-24.070313 15.886719-39.984375h23.84375c-1.269532 11.988281-5.492188 22.765625-11.847656 29.742187-2.824219 3.105469-2.601563 7.914063.503906 10.742188 1.457031 1.328125 3.289062 1.984375 5.117187 1.984375 2.066407 0 4.125-.835938 5.625-2.484375 8.90625-9.785156 14.523438-24.070313 15.882813-39.984375h16.234375c-1.171875 5.136719-3.277344 10.078125-5.214844 14.609375-3.433594 8.039062-6.675781 15.632812-2.410156 22.09375 3.785156 5.734375 11.03125 6.398437 16.152343 6.398437 13.832032 0 36.4375-5.4375 54.972657-13.21875 17.714843-7.4375 38.832031-19.980469 38.832031-37.488281 0-17.503906-21.117188-30.050781-38.832031-37.488281-18.535157-7.78125-41.140625-13.21875-54.972657-13.21875-5.121093 0-12.367187.664062-16.152343 6.398437-4.265625 6.460938-1.023438 14.054688 2.410156 22.09375 1.9375 4.53125 4.042969 9.472656 5.214844 14.613282h-16.234375c-1.359375-15.917969-6.976563-30.203126-15.882813-39.988282-2.828125-3.101562-7.636719-3.328125-10.742187-.5-3.105469 2.828125-3.332032 7.636719-.503906 10.742188 6.355468 6.976562 10.578124 17.753906 11.847656 29.746094h-23.84375c-1.363282-15.917969-6.980469-30.203126-15.886719-39.988282-2.828125-3.101562-7.636719-3.328125-10.742187-.5-3.105469 2.828125-3.328126 7.636719-.503907 10.742188 6.355469 6.976562 10.578125 17.753906 11.847657 29.746094h-22.058594c-2.636719-11.511719-11.152344-22.796876-24.648438-32.421876-12.738281-9.082031-28.539062-15.425781-38.425781-15.425781-5.1875 0-9.125 1.679688-11.710937 4.992188-4.683594 6.011719-2.648438 14.097656-.074219 24.335937 1.960937 7.789063 4.183593 16.617188 4.183593 26.121094s-2.222656 18.332031-4.183593 26.121094c-2.574219 10.238281-4.609375 18.324218.074219 24.332031zm176.015624-85.953125c9.90625 0 30.476563 4.21875 49.085938 12.03125 17.929688 7.53125 29.515625 16.742188 29.515625 23.46875s-11.585937 15.9375-29.515625 23.464844c-18.609375 7.816406-39.179688 12.03125-49.085938 12.03125-1.101562 0-1.949218-.046875-2.59375-.117188.617188-1.988281 1.859376-4.894531 2.839844-7.191406 3.277344-7.671875 7.355469-17.222656 7.355469-28.1875s-4.078125-20.515625-7.355469-28.191406c-.984375-2.292969-2.222656-5.199219-2.839844-7.191406.644532-.066407 1.492188-.117188 2.59375-.117188zm-161.339843 5.667969c-.859375-3.410157-1.960938-7.796875-2.234375-10.390625 6.136718.359375 18.246094 5.003906 28.867187 12.582031 12.171875 8.675781 19.152344 18.75 19.152344 27.640625 0 8.886719-6.980469 18.960938-19.152344 27.640625-10.621093 7.574219-22.730469 12.222656-28.867187 12.578125.273437-2.589844 1.375-6.980469 2.234375-10.386719 2.066406-8.21875 4.640625-18.445312 4.640625-29.832031s-2.574219-21.613281-4.640625-29.832031zm0 0"/></svg>