<svg viewBox="-12 0 512 512.00003" xmlns="http://www.w3.org/2000/svg"><path d="m486.070312 238.773438-115.25-115.25c-2.96875-2.96875-7.78125-2.972657-10.753906 0-2.96875 2.96875-2.96875 7.78125 0 10.75l109.875 109.875-25.09375 25.09375-195.320312-195.324219c-1.425782-1.425781-3.359375-2.226563-5.378906-2.226563-2.015626 0-3.949219.800782-5.375 2.226563l-195.324219 195.324219-25.089844-25.09375 225.789063-225.789063 94.625 94.625c2.972656 2.96875 7.785156 2.96875 10.753906 0 2.972656-2.96875 2.972656-7.78125 0-10.753906l-100-100.003907c-1.425782-1.425781-3.359375-2.226562-5.378906-2.226562-2.015626 0-3.949219.800781-5.375 2.226562l-236.546876 236.546876c-2.96875 2.96875-2.96875 7.785156 0 10.753906l35.847657 35.84375c1.425781 1.425781 3.359375 2.226562 5.375 2.226562 2.019531 0 3.949219-.800781 5.378906-2.226562l22.460937-22.460938v241.484375c0 4.199219 3.402344 7.605469 7.601563 7.605469h34.472656c4.199219 0 7.605469-3.40625 7.605469-7.605469s-3.40625-7.601562-7.605469-7.601562h-26.867187v-249.089844l157.652344-157.65625 157.660156 157.660156v249.085938h-263.097656c-4.199219 0-7.605469 3.402343-7.605469 7.601562s3.40625 7.605469 7.605469 7.605469h270.699218c4.203125 0 7.605469-3.40625 7.605469-7.605469v-241.476562l22.457031 22.453125c1.425782 1.425781 3.359375 2.226562 5.375 2.226562 2.019532 0 3.949219-.800781 5.378906-2.226562l35.84375-35.84375c2.96875-2.96875 2.96875-7.785156 0-10.753906zm0 0"/><path d="m333.878906 293.785156c0-49.476562-40.25-89.726562-89.726562-89.726562-49.476563 0-89.726563 40.25-89.726563 89.726562 0 49.476563 40.25 89.726563 89.726563 89.726563 49.476562 0 89.726562-40.25 89.726562-89.726563zm-89.726562 74.519532c-41.089844 0-74.519532-33.429688-74.519532-74.519532s33.429688-74.519531 74.519532-74.519531 74.519531 33.429687 74.519531 74.519531-33.429687 74.519532-74.519531 74.519532zm0 0"/><path d="m207.5625 432.824219c0 20.175781 16.414062 36.589843 36.589844 36.589843 20.175781 0 36.589844-16.414062 36.589844-36.589843s-16.414063-36.589844-36.589844-36.589844c-20.175782 0-36.589844 16.414063-36.589844 36.589844zm57.972656 0c0 11.789062-9.59375 21.382812-21.382812 21.382812-11.789063 0-21.382813-9.589843-21.382813-21.382812 0-11.789063 9.59375-21.378907 21.382813-21.378907 11.789062 0 21.382812 9.589844 21.382812 21.378907zm0 0"/></svg>