<svg viewBox="-11 1 511 511.99901" xmlns="http://www.w3.org/2000/svg"><path d="m486.570312 238.773438-115.25-115.25c-2.96875-2.96875-7.78125-2.972657-10.753906 0-2.96875 2.96875-2.96875 7.78125 0 10.75l109.875 109.875-25.09375 25.09375-195.320312-195.324219c-1.425782-1.425781-3.359375-2.226563-5.378906-2.226563-2.015626 0-3.949219.800782-5.378907 2.226563l-195.320312 195.324219-25.09375-25.09375 225.792969-225.789063 94.628906 94.625c2.96875 2.96875 7.78125 2.96875 10.753906 0 2.96875-2.96875 2.96875-7.78125 0-10.753906l-100.003906-100.003907c-1.425782-1.425781-3.359375-2.226562-5.378906-2.226562-2.015626 0-3.949219.800781-5.375 2.226562l-236.546876 236.546876c-2.96875 2.96875-2.96875 7.785156 0 10.753906l35.84375 35.84375c1.429688 1.425781 3.363282 2.226562 5.378907 2.226562 2.019531 0 3.949219-.800781 5.378906-2.226562l22.460937-22.460938v241.484375c0 4.199219 3.402344 7.605469 7.601563 7.605469h80.085937.011719 170.328125.011719 80.082031c4.203125 0 7.605469-3.40625 7.605469-7.605469v-241.476562l22.453125 22.453125c1.429688 1.425781 3.363281 2.226562 5.378906 2.226562 2.019532 0 3.949219-.800781 5.378906-2.226562l35.84375-35.84375c2.96875-2.96875 2.96875-7.785156 0-10.753906zm-399.574218 170.878906h64.886718v87.140625h-64.886718zm235.214844 87.140625h-155.121094v-137.105469c0-42.765625 34.792968-77.5625 77.5625-77.5625 42.765625 0 77.558594 34.796875 77.558594 77.5625zm15.210937 0v-87.140625h64.886719v87.140625zm64.886719-102.347657h-64.886719v-34.757812c0-51.152344-41.617187-92.769531-92.769531-92.769531s-92.769532 41.617187-92.769532 92.769531v34.757812h-64.886718v-146.742187l157.652344-157.65625 157.660156 157.660156zm0 0"/></svg>