<svg viewBox="0 -8 512.00001 512" xmlns="http://www.w3.org/2000/svg"><path d="m256 343.328125c-32.578125 0-59.082031 26.503906-59.082031 59.082031 0 6.199219.957031 12.308594 2.84375 18.15625 1.289062 4 5.570312 6.195313 9.570312 4.902344 4-1.289062 6.191407-5.574219 4.902344-9.570312-1.398437-4.339844-2.109375-8.875-2.109375-13.488282 0-24.191406 19.683594-43.871094 43.875-43.871094s43.875 19.679688 43.875 43.871094c0 24.195313-19.683594 43.875-43.875 43.875-11.765625 0-22.808594-4.59375-31.105469-12.929687-2.960937-2.980469-7.777343-2.992188-10.753906-.027344-2.976563 2.960937-2.988281 7.773437-.027344 10.75 11.171875 11.230469 26.046875 17.414063 41.886719 17.414063 32.578125 0 59.082031-26.503907 59.082031-59.082032 0-32.574218-26.503906-59.082031-59.082031-59.082031zm0 0"/><path d="m512 133.066406v-.003906c0-33.167969-12.277344-64.941406-34.570312-89.46875-2.824219-3.105469-7.632813-3.335938-10.742188-.515625-3.105469 2.828125-3.335938 7.636719-.511719 10.742187 19.742188 21.722657 30.617188 49.863282 30.617188 79.242188 0 3.488281-.164063 6.9375-.460938 10.351562-6.164062-11.515624-14.015625-22.152343-23.308593-31.449218-25.128907-25.128906-58.546876-38.96875-94.089844-38.96875h-245.871094c-29.117188 0-56.769531 9.234375-79.96875 26.703125-15.492188 11.664062-28.304688 26.734375-37.421875 43.75-.296875-3.386719-.460937-6.808594-.464844-10.269531v-.113282-.003906c0-64.984375 52.871094-117.855469 117.855469-117.855469h245.875c23.617188 0 46.402344 6.957031 65.886719 20.125 3.480469 2.351563 8.207031 1.433594 10.558593-2.046875 2.351563-3.480468 1.4375-8.207031-2.042968-10.554687-22.011719-14.871094-47.742188-22.730469-74.402344-22.730469h-245.875c-73.371094 0-133.0625 59.691406-133.0625 133.0625v.117188 72.886718c0 73.367188 59.691406 133.058594 133.058594 133.058594h53.898437c-15.308593 16.683594-24.664062 38.914062-24.664062 63.285156 0 51.671875 42.035156 93.710938 93.707031 93.710938s93.707031-42.039063 93.707031-93.710938c0-24.371094-9.359375-46.601562-24.664062-63.285156h53.886719c73.375 0 133.070312-59.691406 133.070312-133.058594zm-449.757812-21.21875c20.539062-15.46875 45.027343-23.644531 70.820312-23.644531h245.871094c31.480468 0 61.078125 12.257813 83.335937 34.515625 13.136719 13.136719 23.035157 29.285156 28.738281 46.808594-15.390624 47.191406-59.808593 81.390625-112.070312 81.390625h-245.875c-52.25 0-96.660156-34.183594-112.0625-81.359375 7.425781-22.78125 21.988281-43.210938 41.242188-57.710938zm193.757812 369.0625c-43.285156 0-78.5-35.214844-78.5-78.5s35.214844-78.5 78.5-78.5 78.5 35.214844 78.5 78.5-35.214844 78.5-78.5 78.5zm122.929688-156.996094h-71.808594c-12.714844-8.308593-27.554688-13.613281-43.519532-14.902343v-12.96875c0-4.199219-3.402343-7.605469-7.601562-7.605469s-7.605469 3.40625-7.605469 7.605469v12.96875c-15.960937 1.289062-30.804687 6.59375-43.515625 14.902343h-71.816406c-64.984375 0-117.851562-52.867187-117.851562-117.847656v-11.285156c22.28125 42.375 66.742187 71.34375 117.851562 71.34375h245.875c51.109375 0 95.574219-28.96875 117.855469-71.347656v11.289062c0 64.980469-52.871094 117.847656-117.863281 117.847656zm0 0"/></svg>