<svg viewBox="-64 0 512 512.00002" xmlns="http://www.w3.org/2000/svg"><path d="m350.105469 42.117188h-41.902344c-4.199219 0-7.605469 3.40625-7.605469 7.605468 0 4.199219 3.40625 7.605469 7.605469 7.605469h41.902344c9.875 0 17.90625 8.03125 17.90625 17.910156v199.429688c0 9.875-8.03125 17.90625-17.90625 17.90625h-316.988281c-9.875 0-17.910157-8.03125-17.910157-17.90625v-199.429688c0-9.878906 8.035157-17.910156 17.910157-17.910156h249.738281c4.199219 0 7.601562-3.40625 7.601562-7.605469 0-4.199218-3.402343-7.605468-7.601562-7.605468h-58.546875v-34.511719c0-4.199219-3.40625-7.605469-7.605469-7.605469h-50.183594c-4.203125 0-7.605469 3.40625-7.605469 7.605469v34.511719h-125.796874c-18.261719 0-33.117188 14.859374-33.117188 33.121093v199.429688c0 18.257812 14.855469 33.117187 33.117188 33.117187h125.796874v99.808594c0 4.203125 3.402344 7.605469 7.605469 7.605469 4.199219 0 7.601563-3.402344 7.601563-7.605469v-99.808594h34.980468v189.007813h-34.980468v-63.847657c0-4.199218-3.402344-7.605468-7.601563-7.605468-4.203125 0-7.605469 3.40625-7.605469 7.605468v71.449219c0 4.199219 3.402344 7.605469 7.605469 7.605469h50.183594c4.199219 0 7.605469-3.40625 7.605469-7.605469v-196.609375h125.796875c18.257812 0 33.113281-14.855468 33.113281-33.117187v-199.429688c.003906-18.261719-14.855469-33.121093-33.113281-33.121093zm-175.984375-26.910157h34.980468v26.910157h-34.980468zm0 0"/><path d="m229.75 76.082031c0-2.59375-1.320312-5.007812-3.503906-6.40625-2.1875-1.398437-4.933594-1.585937-7.289063-.496093l-3.953125 1.824218c-11.175781 5.160156-20.839844 12.945313-28.234375 22.691406v-17.613281c0-2.59375-1.320312-5.007812-3.503906-6.40625-2.183594-1.398437-4.929687-1.585937-7.285156-.496093l-3.953125 1.824218c-18.488282 8.53125-32.863282 24.476563-39.4375 43.742188-.546875 1.597656-1.996094 5.835937-30.425782 146.996094-.828124 4.117187 1.835938 8.128906 5.953126 8.957031.507812.101562 1.011718.148437 1.511718.148437 3.546875 0 6.71875-2.492187 7.445313-6.101562 24.253906-120.421875 29.164062-142.636719 29.910156-145.082032 4.394531-12.886718 13.167969-23.902343 24.582031-31.132812v50.367188c0 4.199218 3.402344 7.601562 7.601563 7.601562s7.605469-3.402344 7.605469-7.601562c0-11.402344 3.246093-22.503907 9.390624-32.105469 4.738282-7.40625 11.011719-13.621094 18.382813-18.269531v50.375c0 4.199218 3.402344 7.601562 7.601563 7.601562h31.316406c2.484375 12.664062 11.03125 23.527344 22.707031 28.914062-14.230469 31.664063-45.902344 52.507813-81.082031 52.585938-4.191406.011719-7.585938 3.414062-7.585938 7.605469v27.636719c0 4.203124 3.40625 7.605468 7.605469 7.605468s7.605469-3.402344 7.605469-7.605468v-20.324219c41.082031-3.09375 76.945312-30.3125 90.671875-69.636719 3.847656-11.03125 5.796875-22.601562 5.796875-34.382812 0-4.199219-3.402344-7.605469-7.601563-7.605469h-61.828125v-55.210938zm51.46875 84.867188c-5.726562-3.054688-10.070312-8.285157-12.070312-14.445313h14.507812c-.414062 4.886719-1.230469 9.714844-2.4375 14.445313zm0 0"/><path d="m229.148438 174.128906v-9.109375c0-4.199219-3.402344-7.605469-7.601563-7.605469-4.203125 0-7.605469 3.40625-7.605469 7.605469v9.109375c0 4.199219 3.402344 7.601563 7.605469 7.601563 4.199219 0 7.601563-3.402344 7.601563-7.601563zm0 0"/><path d="m207.148438 174.128906v-9.109375c0-4.199219-3.402344-7.605469-7.601563-7.605469s-7.605469 3.40625-7.605469 7.605469v9.109375c0 4.199219 3.40625 7.601563 7.605469 7.601563s7.601563-3.402344 7.601563-7.601563zm0 0"/></svg>