<svg viewBox="-26 0 512 512.00063" xmlns="http://www.w3.org/2000/svg"><path d="m145.167969 18.863281v85.800781c0 4.359376 3.53125 7.890626 7.886719 7.890626 4.359374 0 7.890624-3.53125 7.890624-7.890626v-96.773437c0-2.421875-1.113281-4.707031-3.015624-6.203125-1.902344-1.496094-4.386719-2.035156-6.738282-1.464844-.859375.210938-21.253906 5.289063-41.765625 20.53125-27.542969 20.472656-42.101562 49.488282-42.101562 83.910156 0 29.300782-13.8125 118.410157-39.949219 257.691407-.800781 4.28125 2.019531 8.40625 6.300781 9.207031.492188.09375.980469.136719 1.464844.136719 3.71875 0 7.03125-2.644531 7.742187-6.433594 18.347657-97.78125 40.21875-222.371094 40.21875-260.601563 0-29.460937 11.878907-53.324218 35.308594-70.921874 9.804688-7.367188 19.734375-12.097657 26.757813-14.878907zm0 0"/><path d="m31.757812 381.714844c-4.277343-.8125-8.410156 1.996094-9.222656 6.277344-12.1875 64.09375-22.277344 114.058593-22.378906 114.554687-.859375 4.269531 1.902344 8.433594 6.171875 9.296875.527344.105469 1.054687.15625 1.570313.15625 3.679687 0 6.96875-2.582031 7.726562-6.328125.101562-.496094 10.203125-50.546875 22.410156-114.730469.8125-4.28125-1.996094-8.410156-6.277344-9.226562zm0 0"/><path d="m252.988281 207.226562c4.355469 0 7.890625-3.53125 7.890625-7.886718 0-4.359375-3.535156-7.890625-7.890625-7.890625h-41.023437c-4.359375 0-7.890625 3.53125-7.890625 7.890625 0 4.355468 3.53125 7.886718 7.890625 7.886718zm0 0"/><path d="m452.371094 276.660156h-92.074219c3.828125-6.757812 6.773437-13.128906 9.023437-18.855468l63.035157-17.1875c4.203125-1.148438 6.683593-5.484376 5.535156-9.6875-1.144531-4.203126-5.484375-6.679688-9.6875-5.535157l-53.277344 14.527344c1.289063-5.601563 1.601563-9.035156 1.632813-9.421875.203125-2.445312-.742188-4.84375-2.554688-6.496094l-135.21875-122.828125v-93.285156c0-2.421875-1.109375-4.707031-3.015625-6.203125-1.902343-1.496094-4.386719-2.035156-6.738281-1.464844-1.355469.332032-33.453125 8.375-57.652344 34.816406-2.941406 3.210938-2.71875 8.203126.492188 11.144532 3.214844 2.941406 8.203125 2.722656 11.148437-.492188 13.292969-14.527344 29.738281-22.75 39.988281-26.824218v85.796874c0 2.226563.9375 4.347657 2.582032 5.84375l89.109375 80.941407h-11.75c-4.355469 0-7.886719 3.53125-7.886719 7.890625 0 4.355468 3.53125 7.886718 7.886719 7.886718h29.117187l16.214844 14.726563h-45.855469c-3.902343 0-7.132812 2.835937-7.765625 6.554687-7.988281-3.039062-16.507812-4.617187-25.230468-4.617187-19.871094 0-37.847657 8.210937-50.75 21.410156l-73.015626-19.914062c-4.203124-1.144531-8.539062 1.332031-9.6875 5.535156-1.148437 4.203125 1.332032 8.542969 5.535157 9.6875l66.792969 18.214844c-3.265626 5.511719-5.808594 11.496093-7.492188 17.828125h-79.3125c-4.359375 0-7.890625 3.53125-7.890625 7.890625 0 4.355469 3.53125 7.886719 7.890625 7.886719h76.988281c-.027343.820312-.0625 1.636718-.0625 2.460937 0 6.179687.808594 12.210937 2.316407 17.988281l-59.226563 16.15625c-4.207031 1.144532-6.683594 5.480469-5.539063 9.683594.957032 3.511719 4.136719 5.816406 7.609376 5.816406.683593 0 1.382812-.089844 2.078124-.277344l60.773438-16.574218c5.273438 10.136718 12.949219 18.921875 22.433594 25.515625-6.660156 2.019531-13.121094 3.738281-19.253906 5.1875-4.238282 1.003906-6.859376 5.253906-5.859376 9.496093.859376 3.628907 4.097657 6.074219 7.671876 6.074219.601562 0 1.214843-.070312 1.824218-.214843 14.179688-3.355469 27.585938-7.433594 40.183594-12.183594v142.550781c0 4.355469 3.53125 7.890625 7.886719 7.890625 4.359375 0 7.890625-3.535156 7.890625-7.890625v-149.046875c12.226562-5.492188 23.574218-11.683594 33.953125-18.574219 9.03125-5.996093 17.34375-12.523437 24.914062-19.527343l100.121094 27.300781c.695313.1875 1.394531.277343 2.082031.277343 3.46875 0 6.648438-2.304687 7.605469-5.816406 1.148437-4.203125-1.332031-8.539062-5.535156-9.683594l-91.65625-24.992187c3.3125-3.761719 6.445312-7.628906 9.371093-11.609375h102.300782c4.355468 0 7.886718-3.53125 7.886718-7.890625 0-4.355469-3.53125-7.886719-7.886718-7.886719zm-93.136719-38.925781c-1.75 7.144531-5.339844 18.199219-12.550781 30.957031-15.289063-4.976562-30.621094-17.160156-35.078125-30.957031zm-110.113281 108.523437c-11.5-4.535156-20.878906-12.667968-27.007813-22.851562l27.691407-7.550781c4.203124-1.144531 6.679687-5.484375 5.535156-9.6875-1.144532-4.203125-5.488282-6.679688-9.6875-5.535157l-29.6875 8.097657c-1.148438-4.449219-1.761719-9.085938-1.761719-13.835938 0-.824219.027344-1.644531.0625-2.460937h10.320313c4.355468 0 7.890624-3.53125 7.890624-7.890625 0-4.355469-3.535156-7.886719-7.890624-7.886719h-7.273438c1.695312-4.835938 4.046875-9.359375 6.945312-13.476562l21.394532 5.832031c.695312.191406 1.390625.28125 2.082031.28125 3.46875 0 6.648437-2.308594 7.605469-5.816407 1.144531-4.203124-1.332032-8.542968-5.535156-9.6875l-12.871094-3.511718c9.125-6.664063 20.355468-10.609375 32.492187-10.609375 10.488281 0 20.589844 2.914062 29.355469 8.441406 7.226562 15.40625 22.75 27.867187 39.121094 34.199219-23.054688 31.804687-56.75 51.628906-88.78125 63.949218zm0 0"/></svg>