<svg viewBox="-131 0 512 512.00102" xmlns="http://www.w3.org/2000/svg"><path d="m104.527344 123.871094c-4.203125 0-7.605469 3.40625-7.605469 7.605468v68.851563h-21.46875c-4.199219 0-7.601563 3.40625-7.601563 7.605469 0 4.199218 3.402344 7.605468 7.601563 7.605468h100.011719c4.199218 0 7.605468-3.40625 7.605468-7.605468 0-4.199219-3.40625-7.605469-7.605468-7.605469h-21.46875v-68.851563c0-4.199218-3.402344-7.605468-7.601563-7.605468-4.203125 0-7.605469 3.40625-7.605469 7.605468v68.851563h-26.660156v-68.851563c0-4.199218-3.402344-7.605468-7.601562-7.605468zm0 0"/><path d="m243.316406 94.265625h-89.320312v-36.832031h29.429687c15.832031 0 28.710938-12.878906 28.710938-28.710938 0-7.671875-2.988281-14.886718-8.414063-20.3125-5.421875-5.421875-12.632812-8.410156-20.296875-8.410156h-115.925781c-15.835938 0-28.722656 12.886719-28.722656 28.722656 0 7.679688 2.988281 14.890625 8.410156 20.300782 5.425781 5.425781 12.640625 8.410156 20.3125 8.410156h29.421875v36.832031h-89.316406c-4.203125 0-7.605469 3.40625-7.605469 7.605469 0 4.199218 3.402344 7.601562 7.605469 7.601562h31.171875v204.523438c0 4.199218 3.40625 7.605468 7.605468 7.605468h32.578126v28.367188c0 4.199219 3.402343 7.601562 7.605468 7.601562h12.230469l5.351563 41.382813c.496093 3.832031 3.769531 6.628906 7.535156 6.628906.324218 0 .652344-.019531.984375-.0625 4.164062-.539062 7.105469-4.351562 6.566406-8.515625l-5.101563-39.433594h22.652344l-11.324218 87.554688-2.523438-19.511719c-.539062-4.164062-4.363281-7.105469-8.519531-6.566406-4.164063.539063-7.101563 4.351563-6.566407 8.519531l10.066407 77.804688c.492187 3.792968 3.71875 6.628906 7.542969 6.628906 3.820312 0 7.050781-2.835938 7.539062-6.628906l19.117188-147.800782h12.230468c4.203125 0 7.605469-3.402343 7.605469-7.601562v-28.367188h32.585937c4.199219 0 7.601563-3.40625 7.601563-7.605468v-144.136719c0-4.199219-3.402344-7.601563-7.601563-7.601563-4.203124 0-7.605468 3.402344-7.605468 7.601563v136.535156h-142.945313v-196.921875h142.945313v35.039063c0 4.199219 3.402344 7.605469 7.601562 7.605469 4.203125 0 7.605469-3.40625 7.605469-7.605469v-35.039063h31.175781c4.199219 0 7.601563-3.402344 7.601563-7.601562 0-4.199219-3.402344-7.605469-7.601563-7.605469zm-185.378906-56.003906c-2.550781-2.539063-3.949219-5.925781-3.949219-9.539063 0-7.453125 6.058594-13.515625 13.511719-13.515625h115.925781c3.605469 0 6.996094 1.40625 9.546875 3.957031 2.550782 2.554688 3.957032 5.949219 3.957032 9.558594 0 7.445313-6.058594 13.503906-13.503907 13.503906h-115.925781c-3.609375 0-7.003906-1.40625-9.5625-3.964843zm98.808594 304.101562h-62.578125v-20.761719h62.578125zm-44.617188-284.925781h26.660156v36.828125h-26.660156zm0 0"/></svg>