<svg viewBox="0 -5 512.00035 512" xmlns="http://www.w3.org/2000/svg"><path d="m511.996094 362.039062c-.140625-16.546874-6.664063-32.105468-18.367188-43.808593-24.464844-24.464844-64.273437-24.464844-88.734375 0l-19.851562 19.851562h-152.542969l-19.851562-19.851562c-11.851563-11.851563-27.609376-18.378907-44.367188-18.378907-2.445312 0-4.863281.15625-7.253906.429688 27.394531-107.925781 113.195312-192.089844 222.121094-217.136719 35.246093 37.929688 56.84375 88.714844 56.84375 144.457031 0 19.984376-2.773438 39.761719-8.238282 58.78125-1.160156 4.035157 1.171875 8.25 5.207032 9.410157.703124.199219 1.410156.296875 2.105468.296875 3.300782 0 6.34375-2.171875 7.304688-5.503906 5.859375-20.386719 8.828125-41.578126 8.828125-62.984376 0-60.796874-23.675781-117.953124-66.664063-160.9375-42.988281-42.988281-100.140625-66.664062-160.9375-66.664062-47.082031 0-92.265625 14.253906-130.664062 41.222656-3.433594 2.410156-4.265625 7.15625-1.851563 10.589844 2.414063 3.4375 7.15625 4.265625 10.59375 1.851562 35.824219-25.15625 77.984375-38.457031 121.921875-38.457031 17.921875 0 35.324219 2.242188 51.960938 6.441407-36.535156 13.113281-70.433594 32.140624-101.015625 56.777343-36.570313 29.457031-66.414063 65.277344-88.707031 106.46875-25.84375 47.75-40.234376 101.476563-41.878907 156.019531-3.011719-4.757812-5.847656-9.621093-8.464843-14.601562-15.886719-30.207031-24.285157-64.339844-24.285157-98.710938 0-60.660156 26.035157-118.570312 71.429688-158.875 3.140625-2.789062 3.425781-7.59375.636719-10.734374-2.785157-3.140626-7.589844-3.425782-10.734376-.640626-48.640624 43.191407-76.539062 105.246094-76.539062 170.25 0 36.824219 9 73.40625 26.03125 105.789063 16.480469 31.339844 40.449219 58.816406 69.308594 79.457031 1.339844.960938 2.886718 1.421875 4.417968 1.421875 2.371094 0 4.707032-1.105469 6.191407-3.183593 2.441406-3.414063 1.652343-8.164063-1.761719-10.609376-15.292969-10.9375-29.109375-23.933593-41.015625-38.472656-.109375-3.402344-.167969-6.945312-.167969-10.570312 0-55.613282 13.902344-110.699219 40.207032-159.296875 21.328124-39.410157 49.882812-73.679688 84.871093-101.867188 34.675781-27.933593 73.796875-48.328125 116.300781-60.695312 24.574219 9.5625 46.945313 23.566406 66.117188 41.027343-112.726562 29.550782-200.328125 119.789063-226.128906 233.949219-7.5625 3.113281-14.503906 7.722657-20.460938 13.679688-11.703125 11.703125-18.226562 27.261719-18.367187 43.804687-.121094 14.179688 4.449219 27.71875 12.988281 38.792969-8.539062 11.070313-13.109375 24.605469-12.988281 38.789063.140625 16.546874 6.664062 32.101562 18.367187 43.804687 12.234375 12.234375 28.300782 18.351563 44.371094 18.351563 16.066406 0 32.136719-6.117188 44.367188-18.351563l19.851562-19.847656h152.542969l19.851562 19.847656c24.464844 24.464844 64.273438 24.464844 88.734375 0 11.703125-11.703125 18.226563-27.257813 18.367188-43.804687.125-14.179688-4.449219-27.71875-12.988282-38.789063 8.539063-11.074219 13.113282-24.609375 12.988282-38.789063zm-28.496094 44.0625c17.839844 18.523438 17.558594 48.386719-.625 66.570313-9.269531 9.265625-21.4375 13.902344-33.613281 13.898437-12.171875 0-24.347657-4.632812-33.617188-13.898437l-22.074219-22.078125c-1.425781-1.425781-3.363281-2.230469-5.378906-2.230469h-158.84375c-2.015625 0-3.949218.804688-5.375 2.230469l-22.078125 22.078125c-8.980469 8.976563-20.917969 13.921875-33.613281 13.921875-12.699219 0-24.636719-4.945312-33.617188-13.921875-18.183593-18.183594-18.464843-48.046875-.625-66.570313 2.835938-2.945312 2.835938-7.605468 0-10.546874-17.839843-18.523438-17.558593-48.386719.625-66.570313 9.269532-9.269531 21.441407-13.902344 33.617188-13.902344 12.171875 0 24.34375 4.636719 33.613281 13.902344l22.078125 22.078125c1.425782 1.425781 3.359375 2.226562 5.375 2.226562h158.84375c2.015625 0 3.949219-.800781 5.375-2.226562l22.078125-22.078125c18.535157-18.535156 48.695313-18.535156 67.230469 0 18.183594 18.183594 18.464844 48.046875.625 66.566406-2.835938 2.945313-2.835938 7.605469 0 10.550781zm0 0"/><path d="m467.828125 342.511719c1.234375-3.082031.371094-6.667969-2.203125-8.785157-2.679688-2.207031-6.644531-2.28125-9.40625-.1875-5.269531 3.992188-3.03125 12.609376 3.488281 13.582032 3.410157.511718 6.789063-1.449219 8.121094-4.609375zm0 0"/><path d="m481.007812 354.941406c-2.597656-6.160156-11.703124-6.121094-14.117187.175782-1.207031 3.152343-.152344 6.808593 2.550781 8.828124 2.585938 1.925782 6.238282 2 8.882813.144532 2.910156-2.039063 4.003906-5.859375 2.683593-9.148438zm0 0"/><path d="m148.886719 451.480469c-.570313-3.054688-3.105469-5.46875-6.144531-6.003907-3.050782-.539062-6.238282.914063-7.828126 3.578126-1.675781 2.8125-1.34375 6.515624.84375 8.957031 2.132813 2.390625 5.621094 3.199219 8.589844 1.976562 3.285156-1.355469 5.269532-5.007812 4.539063-8.507812zm0 0"/><path d="m163.671875 464.4375c-1.234375-2.925781-4.21875-4.847656-7.410156-4.671875-3.09375.164063-5.867188 2.242187-6.832031 5.199219-.972657 2.972656-.003907 6.308594 2.425781 8.285156 2.546875 2.070312 6.269531 2.253906 9.003906.425781 3.003906-2.007812 4.144531-5.90625 2.8125-9.238281zm0 0"/><path d="m457.691406 355.957031c-1.207031-2.855469-4.078125-4.757812-7.183594-4.691406-3.105468.066406-5.960937 2.101563-7 5.035156-2.355468 6.667969 5.199219 12.734375 11.175782 9.011719 3.140625-1.953125 4.371094-5.945312 3.007812-9.355469zm0 0"/></svg>