<svg viewBox="-70 0 512 512.00002" xmlns="http://www.w3.org/2000/svg"><path d="m363.449219 512h-281.425781c-4.199219 0-7.605469-3.40625-7.605469-7.605469s3.40625-7.601562 7.605469-7.601562h273.824218v-481.585938h-340.640625v481.585938h41.46875c4.199219 0 7.605469 3.402343 7.605469 7.601562s-3.40625 7.605469-7.605469 7.605469h-49.070312c-4.199219 0-7.605469-3.40625-7.605469-7.605469v-496.789062c0-4.199219 3.40625-7.605469 7.605469-7.605469h355.847656c4.199219 0 7.601563 3.40625 7.601563 7.605469v496.789062c0 4.199219-3.402344 7.605469-7.605469 7.605469zm0 0"/><path d="m333.035156 481.585938h-295.015625c-4.199219 0-7.605469-3.40625-7.605469-7.605469v-435.960938c0-4.199219 3.40625-7.605469 7.605469-7.605469h295.015625c4.203125 0 7.605469 3.40625 7.605469 7.605469v72.257813c0 4.199218-3.402344 7.601562-7.605469 7.601562-4.199218 0-7.601562-3.402344-7.601562-7.601562v-64.652344h-279.808594v420.75h279.808594v-330.75c0-4.199219 3.402344-7.605469 7.601562-7.605469 4.203125 0 7.605469 3.40625 7.605469 7.605469v338.355469c0 4.199219-3.40625 7.605469-7.605469 7.605469zm0 0"/><path d="m193.171875 212.640625c-24.066406 0-43.648437-19.582031-43.648437-43.644531 0-24.066406 19.582031-43.648438 43.648437-43.648438s43.644531 19.582032 43.644531 43.648438c0 24.0625-19.578125 43.644531-43.644531 43.644531zm0-72.082031c-15.679687 0-28.4375 12.753906-28.4375 28.4375 0 15.679687 12.757813 28.4375 28.4375 28.4375s28.4375-12.757813 28.4375-28.4375c0-15.683594-12.757813-28.4375-28.4375-28.4375zm0 0"/><path d="m168.363281 119.554688c-3.40625 0-6.792969-.777344-9.941406-2.324219-5.414063-2.660157-9.472656-7.269531-11.421875-12.980469-1.945312-5.710938-1.554688-11.839844 1.105469-17.257812 2.660156-5.414063 7.269531-9.472657 12.980469-11.421876 5.710937-1.949218 11.839843-1.554687 17.257812 1.105469 5.414062 2.660157 9.472656 7.269531 11.417969 12.980469 4.023437 11.789062-2.292969 24.65625-14.082031 28.675781-2.394532.816407-4.859376 1.222657-7.316407 1.222657zm.027344-29.988282c-.804687 0-1.609375.132813-2.390625.398438-1.867188.636718-3.375 1.964844-4.246094 3.734375-.867187 1.769531-.996094 3.769531-.359375 5.636719 1.3125 3.855468 5.519531 5.921874 9.371094 4.605468 3.855469-1.316406 5.917969-5.519531 4.605469-9.371094-.636719-1.867187-1.964844-3.375-3.734375-4.246093-1.027344-.503907-2.132813-.757813-3.246094-.757813zm0 0"/><path d="m129.515625 150.925781c-4.3125 0-8.542969-1.242187-12.25-3.644531-5.0625-3.285156-8.542969-8.34375-9.796875-14.246094-1.257812-5.902344-.144531-11.941406 3.140625-17.003906s8.34375-8.542969 14.246094-9.800781c5.902343-1.257813 11.941406-.140625 17.003906 3.144531s8.542969 8.34375 9.800781 14.246094c1.257813 5.902344.140625 11.9375-3.144531 17.003906-3.285156 5.0625-8.34375 8.542969-14.246094 9.796875-1.582031.339844-3.171875.503906-4.753906.503906zm.0625-29.980469c-.519531 0-1.039063.054688-1.554687.164063-1.929688.410156-3.582032 1.546875-4.65625 3.203125-1.074219 1.652344-1.4375 3.625-1.027344 5.554688.410156 1.929687 1.550781 3.582031 3.203125 4.65625 1.65625 1.074218 3.628906 1.4375 5.558593 1.027343 1.925782-.410156 3.582032-1.546875 4.65625-3.203125 1.070313-1.65625 1.4375-3.628906 1.023438-5.558594-.410156-1.925781-1.546875-3.582031-3.203125-4.652343-1.210937-.789063-2.589844-1.191407-4-1.191407zm0 0"/><path d="m256.824219 152.101562c-1.738281 0-3.488281-.199218-5.21875-.609374-5.875-1.382813-10.859375-4.96875-14.035157-10.101563-3.175781-5.128906-4.164062-11.191406-2.777343-17.066406 1.378906-5.871094 4.96875-10.855469 10.097656-14.03125 5.132813-3.175781 11.195313-4.164063 17.066406-2.78125 5.875 1.382812 10.859375 4.96875 14.035157 10.101562 3.175781 5.132813 4.160156 11.191407 2.777343 17.066407-1.378906 5.871093-4.96875 10.855468-10.097656 14.03125-3.617187 2.242187-7.699219 3.390624-11.847656 3.390624zm-.058594-29.984374c-1.355469 0-2.6875.375-3.871094 1.109374-1.675781 1.035157-2.847656 2.664063-3.300781 4.585938-.453125 1.917969-.128906 3.898438.90625 5.578125 1.039062 1.675781 2.667969 2.847656 4.585938 3.300781 1.921874.449219 3.902343.128906 5.578124-.910156 1.675782-1.039062 2.851563-2.667969 3.304688-4.585938.449219-1.917968.125-3.902343-.910156-5.578124-1.039063-1.675782-2.667969-2.847657-4.585938-3.300782-.566406-.132812-1.140625-.199218-1.707031-.199218zm0 0"/><path d="m218.503906 120.007812c-2.566406 0-5.175781-.441406-7.726562-1.371093-11.699219-4.273438-17.746094-17.269531-13.472656-28.96875 4.273437-11.703125 17.265624-17.746094 28.96875-13.472657 11.703124 4.273438 17.746093 17.265626 13.472656 28.96875-3.339844 9.152344-12.023438 14.84375-21.242188 14.84375zm.03125-29.976562c-3.015625 0-5.851562 1.859375-6.945312 4.851562-1.394532 3.824219.578125 8.070313 4.402344 9.46875 3.828124 1.398438 8.074218-.578124 9.46875-4.402343 1.398437-3.824219-.578126-8.074219-4.402344-9.46875-.832032-.304688-1.683594-.449219-2.523438-.449219zm14.070313 12.523438h.011719zm0 0"/><path d="m299.417969 260.496094h-227.78125c-4.199219 0-7.601563-3.402344-7.601563-7.601563s3.402344-7.605469 7.601563-7.605469h227.78125c4.199219 0 7.605469 3.40625 7.605469 7.605469s-3.40625 7.601563-7.605469 7.601563zm0 0"/><path d="m259.445312 322.003906h-147.835937c-4.199219 0-7.605469-3.402344-7.605469-7.601562 0-4.199219 3.40625-7.605469 7.605469-7.605469h147.839844c4.199219 0 7.601562 3.40625 7.601562 7.605469 0 4.199218-3.402343 7.601562-7.605469 7.601562zm0 0"/><path d="m259.445312 355.125h-147.835937c-4.199219 0-7.605469-3.40625-7.605469-7.605469s3.40625-7.601562 7.605469-7.601562h147.839844c4.199219 0 7.601562 3.402343 7.601562 7.601562s-3.402343 7.605469-7.605469 7.605469zm0 0"/><path d="m259.445312 388.242188h-147.835937c-4.199219 0-7.605469-3.402344-7.605469-7.601563s3.40625-7.605469 7.605469-7.605469h147.839844c4.199219 0 7.601562 3.40625 7.601562 7.605469s-3.402343 7.601563-7.605469 7.601563zm0 0"/></svg>