<svg viewBox="0 0 512 512.00103" xmlns="http://www.w3.org/2000/svg"><path d="m483.867188 326.972656h-68.421876c2.265626-5.773437 3.4375-11.953125 3.4375-18.324218 0-13.414063-5.226562-26.035157-14.722656-35.542969-7.847656-7.835938-17.824218-12.753907-28.617187-14.234375.449219-2.707032.6875-5.457032.6875-8.234375 0-13.410157-5.226563-26.03125-14.726563-35.554688-7.691406-7.671875-17.414062-12.550781-27.945312-14.140625 0-.101562.007812-.199218.007812-.296875v-55.378906c0-9.8125-6.046875-18.0625-15.398437-21.019531-9.347657-2.953125-19.03125.324218-24.660157 8.339844-3.84375 5.460937-8.996093 9.972656-14.890624 13.050781-5.917969 3.078125-12.570313 4.714843-19.214844 4.738281h-30.699219c-27.710937 0-50.257813 22.550781-50.257813 50.269531 0 .101563.007813.199219.007813.300781-24.121094 3.671876-42.660156 24.558594-42.660156 49.691407 0 2.785156.238281 5.535156.683593 8.246093-24.453124 3.378907-43.347656 24.402344-43.347656 49.769532 0 6.371094 1.171875 12.546875 3.433594 18.324218h-68.429688c-15.511718-.003906-28.132812 12.617188-28.132812 28.128907 0 15.515625 12.621094 28.136719 28.132812 28.136719h2.800782v75.125c0 29.574218 24.0625 53.632812 53.636718 53.632812h45.519532c4.199218 0 7.605468-3.402344 7.605468-7.601562 0-4.199219-3.40625-7.605469-7.605468-7.605469h-45.519532c-21.1875 0-38.429687-17.238281-38.429687-38.425781v-75.125h419.71875v75.125c0 21.1875-17.238281 38.425781-38.425781 38.425781h-271.996094c-4.199219 0-7.601562 3.40625-7.601562 7.605469 0 4.199218 3.402343 7.601562 7.601562 7.601562h271.992188c29.574218 0 53.636718-24.058594 53.636718-53.632812v-75.125h2.800782c15.511718 0 28.132812-12.621094 28.132812-28.136719 0-15.511719-12.621094-28.132813-28.132812-28.132813zm-255.164063-161.390625h30.726563c9.082031-.03125 18.144531-2.265625 26.210937-6.457031 8.046875-4.199219 15.070313-10.351562 20.304687-17.792969 2.667969-3.796875 6.519532-2.9375 7.636719-2.582031 1.121094.351562 4.777344 1.867188 4.777344 6.515625v55.105469h-124.699219c.148438-19.207032 15.808594-34.789063 35.042969-34.789063zm-120.367187 143.066407c0-19.324219 15.726562-35.046876 35.058593-35.046876h150.121094c4.199219 0 7.605469-3.40625 7.605469-7.605468 0-4.199219-3.40625-7.601563-7.605469-7.601563h-141.648437c-.574219-2.527343-.867188-5.121093-.867188-7.757812 0-19.332031 15.722656-35.058594 35.050781-35.058594h139.910157c9.355468 0 18.164062 3.648437 24.789062 10.257813 6.625 6.636718 10.269531 15.445312 10.269531 24.800781 0 2.628906-.292969 5.222656-.863281 7.757812h-41.292969c-4.199219 0-7.601562 3.402344-7.601562 7.601563 0 4.199218 3.402343 7.605468 7.601562 7.605468h49.761719c9.355469 0 18.160156 3.644532 24.78125 10.261719 6.621094 6.628907 10.269531 15.429688 10.269531 24.789063 0 6.558594-1.785156 12.820312-5.171875 18.320312h-285.003906c-3.386719-5.496094-5.164062-11.761718-5.164062-18.324218zm375.53125 59.382812h-455.734376c-7.125 0-12.925781-5.796875-12.925781-12.925781 0-7.125 5.800781-12.925781 12.925781-12.925781h455.734376c7.128906 0 12.925781 5.800781 12.925781 12.925781 0 7.128906-5.796875 12.925781-12.925781 12.925781zm0 0"/><path d="m251.207031 84.089844c-5.464843 4.441406-12.945312 10.523437-12.945312 22.378906 0 4.199219 3.402343 7.605469 7.601562 7.605469s7.605469-3.40625 7.605469-7.605469c0-4.421875 2.378906-6.550781 7.328125-10.578125 5.464844-4.4375 12.949219-10.519531 12.949219-22.378906 0-11.855469-7.484375-17.9375-12.949219-22.378907-4.949219-4.023437-7.328125-6.152343-7.328125-10.578124 0-4.421876 2.378906-6.550782 7.328125-10.574219 5.464844-4.4375 12.949219-10.519531 12.949219-22.375 0-4.199219-3.40625-7.605469-7.605469-7.605469s-7.601563 3.40625-7.601563 7.605469c0 4.421875-2.382812 6.550781-7.332031 10.574219-5.464843 4.4375-12.945312 10.519531-12.945312 22.375 0 11.859374 7.480469 17.941406 12.945312 22.378906 4.953125 4.023437 7.332031 6.152344 7.332031 10.578125s-2.378906 6.554687-7.332031 10.578125zm0 0"/></svg>