<svg viewBox="0 1 511 511.99998" xmlns="http://www.w3.org/2000/svg"><path d="m504.535156 64.957031c4.195313 0 7.597656-3.402343 7.597656-7.597656v-49.761719c0-4.195312-3.402343-7.597656-7.597656-7.597656h-51.527344c-4.195312 0-7.597656 3.402344-7.597656 7.597656 0 4.199219 3.402344 7.597656 7.597656 7.597656h43.929688v34.5625h-481.242188v-34.5625h411.980469c4.199219 0 7.601563-3.398437 7.601563-7.597656 0-4.195312-3.402344-7.597656-7.601563-7.597656h-419.578125c-4.195312 0-7.597656 3.402344-7.597656 7.597656v49.761719c0 4.195313 3.402344 7.597656 7.597656 7.597656h13.355469v277.585938h-13.355469c-4.195312 0-7.597656 3.402343-7.597656 7.597656v49.761719c0 4.195312 3.402344 7.597656 7.597656 7.597656h46.21875v96.902344c0 4.195312 3.402344 7.597656 7.597656 7.597656h57.304688c4.199219 0 7.601562-3.402344 7.601562-7.597656v-96.902344h20.738282c4.195312 0 7.597656-3.402344 7.597656-7.597656 0-4.199219-3.402344-7.597656-7.597656-7.597656h-131.863282v-34.5625h481.242188v34.5625h-324.050781c-4.195313 0-7.597657 3.398437-7.597657 7.597656 0 4.195312 3.402344 7.597656 7.597657 7.597656h212.925781v96.902344c0 4.195312 3.402344 7.597656 7.601562 7.597656h57.304688c4.195312 0 7.597656-3.402344 7.597656-7.597656v-96.902344h46.21875c4.195313 0 7.597656-3.402344 7.597656-7.597656v-49.761719c0-4.195313-3.402343-7.597656-7.597656-7.597656h-13.355468v-277.585938zm-392.914062 431.847657h-42.109375v-89.304688h42.109375zm331.5 0h-42.109375v-89.304688h42.109375zm32.863281-154.261719h-15.5625c-1.375-2.566407-2.84375-4.867188-4.285156-7.117188-4.265625-6.65625-7.949219-12.402343-7.949219-24.453125 0-4.195312-3.402344-7.597656-7.597656-7.597656-4.199219 0-7.601563 3.402344-7.601563 7.597656 0 15.722656 4.992188 24.253906 9.660157 31.570313h-26.800782c-2.765625-4.925781-4.683594-10.253907-4.683594-19.128907 0-12.058593 3.6875-17.8125 7.957032-24.46875 4.851562-7.574218 10.351562-16.15625 10.351562-32.660156 0-16.511718-5.5-25.097656-10.355468-32.671875-4.265626-6.65625-7.949219-12.40625-7.949219-24.460937 0-4.195313-3.402344-7.597656-7.597657-7.597656-4.199218 0-7.601562 3.402343-7.601562 7.597656 0 16.503906 5.5 25.089844 10.355469 32.660156 4.265625 6.660156 7.953125 12.410156 7.953125 24.472656 0 12.050782-3.683594 17.800782-7.953125 24.457032-4.851563 7.574218-10.355469 16.160156-10.355469 32.671874 0 7.960938 1.277344 14.058594 3.160156 19.128907h-38.816406c1.242188-8.695313 4.621094-13.992188 8.417969-19.917969 5.308593-8.289062 11.332031-17.683594 11.332031-35.71875s-6.019531-27.429688-11.332031-35.71875c-4.792969-7.476562-8.929688-13.9375-8.929688-27.519531 0-13.585938 4.136719-20.042969 8.929688-27.523438 5.308593-8.289062 11.332031-17.683593 11.332031-35.71875 0-4.195312-3.402344-7.597656-7.597656-7.597656-4.199219 0-7.601563 3.402344-7.601563 7.597656 0 13.585938-4.136719 20.042969-8.929687 27.519531-5.3125 8.289063-11.332032 17.6875-11.332032 35.722657 0 18.03125 6.019532 27.429687 11.332032 35.71875 4.792968 7.476562 8.929687 13.933593 8.929687 27.519531 0 13.582031-4.136719 20.039062-8.929687 27.519531-4.507813 7.035157-9.511719 14.886719-10.925782 28.121094h-272.957031c-2.761719-4.929687-4.679687-10.253906-4.679687-19.132813 0-12.058593 3.683594-17.808593 7.953125-24.46875 4.855469-7.570312 10.355469-16.15625 10.355469-32.660156 0-16.511718-5.503907-25.097656-10.359376-32.671875-4.265624-6.65625-7.949218-12.40625-7.949218-24.460937 0-4.195313-3.402344-7.597656-7.597656-7.597656-4.199219 0-7.597657 3.402343-7.597657 7.597656 0 16.507812 5.5 25.089844 10.351563 32.660156 4.269531 6.660156 7.953125 12.410156 7.953125 24.472656 0 12.050782-3.683594 17.800782-7.949219 24.460938-4.855469 7.574218-10.359375 16.15625-10.359375 32.667968 0 7.960938 1.277344 14.058594 3.160156 19.132813h-18.683593v-277.589844h439.335937zm0 0"/><path d="m49.96875 117.789062c8.511719 1.777344 14.792969 4.578126 21.441406 7.539063 11.898438 5.304687 24.199219 10.789063 48.542969 10.789063 24.347656 0 36.652344-5.488282 48.550781-10.792969 10.929688-4.871094 21.25-9.472657 42.355469-9.472657 21.109375 0 31.429687 4.601563 42.359375 9.472657 11.894531 5.308593 24.199219 10.792969 48.542969 10.792969 24.347656 0 36.652343-5.488282 48.550781-10.792969 10.929688-4.871094 21.25-9.472657 42.355469-9.472657 21.117187 0 31.441406 4.601563 42.371093 9.472657 7.085938 3.160156 14.410157 6.421875 24.511719 8.535156 4.109375.863281 8.136719-1.777344 8.992188-5.886719.859375-4.109375-1.773438-8.132812-5.882813-8.992187-8.511718-1.777344-14.789062-4.574219-21.4375-7.535157-11.898437-5.304687-24.207031-10.789062-48.554687-10.789062-24.339844 0-36.640625 5.484375-48.542969 10.789062-10.925781 4.871094-21.25 9.472657-42.363281 9.472657-21.109375 0-31.429688-4.601563-42.355469-9.472657-11.898438-5.304687-24.203125-10.789062-48.546875-10.789062-24.339844 0-36.640625 5.484375-48.542969 10.789062-10.925781 4.871094-21.25 9.472657-42.363281 9.472657-21.109375 0-31.429687-4.601563-42.359375-9.46875-7.085938-3.160157-14.410156-6.425781-24.515625-8.535157-4.109375-.859374-8.132813 1.777344-8.992187 5.882813-.859376 4.109375 1.777343 8.132813 5.882812 8.992187zm0 0"/><path d="m265.832031 223.046875c-23.894531 0-46.417969 11.066406-61.148437 29.472656-14.734375-18.410156-37.253906-29.476562-61.144532-29.476562-8.652343 0-17.152343 1.40625-25.273437 4.179687-3.074219 1.046875-5.140625 3.9375-5.140625 7.191406 0 3.25 2.066406 6.140626 5.140625 7.191407 12.980469 4.429687 24.132813 12.980469 31.824219 24.308593-7.691406 11.332032-18.84375 19.882813-31.820313 24.304688-3.078125 1.046875-5.144531 3.9375-5.144531 7.1875-.003906 3.253906 2.066406 6.144531 5.140625 7.195312 8.121094 2.769532 16.621094 4.175782 25.273437 4.175782 23.894532 0 46.414063-11.066406 61.140626-29.46875 14.734374 18.40625 37.257812 29.472656 61.152343 29.472656 27.800781 0 53.746094-14.964844 67.722657-39.054688 1.367187-2.359374 1.367187-5.265624 0-7.625-13.972657-24.089843-39.921876-39.054687-67.722657-39.054687zm-121.566406 70.527344c8.605469-6.335938 15.902344-14.433594 21.367187-23.851563 1.367188-2.359375 1.367188-5.269531 0-7.625-5.464843-9.417968-12.765624-17.511718-21.378906-23.851562 20.617188.234375 39.902344 10.6875 51.457032 27.664062-11.546876 16.972656-30.828126 27.425782-51.445313 27.664063zm121.566406.007812c-20.890625 0-40.492187-10.496093-52.175781-27.671875 11.683594-17.167968 31.285156-27.667968 52.175781-27.667968 20.894531 0 40.496094 10.5 52.179688 27.667968-11.683594 17.175782-31.285157 27.671875-52.179688 27.671875zm0 0"/><path d="m282.683594 250.546875c-4.195313 0-7.597656 3.402344-7.597656 7.597656v7.429688c0 4.199219 3.402343 7.601562 7.597656 7.601562 4.195312 0 7.597656-3.402343 7.597656-7.601562v-7.429688c0-4.195312-3.402344-7.597656-7.597656-7.597656zm0 0"/><path d="m311.949219 190.480469c3.816406 5.789062 12.980469 3.5 13.851562-3.289063.878907-6.867187-7.605469-11.179687-12.679687-6.523437-2.738282 2.511719-3.203125 6.722656-1.171875 9.8125zm0 0"/><path d="m460.527344 207.664062c-1.28125-3.035156-4.457032-4.992187-7.761719-4.65625-3.035156.3125-5.628906 2.445313-6.523437 5.359376-.890626 2.910156.097656 6.152343 2.449218 8.082031 2.558594 2.097656 6.285156 2.269531 9.039063.441406 2.984375-1.972656 4.160156-5.933594 2.796875-9.226563zm0 0"/><path d="m95.820312 159.945312c-1.164062-2.808593-3.980468-4.695312-7.019531-4.695312-3.183593 0-6.078125 2.054688-7.148437 5.039062-1.027344 2.859376-.210938 6.144532 2.042968 8.1875 2.566407 2.324219 6.441407 2.582032 9.316407.6875 3.007812-1.980468 4.132812-5.902343 2.808593-9.21875zm0 0"/><path d="m273.957031 170.664062c3.695313 5.601563 12.667969 3.671876 13.800781-2.921874.546876-3.191407-1.042968-6.476563-3.90625-7.996094-2.867187-1.519532-6.460937-1.039063-8.816406 1.195312-2.65625 2.519532-3.082031 6.675782-1.078125 9.722656zm0 0"/></svg>