<svg viewBox="-54 0 512 512.00103" xmlns="http://www.w3.org/2000/svg"><path d="m301.335938 357.105469c0 28.09375 22.851562 50.945312 50.941406 50.945312 28.09375 0 50.945312-22.851562 50.945312-50.945312 0-25.507813-18.84375-46.691407-43.339844-50.375v-250.113281c12.214844-3.34375 21.21875-14.535157 21.21875-27.796876 0-15.890624-12.929687-28.820312-28.824218-28.820312h-73.523438c-4.203125 0-7.605468 3.40625-7.605468 7.605469s3.402343 7.601562 7.605468 7.601562h73.523438c7.507812 0 13.617187 6.105469 13.617187 13.613281 0 7.507813-6.109375 13.617188-13.617187 13.617188h-323.453125c-7.507813 0-13.617188-6.109375-13.617188-13.617188 0-7.507812 6.109375-13.613281 13.617188-13.613281h224.578125c4.203125 0 7.605468-3.402343 7.605468-7.601562s-3.402343-7.605469-7.605468-7.605469h-224.578125c-15.894531 0-28.824219 12.929688-28.824219 28.820312 0 15.894532 12.929688 28.824219 28.824219 28.824219h78.332031v396.714844h-78.332031c-15.894531 0-28.824219 12.925781-28.824219 28.820313 0 15.890624 12.929688 28.820312 28.824219 28.820312h323.453125c15.894531 0 28.824218-12.929688 28.824218-28.820312 0-15.894532-12.929687-28.820313-28.824218-28.820313h-78.332032v-396.714844h70.730469v249.085938c-24.496093 3.683593-43.339843 24.867187-43.339843 50.375zm86.679687 0c0 19.707031-16.03125 35.738281-35.738281 35.738281-19.703125 0-35.734375-16.03125-35.734375-35.738281 0-19.703125 16.03125-35.734375 35.734375-35.734375 19.707031 0 35.738281 16.03125 35.738281 35.734375zm-129.277344-151.332031-136.375 82.667968v-62.222656l136.375-82.667969zm107.15625 277.40625c0 7.503906-6.109375 13.613281-13.617187 13.613281h-323.453125c-7.507813 0-13.617188-6.105469-13.617188-13.613281 0-7.507813 6.109375-13.613282 13.617188-13.613282h323.453125c7.507812 0 13.617187 6.105469 13.617187 13.613282zm-243.53125-28.824219v-68.121094l44.679688-27.085937c3.589843-2.175782 4.738281-6.851563 2.5625-10.441407-2.179688-3.589843-6.855469-4.742187-10.445313-2.5625l-36.796875 22.308594v-62.226563l136.375-82.667968v62.222656l-75.71875 45.902344c-3.589843 2.175781-4.738281 6.851562-2.558593 10.441406 1.429687 2.359375 3.9375 3.664062 6.507812 3.664062 1.34375 0 2.703125-.355468 3.933594-1.101562l67.835937-41.121094v62.230469l-114.234375 69.246094c-3.59375 2.175781-4.738281 6.851562-2.5625 10.445312 1.429688 2.359375 3.941406 3.660157 6.511719 3.660157 1.339844 0 2.703125-.355469 3.933594-1.101563l106.351562-64.464844v70.773438zm136.375-328.589844-136.375 82.667969v-62.222656l114.253907-69.253907c3.589843-2.179687 4.738281-6.855469 2.5625-10.445312-2.179688-3.589844-6.855469-4.738281-10.445313-2.5625l-106.371094 64.476562v-70.78125h136.375zm0 0"/></svg>