<svg viewBox="0 -69 512.00002 512" xmlns="http://www.w3.org/2000/svg"><path d="m441.621094 0h-34.492188c-4.199218 0-7.605468 3.40625-7.605468 7.605469s3.40625 7.601562 7.605468 7.601562h34.492188c30.421875 0 55.171875 24.75 55.171875 55.171875v233.015625c0 30.421875-24.75 55.171875-55.171875 55.171875h-371.242188c-30.421875 0-55.171875-24.75-55.171875-55.171875v-233.015625c0-30.421875 24.75-55.171875 55.171875-55.171875h311.402344c4.199219 0 7.601562-3.402343 7.601562-7.601562s-3.402343-7.605469-7.601562-7.605469h-311.402344c-38.804687 0-70.378906 31.574219-70.378906 70.378906v233.015625c0 38.804688 31.574219 70.378907 70.378906 70.378907h371.242188c38.804687 0 70.378906-31.574219 70.378906-70.378907v-233.015625c0-38.804687-31.574219-70.378906-70.378906-70.378906zm0 0"/><path d="m355.703125 220.042969c0 20.648437 16.796875 37.445312 37.441406 37.445312h30.402344c20.644531 0 37.441406-16.796875 37.441406-37.445312v-131.597657c0-20.644531-16.796875-37.441406-37.441406-37.441406h-335.097656c-20.648438 0-37.445313 16.796875-37.445313 37.441406v68.785157c0 4.199219 3.402344 7.605469 7.605469 7.605469 4.199219 0 7.601563-3.40625 7.601563-7.605469v-68.785157c0-12.257812 9.976562-22.234374 22.238281-22.234374h335.097656c12.257813 0 22.234375 9.972656 22.234375 22.234374v131.597657c0 12.261719-9.976562 22.238281-22.234375 22.238281h-30.402344c-12.257812 0-22.234375-9.976562-22.234375-22.238281 0-20.644531-16.796875-37.441407-37.441406-37.441407h-154.929688c-20.648437 0-37.445312 16.796876-37.445312 37.441407 0 12.261719-9.972656 22.238281-22.234375 22.238281h-30.410156c-12.261719 0-22.238281-9.976562-22.238281-22.238281v-37.464844c0-4.199219-3.402344-7.601563-7.601563-7.601563-4.203125 0-7.605469 3.402344-7.605469 7.601563v37.464844c0 20.648437 16.796875 37.445312 37.445313 37.445312h30.410156c20.644531 0 37.441406-16.796875 37.441406-37.445312 0-12.257813 9.976563-22.234375 22.238281-22.234375h154.929688c12.257812 0 22.234375 9.976562 22.234375 22.234375zm0 0"/><path d="m81.539062 123.789062c.523438 0 1.050782-.054687 1.578126-.164062 56.730468-11.964844 114.898437-18.035156 172.882812-18.035156 57.980469 0 116.148438 6.0625 172.882812 18.023437 4.105469.863281 8.140626-1.761719 9.007813-5.871093.867187-4.109376-1.761719-8.144532-5.871094-9.011719-57.765625-12.175781-116.988281-18.351563-176.019531-18.351563-59.035156.003906-118.257812 6.179688-176.019531 18.363282-4.109375.867187-6.738281 4.898437-5.871094 9.007812.753906 3.582031 3.914063 6.039062 7.429687 6.039062zm0 0"/><path d="m298.058594 213.898438-26.140625 26.140624c-5.042969-1.523437-10.382813-2.351562-15.917969-2.351562s-10.875.828125-15.917969 2.351562l-26.140625-26.140624c-2.175781-2.171876-5.445312-2.824219-8.285156-1.648438-2.84375 1.179688-4.695312 3.949219-4.695312 7.027344v73.445312c0 30.347656 24.691406 55.039063 55.039062 55.039063s55.039062-24.691407 55.039062-55.039063v-73.445312c0-3.078125-1.851562-5.847656-4.695312-7.027344-2.839844-1.175781-6.109375-.523438-8.285156 1.648438zm-81.890625 23.734374 9.316406 9.3125c-3.390625 2.269532-6.511719 4.910157-9.316406 7.855469zm39.832031 94.921876c-21.960938 0-39.832031-17.871094-39.832031-39.832032 0-21.960937 17.871093-39.832031 39.832031-39.832031s39.832031 17.871094 39.832031 39.832031c0 21.964844-17.871093 39.832032-39.832031 39.832032zm30.515625-85.609376 9.316406-9.3125v17.167969c-2.804687-2.945312-5.921875-5.585937-9.316406-7.855469zm0 0"/><path d="m263.652344 285.117188h-15.304688c-4.199218 0-7.601562 3.40625-7.601562 7.605468 0 4.199219 3.402344 7.605469 7.601562 7.605469h.046875v2.21875c0 4.199219 3.40625 7.605469 7.605469 7.605469s7.605469-3.40625 7.605469-7.605469v-2.21875h.046875c4.199218 0 7.601562-3.40625 7.601562-7.605469 0-4.199218-3.402344-7.605468-7.601562-7.605468zm0 0"/></svg>