<svg viewBox="1 -34 511.99999 511" xmlns="http://www.w3.org/2000/svg"><path d="m468.992188 43.503906c-27.742188-27.730468-64.613282-43.003906-103.824219-43.003906 0 0 0 0-.003907 0h-182.054687c-4.25 0-7.699219 3.449219-7.699219 7.699219 0 4.253906 3.449219 7.703125 7.699219 7.703125h47.660156c-34.34375 14.15625-64.035156 37.367187-86.074219 66.652344-.171874-.007813-.34375-.023438-.515624-.023438h-1.046876c-38.386718 0-70.070312-29.25-73.933593-66.628906h88.242187c4.253906 0 7.699219-3.449219 7.699219-7.703125 0-4.25-3.445313-7.699219-7.699219-7.699219h-96.339844c-4.253906 0-7.699218 3.449219-7.699218 7.699219 0 30.886719 15.6875 58.183593 39.511718 74.332031h-85.214843c-4.25 0-7.699219 3.445312-7.699219 7.699219 0 49.476562 40.253906 89.730469 89.730469 89.730469h15.414062c-1.0625 8.433593-1.613281 17.023437-1.613281 25.742187v229.613281c0 4.253906 3.449219 7.699219 7.703125 7.699219 4.25 0 7.699219-3.445313 7.699219-7.699219v-211.796875c69.273437 4 124.402344 61.621094 124.402344 131.882813v79.914062c0 4.25 3.445312 7.699219 7.699218 7.699219s7.699219-3.449219 7.699219-7.699219v-79.914062c0-78.753906-62.03125-143.285156-139.800781-147.304688v-2.394531c0-85.789063 57.21875-158.453125 135.492187-181.871094-6.34375 4.421875-12.339843 9.429688-17.921875 15.011719-24.726562 24.714844-38.34375 57.585938-38.34375 92.5625 0 72.183594 58.722656 130.90625 130.90625 130.90625h28.398438v48.769531c0 4.25 3.445312 7.699219 7.699218 7.699219 4.253907 0 7.699219-3.449219 7.699219-7.699219v-103.324219h131.4375c4.253907 0 7.699219-3.449218 7.699219-7.699218v-52.722656c0-39.210938-15.273438-76.085938-43.007812-103.832032zm-379.261719 121.054688c-38.386719 0-70.070313-29.246094-73.933594-66.628906h118.390625c-12.496094 20.167968-21.605469 42.640624-26.507812 66.628906zm406.867187-17.222656v23.882812c-15.078125-11.125-41.285156-17.335938-78.03125-18.460938-18.902344-.582031-35.953125.332032-45.703125 1.054688v-137.691406c32.207031 1.847656 62.230469 15.273437 85.238281 38.273437 24.824219 24.835938 38.496094 57.84375 38.496094 92.941407zm-167.53125 99.578124c-63.691406 0-115.503906-51.816406-115.503906-115.507812 0-30.859375 12.015625-59.863281 33.832031-81.671875 21.808594-21.820313 50.8125-33.832031 81.671875-33.832031h28.398438v231.011718zm43.796875-77.6875c30.601563-2.464843 95.183594-3.273437 116.90625 16.253907 2.351563 2.109375 4.074219 4.394531 5.207031 6.875h-122.113281zm0 0"/><path d="m365.164062 329.050781c-4.253906 0-7.699218 3.445313-7.699218 7.699219v98.566406c0 4.25 3.445312 7.699219 7.699218 7.699219 4.253907 0 7.699219-3.449219 7.699219-7.699219v-98.566406c0-4.253906-3.445312-7.699219-7.699219-7.699219zm0 0"/><path d="m324.925781 72.882812c-4.253906 0-7.699219 3.449219-7.699219 7.703126v20.019531c0 4.253906 3.445313 7.699219 7.699219 7.699219 4.253907 0 7.699219-3.445313 7.699219-7.699219v-20.019531c0-4.253907-3.445312-7.703126-7.699219-7.703126zm0 0"/><path d="m196.488281 326.996094c-4.253906 0-7.703125 3.449218-7.703125 7.699218v100.621094c0 4.25 3.449219 7.699219 7.703125 7.699219 4.25 0 7.699219-3.449219 7.699219-7.699219v-100.621094c0-4.25-3.449219-7.699218-7.699219-7.699218zm0 0"/><path d="m154.226562 279.765625c-4.253906 0-7.699218 3.449219-7.699218 7.703125v147.847656c0 4.25 3.445312 7.699219 7.699218 7.699219 4.253907 0 7.699219-3.449219 7.699219-7.699219v-147.847656c0-4.253906-3.445312-7.703125-7.699219-7.703125zm0 0"/></svg>