<svg viewBox="1 -17 511.99976 511" xmlns="http://www.w3.org/2000/svg"><path d="m491.5625 357.839844c-11.773438-11.757813-27.003906-18.78125-43.382812-20.160156 1.082031-4.914063 1.640624-9.941407 1.640624-15.042969 0-18.628907-7.253906-36.15625-20.441406-49.363281-11.402344-11.382813-26.042968-18.335938-41.832031-20.015626.054687-1.164062.09375-2.332031.09375-3.5v-11.414062c.132813-.566406.203125-1.148438.203125-1.746094v-49.007812c0-.605469-.070312-1.191406-.203125-1.753906v-16.800782c0-12.746094-7.851563-23.460937-20.003906-27.304687-12.152344-3.84375-24.738281.410156-32.0625 10.832031-11.996094 17.054688-31.605469 27.300781-52.410157 27.410156h-39.199218c-.183594-1.714844-.949219-3.328125-2.179688-4.5625l-52.90625-52.902344 52.90625-52.90625c2.96875-2.972656 2.96875-7.785156 0-10.753906l-56.121094-56.121094c-2.96875-2.96875-7.785156-2.96875-10.753906 0l-52.90625 52.90625-10.859375-10.859374c-2.96875-2.96875-7.78125-2.96875-10.753906 0-2.96875 2.96875-2.96875 7.785156 0 10.753906l16.238281 16.238281c1.425782 1.425781 3.359375 2.226563 5.375 2.226563s3.953125-.800782 5.378906-2.226563l52.90625-52.90625 45.363282 45.363281-52.90625 52.90625c-1.425782 1.425782-2.226563 3.359375-2.226563 5.378906 0 2.015626.800781 3.949219 2.226563 5.375l52.90625 52.90625-45.363282 45.367188-52.90625-52.90625c-2.972656-2.972656-7.785156-2.972656-10.753906 0l-52.90625 52.90625-45.367187-45.367188 52.90625-52.90625c2.96875-2.96875 2.96875-7.785156 0-10.753906l-52.902344-52.902344 45.363281-45.367187 18.421875 18.421875c2.96875 2.96875 7.785157 2.96875 10.753907 0 2.96875-2.972656 2.96875-7.785156 0-10.753906l-23.796876-23.800782c-2.96875-2.96875-7.785156-2.96875-10.753906 0l-56.121094 56.121094c-2.96875 2.96875-2.96875 7.785156 0 10.753906l52.90625 52.902344-52.90625 52.90625c-2.96875 2.972656-2.96875 7.785156 0 10.753906l56.121094 56.121094c1.425782 1.425782 3.359375 2.226563 5.375 2.226563s3.953125-.800781 5.375-2.226563l52.90625-52.90625 47.664063 47.664063c-.769531 4.179687-1.160157 8.4375-1.160157 12.714843 0 1.167969.035157 2.335938.09375 3.5-34.957031 3.761719-62.273437 33.433594-62.273437 69.375 0 5.109376.558594 10.140626 1.640625 15.050782-35.695312 3.035156-63.820312 33.039062-63.820312 69.507812 0 18.628906 7.253906 36.152344 20.433593 49.355469 13.195313 13.175781 30.71875 20.429687 49.347657 20.429687h244.101562c4.199219 0 7.605469-3.40625 7.605469-7.605468 0-4.199219-3.40625-7.601563-7.605469-7.601563h-244.101562c-14.570313 0-28.277344-5.679687-38.59375-15.976562-10.304688-10.320313-15.980469-24.03125-15.980469-38.597657 0-30.09375 24.480469-54.578124 54.574219-54.578124h328.285156c14.570312 0 28.28125 5.679687 38.59375 15.976562 10.304687 10.324219 15.984375 24.03125 15.984375 38.601562 0 30.089844-24.484375 54.574219-54.578125 54.574219h-58.832032c-4.199218 0-7.605468 3.402344-7.605468 7.601563 0 4.203125 3.40625 7.605468 7.605468 7.605468h58.832032c38.480468 0 69.785156-31.304687 69.785156-69.78125 0-18.628906-7.253906-36.152343-20.4375-49.355468zm-259.109375-162.34375c1.941406-.207032 3.890625-.3125 5.816406-.3125h44.933594c25.757813-.136719 49.988281-12.796875 64.8125-33.871094 4.167969-5.933594 10.5-6.515625 15.035156-5.082031 4.535157 1.433593 9.382813 5.550781 9.382813 12.804687v18.554688c0 .601562.070312 1.1875.203125 1.75v45.433594c-.132813.566406-.203125 1.148437-.203125 1.746093v13.238281c0 1.035157-.039063 2.066407-.097656 3.09375h-188.523438c-.058594-1.027343-.097656-2.058593-.097656-3.09375 0-2.097656.132812-4.191406.371094-6.265624.5625-.328126 1.097656-.722657 1.578124-1.203126zm-56.34375 72.5625h203.929687c14.570313 0 28.277344 5.671875 38.589844 15.96875 10.308594 10.328125 15.984375 24.039062 15.984375 38.609375 0 5.046875-.679687 9.996093-2.027343 14.777343h-309.023438c-1.347656-4.777343-2.027344-9.726562-2.027344-14.777343 0-30.09375 24.480469-54.578125 54.574219-54.578125zm0 0"/></svg>