<svg viewBox="-60 0 512 512.00002" xmlns="http://www.w3.org/2000/svg"><path d="m384.824219 236.691406c4.199219 0 7.601562-3.40625 7.601562-7.605468v-56.042969c0-26.867188-20.511719-49.035157-46.695312-51.664063v-87.722656c0-18.558594-15.097657-33.65625-33.65625-33.65625h-160.347657c-4.199218 0-7.601562 3.40625-7.601562 7.605469s3.402344 7.601562 7.601562 7.601562h160.347657c10.171875 0 18.449219 8.277344 18.449219 18.449219v87.457031h-268.617188v-87.457031c0-10.171875 8.273438-18.449219 18.449219-18.449219h46.023437c4.199219 0 7.605469-3.402343 7.605469-7.601562s-3.40625-7.605469-7.605469-7.605469h-46.023437c-18.5625 0-33.660157 15.097656-33.660157 33.65625v87.722656c-26.183593 2.628906-46.695312 24.796875-46.695312 51.664063v287.03125c0 28.632812 23.292969 51.925781 51.925781 51.925781h288.574219c28.632812 0 51.925781-23.292969 51.925781-51.925781v-205.640625c0-4.199219-3.402343-7.601563-7.601562-7.601563s-7.605469 3.402344-7.605469 7.601563v205.640625c0 20.246093-16.472656 36.71875-36.71875 36.71875h-288.574219c-20.246093 0-36.71875-16.472657-36.71875-36.71875v-287.03125c0-20.246094 16.472657-36.71875 36.71875-36.71875h288.574219c20.246094 0 36.71875 16.472656 36.71875 36.71875v56.042969c0 4.199218 3.40625 7.605468 7.605469 7.605468zm0 0"/><path d="m76.195312 35.953125v65.390625c0 4.203125 3.402344 7.605469 7.601563 7.605469 4.203125 0 7.605469-3.402344 7.605469-7.605469v-65.390625c0-4.199219-3.402344-7.601563-7.605469-7.601563-4.199219 0-7.601563 3.402344-7.601563 7.601563zm0 0"/><path d="m108.347656 35.953125v65.390625c0 4.203125 3.402344 7.605469 7.605469 7.605469 4.199219 0 7.601563-3.402344 7.601563-7.605469v-65.390625c0-4.199219-3.402344-7.601563-7.601563-7.601563-4.203125 0-7.605469 3.402344-7.605469 7.601563zm0 0"/><path d="m148.105469 108.949219c4.199219 0 7.601562-3.402344 7.601562-7.605469v-65.390625c0-4.199219-3.402343-7.601563-7.601562-7.601563s-7.605469 3.402344-7.605469 7.601563v65.390625c0 4.203125 3.40625 7.605469 7.605469 7.605469zm0 0"/><path d="m187.859375 101.34375v-65.390625c0-4.199219-3.40625-7.601563-7.605469-7.601563-4.199218 0-7.601562 3.402344-7.601562 7.601563v65.390625c0 4.203125 3.402344 7.605469 7.601562 7.605469 4.199219 0 7.605469-3.402344 7.605469-7.605469zm0 0"/><path d="m220.011719 101.34375v-65.390625c0-4.199219-3.402344-7.601563-7.605469-7.601563-4.199219 0-7.601562 3.402344-7.601562 7.601563v65.390625c0 4.203125 3.402343 7.605469 7.601562 7.605469 4.203125 0 7.605469-3.402344 7.605469-7.605469zm0 0"/><path d="m252.164062 101.34375v-65.390625c0-4.199219-3.402343-7.601563-7.601562-7.601563-4.203125 0-7.605469 3.402344-7.605469 7.601563v65.390625c0 4.203125 3.402344 7.605469 7.605469 7.605469 4.199219 0 7.601562-3.402344 7.601562-7.605469zm0 0"/><path d="m284.316406 101.34375v-65.390625c0-4.199219-3.402344-7.601563-7.601562-7.601563-4.199219 0-7.605469 3.402344-7.605469 7.601563v65.390625c0 4.203125 3.40625 7.605469 7.605469 7.605469 4.199218 0 7.601562-3.402344 7.601562-7.605469zm0 0"/><path d="m316.46875 101.34375v-65.390625c0-4.199219-3.402344-7.601563-7.601562-7.601563-4.199219 0-7.605469 3.402344-7.605469 7.601563v65.390625c0 4.203125 3.40625 7.605469 7.605469 7.605469 4.199218 0 7.601562-3.402344 7.601562-7.605469zm0 0"/><path d="m243.660156 189.855469c-24.144531 0-43.785156 19.640625-43.785156 43.785156v17.335937l-69.242188 69.242188h-17.335937c-24.144531 0-43.785156 19.640625-43.785156 43.78125 0 21.375 15.6875 39.449219 36.15625 43.101562 3.652343 20.46875 21.726562 36.15625 43.101562 36.15625 24.140625 0 43.785157-19.640624 43.785157-43.785156v-17.335937l69.238281-69.238281h17.339843c24.140626 0 43.78125-19.644532 43.78125-43.789063 0-21.375-15.6875-39.449219-36.15625-43.097656-3.648437-20.46875-21.722656-36.15625-43.097656-36.15625zm64.046875 79.257812c0 15.757813-12.816406 28.574219-28.574219 28.578125h-20.488281c-2.015625 0-3.949219.800782-5.375 2.226563l-73.695312 73.695312c-1.425781 1.425781-2.230469 3.359375-2.230469 5.375v20.488281c0 7.632813-2.972656 14.808594-8.367188 20.207032-5.398437 5.398437-12.574218 8.367187-20.207031 8.367187-15.457031 0-28.269531-12.570312-28.5625-28.027343-.074219-4.089844-3.371093-7.382813-7.457031-7.460938-15.457031-.289062-28.03125-13.101562-28.03125-28.558594 0-15.757812 12.820312-28.578125 28.578125-28.578125h20.484375c2.019531 0 3.953125-.800781 5.378906-2.226562l73.695313-73.695313c1.425781-1.425781 2.226562-3.359375 2.226562-5.375v-20.488281c0-15.757813 12.820313-28.574219 28.578125-28.574219 15.457032 0 28.269532 12.570313 28.5625 28.027344.074219 4.089844 3.371094 7.382812 7.457032 7.460938 15.453124.285156 28.027343 13.097656 28.027343 28.558593zm0 0"/></svg>