<svg viewBox="0 0 512.00002 512.00002" xmlns="http://www.w3.org/2000/svg"><path d="m425.164062 101.632812c-12.574218-12.578124-33.035156-12.574218-45.613281 0l-7.640625 7.640626h-231.820312l-7.640625-7.640626c-12.578125-12.578124-33.039063-12.574218-45.613281 0-10.726563 10.730469-12.273438 27.449219-4.535157 39.894532-7.738281 12.441406-6.191406 29.164062 4.535157 39.894531 12.574218 12.574219 33.035156 12.574219 45.609374 0l7.644532-7.640625h231.820312l7.640625 7.640625c6.289063 6.289063 14.546875 9.429687 22.808594 9.429687 8.257813 0 16.515625-3.144531 22.804687-9.429687 10.726563-10.730469 12.273438-27.453125 4.53125-39.894531 7.742188-12.445313 6.199219-29.167969-4.53125-39.894532zm-10.527343 45.167969c6.394531 6.640625 6.292969 17.347657-.226563 23.867188-6.644531 6.644531-17.460937 6.644531-24.105468 0l-9.867188-9.871094c-1.425781-1.425781-3.359375-2.226563-5.375-2.226563h-238.125c-2.015625 0-3.949219.800782-5.375 2.226563l-9.871094 9.871094c-6.640625 6.644531-17.457031 6.644531-24.101562 0-6.519532-6.519531-6.621094-17.226563-.226563-23.867188 2.835938-2.945312 2.835938-7.605469 0-10.550781-6.394531-6.636719-6.292969-17.34375.226563-23.863281 3.21875-3.21875 7.496094-4.992188 12.050781-4.992188s8.835937 1.773438 12.054687 4.992188l9.867188 9.867187c1.425781 1.425782 3.359375 2.226563 5.378906 2.226563h238.121094c2.015625 0 3.949219-.800781 5.375-2.226563l9.867188-9.867187c6.648437-6.648438 17.460937-6.644531 24.105468 0 6.519532 6.519531 6.621094 17.222656.226563 23.863281-2.835938 2.945312-2.835938 7.605469 0 10.550781zm0 0"/><path d="m504.394531 0h-75.019531c-4.199219 0-7.605469 3.40625-7.605469 7.605469s3.40625 7.601562 7.605469 7.601562h67.417969v49.640625h-481.585938v-49.640625h388.820313c4.199218 0 7.601562-3.402343 7.601562-7.601562s-3.402344-7.605469-7.601562-7.605469h-396.421875c-4.203125 0-7.605469 3.40625-7.605469 7.605469v64.847656c0 4.199219 3.402344 7.601563 7.605469 7.601563h27.386719v337.421874c0 4.199219 3.402343 7.601563 7.601562 7.601563s7.605469-3.402344 7.605469-7.601563v-337.421874h411.601562v416.738281h-20.710937v-287.476563c0-4.199218-3.40625-7.605468-7.605469-7.605468h-123.574219c-4.203125 0-7.605468 3.40625-7.605468 7.605468v287.476563h-252.105469v-53.96875c0-4.199219-3.40625-7.605469-7.605469-7.605469s-7.601562 3.40625-7.601562 7.605469v61.570312c0 4.199219 3.402343 7.605469 7.601562 7.605469h426.8125c4.199219 0 7.605469-3.40625 7.605469-7.605469v-424.339843h27.382812c4.203125 0 7.605469-3.402344 7.605469-7.601563v-64.847656c0-4.199219-3.402344-7.605469-7.605469-7.605469zm-78.515625 216.921875v153.265625h-108.367187v-153.265625zm-108.367187 279.871094v-111.398438h108.367187v111.398438zm0 0"/><path d="m68.511719 209.316406v252.4375c0 4.199219 3.402343 7.605469 7.605469 7.605469h196.171874c4.199219 0 7.605469-3.40625 7.605469-7.605469v-252.4375c0-4.199218-3.40625-7.605468-7.605469-7.605468h-196.171874c-4.199219 0-7.605469 3.40625-7.605469 7.605468zm15.207031 7.605469h180.964844v237.230469h-180.964844zm0 0"/><path d="m358.96875 400.601562h-24.332031c-4.199219 0-7.601563 3.40625-7.601563 7.605469s3.402344 7.601563 7.601563 7.601563h24.332031c4.203125 0 7.605469-3.402344 7.605469-7.601563s-3.40625-7.605469-7.605469-7.605469zm0 0"/><path d="m224.546875 270.484375c-2.84375-1.175781-6.109375-.527344-8.289063 1.648437l-26.136718 26.140626c-5.042969-1.523438-10.382813-2.355469-15.917969-2.355469-5.53125 0-10.875.832031-15.917969 2.355469l-26.136718-26.140626c-2.175782-2.175781-5.449219-2.824218-8.289063-1.648437-2.84375 1.179687-4.695313 3.949219-4.695313 7.027344v73.445312c0 30.347657 24.691407 55.039063 55.039063 55.039063s55.039063-24.691406 55.039063-55.039063v-73.445312c-.003907-3.078125-1.855469-5.847657-4.695313-7.027344zm-90.175781 25.382813 9.3125 9.3125c-3.386719 2.269531-6.507813 4.910156-9.3125 7.851562zm39.832031 94.917968c-21.964844 0-39.832031-17.867187-39.832031-39.828125 0-21.964843 17.867187-39.832031 39.832031-39.832031 21.960937 0 39.828125 17.867188 39.828125 39.832031 0 21.960938-17.867188 39.828125-39.828125 39.828125zm30.515625-85.605468 9.316406-9.3125v17.164062c-2.804687-2.941406-5.925781-5.582031-9.316406-7.851562zm0 0"/><path d="m181.851562 340.265625h-15.300781c-4.199219 0-7.605469 3.40625-7.605469 7.605469 0 4.199218 3.40625 7.605468 7.605469 7.605468h.046875v2.21875c0 4.199219 3.402344 7.605469 7.605469 7.605469 4.199219 0 7.601563-3.40625 7.601563-7.605469v-2.21875h.046874c4.203126 0 7.605469-3.40625 7.605469-7.605468 0-4.199219-3.402343-7.605469-7.605469-7.605469zm0 0"/></svg>