<svg viewBox="-70 0 512 512.00002" xmlns="http://www.w3.org/2000/svg"><path d="m363.449219 0h-355.84375c-4.199219 0-7.605469 3.40625-7.605469 7.605469v496.789062c0 4.199219 3.40625 7.605469 7.605469 7.605469h242.53125c4.203125 0 7.605469-3.40625 7.605469-7.605469s-3.402344-7.601562-7.605469-7.601562h-234.929688v-481.585938h340.640625v481.585938h-80.359375c-4.203125 0-7.605469 3.402343-7.605469 7.601562s3.402344 7.605469 7.605469 7.605469h87.964844c4.199219 0 7.601563-3.40625 7.601563-7.605469v-496.789062c0-4.199219-3.402344-7.605469-7.605469-7.605469zm0 0"/><path d="m38.019531 96.589844c-4.199219 0-7.605469 3.402344-7.605469 7.605468v228.839844c0 4.199219 3.40625 7.605469 7.605469 7.605469h295.015625c4.203125 0 7.605469-3.40625 7.605469-7.605469v-295.015625c0-4.199219-3.402344-7.605469-7.605469-7.605469h-295.015625c-4.199219 0-7.605469 3.40625-7.605469 7.605469v40.828125c0 4.199219 3.40625 7.601563 7.605469 7.601563s7.605469-3.402344 7.605469-7.601563v-33.222656h279.808594v279.808594h-279.808594v-221.238282c0-4.203124-3.40625-7.605468-7.605469-7.605468zm0 0"/><path d="m162.246094 84.351562c-2.1875-1.394531-4.929688-1.582031-7.285156-.5l-4.625 2.136719c-21.3125 9.835938-37.882813 28.21875-45.464844 50.429688-.570313 1.667969-2.308594 6.746093-35.554688 171.835937-.832031 4.117188 1.835938 8.125 5.953125 8.953125.503907.101563 1.011719.152344 1.507813.152344 3.546875 0 6.71875-2.496094 7.445312-6.105469 28.46875-141.34375 34.183594-167.164062 35.042969-169.921875 5.492187-16.09375 16.710937-29.746093 31.28125-38.3125v61.234375c0 4.203125 3.402344 7.605469 7.601563 7.605469 4.199218 0 7.605468-3.402344 7.605468-7.605469 0-13.585937 3.871094-26.816406 11.191406-38.261718 6.066407-9.480469 14.246094-17.324219 23.890626-22.976563v61.238281c0 4.203125 3.402343 7.605469 7.605468 7.605469h37.710938c2.621094 15.28125 12.996094 28.398437 27.207031 34.464844-16.59375 38.175781-54.464844 63.386719-96.578125 63.484375-4.191406.007812-7.585938 3.410156-7.585938 7.601562v32.339844c0 4.203125 3.40625 7.605469 7.605469 7.605469s7.601563-3.402344 7.601563-7.605469v-24.988281c48.0625-3.132813 90.140625-34.792969 106.171875-80.699219 4.453125-12.769531 6.710937-26.164062 6.710937-39.808594 0-4.199218-3.402344-7.601562-7.605468-7.601562h-73.636719v-65.894532c0-2.59375-1.320313-5.007812-3.503907-6.40625-2.183593-1.394531-4.929687-1.585937-7.285156-.496093l-4.628906 2.132812c-14.089844 6.507813-26.09375 16.628907-34.871094 29.371094v-24.601563c-.003906-2.59375-1.324218-5.007812-3.507812-6.40625zm116.164062 107.585938c-8.25-3.84375-14.421875-11.285156-16.722656-20.074219h20.117188c-.480469 6.808594-1.621094 13.519531-3.394532 20.074219zm0 0"/><path d="m215.339844 205.480469v-10.65625c0-4.199219-3.402344-7.605469-7.605469-7.605469-4.199219 0-7.601563 3.40625-7.601563 7.605469v10.65625c0 4.199219 3.402344 7.605469 7.601563 7.605469 4.203125 0 7.605469-3.40625 7.605469-7.605469zm0 0"/><path d="m189.597656 205.480469v-10.65625c0-4.199219-3.402344-7.605469-7.601562-7.605469-4.203125 0-7.605469 3.40625-7.605469 7.605469v10.65625c0 4.199219 3.402344 7.605469 7.605469 7.605469 4.199218 0 7.601562-3.40625 7.601562-7.605469zm0 0"/><path d="m308.203125 368.304688h-41.839844c-4.199219 0-7.605469 3.402343-7.605469 7.605468 0 4.199219 3.40625 7.601563 7.605469 7.601563h41.839844c4.203125 0 7.605469-3.402344 7.605469-7.601563 0-4.203125-3.402344-7.605468-7.605469-7.605468zm0 0"/><path d="m62.851562 383.511719h178.164063c4.199219 0 7.601563-3.402344 7.601563-7.601563 0-4.203125-3.402344-7.605468-7.601563-7.605468h-178.164063c-4.199218 0-7.605468 3.402343-7.605468 7.605468 0 4.199219 3.40625 7.601563 7.605468 7.601563zm0 0"/><path d="m62.851562 416.589844h245.351563c4.203125 0 7.605469-3.40625 7.605469-7.605469s-3.402344-7.601563-7.605469-7.601563h-245.351563c-4.199218 0-7.605468 3.402344-7.605468 7.601563s3.40625 7.605469 7.605468 7.605469zm0 0"/><path d="m62.851562 449.664062h245.351563c4.203125 0 7.605469-3.402343 7.605469-7.601562s-3.402344-7.605469-7.605469-7.605469h-245.351563c-4.199218 0-7.605468 3.40625-7.605468 7.605469s3.40625 7.601562 7.605468 7.601562zm0 0"/></svg>