<svg viewBox="-118 0 512 512.00002" xmlns="http://www.w3.org/2000/svg"><path d="m162.945312 269.761719c-15.292968 8.40625-35.585937 8.105469-50.496093-.757813-3.613281-2.144531-8.277344-.957031-10.421875 2.65625-2.148438 3.609375-.957032 8.273438 2.652344 10.421875 10.144531 6.027344 21.902343 9.054688 33.671874 9.054688 11.066407 0 22.152344-2.679688 31.921876-8.046875 18.839843-10.359375 29.585937-28.695313 30.257812-51.632813.035156-1.214843.054688-2.4375.054688-3.660156 0-42.808594-21.765626-81.84375-58.222657-104.421875-2.457031-1.519531-5.554687-1.519531-8.007812 0-36.460938 22.578125-58.226563 61.613281-58.226563 104.421875 0 1.226563.019532 2.445313.054688 3.660156.277344 9.417969 2.265625 18.121094 5.914062 25.875 1.785156 3.800781 6.3125 5.429688 10.117188 3.644531 3.800781-1.789062 5.429687-6.316406 3.644531-10.117187-2.753906-5.855469-4.261719-12.53125-4.476563-19.847656-.03125-1.066407-.046874-2.140625-.046874-3.214844 0-35.910156 17.488281-68.792969 47.023437-88.890625 29.53125 20.097656 47.019531 52.980469 47.019531 88.890625 0 1.074219-.019531 2.148437-.046875 3.214844-.511719 17.332031-8.457031 31.09375-22.386719 38.75zm0 0"/><path d="m269.113281 108.390625c4.199219 0 7.601563-3.40625 7.601563-7.605469v-47.339844c0-29.46875-23.980469-53.445312-53.457032-53.445312h-169.8125c-29.46875 0-53.445312 23.976562-53.445312 53.445312v264.601563c0 27.746094 21.25 50.613281 48.332031 53.195313v26.902343c0 16.609375 13.507813 30.121094 30.109375 30.121094h27.40625v51.21875c0 17.929687 14.585938 32.515625 32.515625 32.515625 4.75 0 9.335938-1.007812 13.613281-2.988281 11.476563-5.289063 18.890626-16.878907 18.890626-29.527344v-51.21875h27.402343c16.609375 0 30.121094-13.511719 30.121094-30.121094v-26.90625c27.078125-2.589843 48.328125-25.453125 48.328125-53.191406v-191.914063c0-4.199218-3.40625-7.601562-7.605469-7.601562s-7.605469 3.402344-7.605469 7.601562v191.914063c0 21.085937-17.15625 38.238281-38.246093 38.238281h-169.816407c-21.085937 0-38.238281-17.152344-38.238281-38.238281v-264.601563c0-21.085937 17.152344-38.238281 38.238281-38.238281h169.816407c21.089843 0 38.246093 17.152344 38.246093 38.238281v47.339844c0 4.199219 3.402344 7.605469 7.605469 7.605469zm-113.457031 371.09375c0 6.734375-3.941406 12.902344-10.058594 15.71875-2.273437 1.054687-4.707031 1.589844-7.238281 1.589844-9.542969 0-17.304687-7.765625-17.304687-17.308594v-51.21875h34.601562zm42.613281-66.425781h-119.828125c-8.21875 0-14.902344-6.691406-14.902344-14.914063v-26.652343h149.644532v26.652343c0 8.222657-6.691406 14.914063-14.914063 14.914063zm0 0"/></svg>