<svg viewBox="0 -14 512.00002 512" xmlns="http://www.w3.org/2000/svg"><path d="m481.585938 445.351562v-307.183593c0-4.199219-3.40625-7.601563-7.605469-7.601563h-435.960938c-4.199219 0-7.605469 3.402344-7.605469 7.601563v307.183593c0 4.199219 3.40625 7.601563 7.605469 7.601563h435.960938c4.199219.003906 7.605469-3.402344 7.605469-7.601563zm-15.210938-7.605468h-420.75v-291.972656h420.75zm0 0"/><path d="m504.394531 100.148438h-145.089843l-97.925782-97.921876c-2.96875-2.96875-7.78125-2.96875-10.753906 0l-97.929688 97.921876h-145.089843c-4.199219 0-7.605469 3.40625-7.605469 7.605468v368.011719c0 4.203125 3.40625 7.605469 7.605469 7.605469h61.839843c4.199219 0 7.605469-3.402344 7.605469-7.605469 0-4.199219-3.40625-7.601563-7.605469-7.601563h-54.238281v-352.804687h481.585938v33.445313c0 4.199218 3.402343 7.601562 7.601562 7.601562 4.203125 0 7.605469-3.402344 7.605469-7.601562v-41.050782c0-4.199218-3.402344-7.605468-7.605469-7.605468zm-248.390625-81.789063 81.792969 81.789063h-163.59375zm0 0"/><path d="m504.394531 166.546875c-4.199219 0-7.601562 3.40625-7.601562 7.605469v294.011718h-402c-4.199219 0-7.601563 3.402344-7.601563 7.601563 0 4.203125 3.402344 7.605469 7.601563 7.605469h409.601562c4.203125 0 7.605469-3.402344 7.605469-7.605469v-301.613281c0-4.199219-3.402344-7.605469-7.605469-7.605469zm0 0"/><path d="m327.988281 210.144531h31.425781c4.199219 0 7.605469-3.402343 7.605469-7.605469 0-4.199218-3.40625-7.601562-7.605469-7.601562h-31.425781c-4.199219 0-7.601562 3.402344-7.601562 7.601562 0 4.203126 3.402343 7.605469 7.601562 7.605469zm0 0"/><path d="m152.585938 210.144531h150.054687c4.199219 0 7.605469-3.402343 7.605469-7.605469 0-4.199218-3.40625-7.601562-7.605469-7.601562h-150.054687c-4.199219 0-7.605469 3.402344-7.605469 7.601562 0 4.203126 3.40625 7.605469 7.605469 7.605469zm0 0"/><path d="m114.054688 254.753906h283.890624c4.199219 0 7.601563-3.402344 7.601563-7.601562 0-4.199219-3.402344-7.605469-7.601563-7.605469h-283.890624c-4.199219 0-7.601563 3.40625-7.601563 7.605469 0 4.199218 3.402344 7.601562 7.601563 7.601562zm0 0"/><path d="m308.722656 284.15625h-105.445312c-4.199219 0-7.605469 3.40625-7.605469 7.605469s3.40625 7.601562 7.605469 7.601562h105.445312c4.203125 0 7.605469-3.402343 7.605469-7.601562s-3.402344-7.605469-7.605469-7.605469zm0 0"/><path d="m395.890625 310.921875c-5.011719-5.148437-11.246094-11.558594-20.25-11.558594-9.007813 0-15.242187 6.410157-20.253906 11.558594-2.210938 2.273437-4.5 4.625-6.367188 5.707031-2.027343 1.171875-5.328125 2.035156-8.515625 2.867188-6.859375 1.789062-15.390625 4.019531-19.742187 11.539062-4.234375 7.316406-2.070313 15.355469-.15625 22.449219.886719 3.289063 1.804687 6.695313 1.804687 9.246094 0 2.554687-.917968 5.957031-1.804687 9.25-1.914063 7.09375-4.078125 15.128906.15625 22.449219 4.351562 7.519531 12.882812 9.746093 19.742187 11.539062 3.1875.832031 6.488282 1.691406 8.515625 2.867188 1.871094 1.082031 4.15625 3.429687 6.367188 5.703124 5.011719 5.152344 11.246093 11.558594 20.253906 11.558594 9.003906 0 15.238281-6.40625 20.25-11.558594 2.210937-2.273437 4.5-4.621093 6.367187-5.703124 2.027344-1.171876 5.328126-2.035157 8.515626-2.867188 6.859374-1.789062 15.390624-4.015625 19.742187-11.539062 4.234375-7.316407 2.070313-15.355469.15625-22.445313-.886719-3.292969-1.804687-6.699219-1.804687-9.25 0-2.554687.917968-5.957031 1.804687-9.25 1.914063-7.09375 4.078125-15.128906-.15625-22.449219-4.351563-7.519531-12.882813-9.746094-19.742187-11.539062-3.1875-.832032-6.488282-1.695313-8.515626-2.867188-1.871093-1.082031-4.15625-3.433594-6.367187-5.707031zm21.464844 27.730469c1.066406 1.84375-.28125 6.847656-1.367188 10.871094-1.148437 4.246093-2.332031 8.640624-2.332031 13.207031 0 4.566406 1.183594 8.960937 2.332031 13.210937 1.082031 4.019532 2.433594 9.023438 1.367188 10.871094-1.175781 2.027344-6.085938 3.308594-10.421875 4.4375-4.167969 1.089844-8.480469 2.214844-12.292969 4.421875-3.6875 2.132813-6.71875 5.246094-9.652344 8.261719-3.171875 3.257812-6.765625 6.953125-9.351562 6.953125-2.582031 0-6.179688-3.695313-9.351563-6.957031-2.929687-3.011719-5.960937-6.125-9.652344-8.261719-3.808593-2.203125-8.121093-3.328125-12.289062-4.417969-4.335938-1.128906-9.25-2.410156-10.421875-4.4375-1.066406-1.847656.28125-6.851562 1.367187-10.871094 1.144532-4.25 2.328126-8.644531 2.328126-13.210937 0-4.566407-1.183594-8.960938-2.328126-13.207031-1.085937-4.023438-2.433593-9.027344-1.367187-10.871094 1.171875-2.027344 6.085937-3.3125 10.421875-4.441406 4.167969-1.089844 8.480469-2.214844 12.289062-4.417969 3.691407-2.132813 6.722657-5.25 9.652344-8.261719 3.171875-3.261719 6.769532-6.957031 9.351563-6.957031 2.585937 0 6.179687 3.695312 9.351562 6.957031 2.933594 3.011719 5.964844 6.128906 9.652344 8.261719 3.8125 2.203125 8.121094 3.328125 12.292969 4.417969 4.335937 1.128906 9.246094 2.414062 10.421875 4.441406zm0 0"/></svg>