<svg viewBox="-82 0 512 512.00002" xmlns="http://www.w3.org/2000/svg"><path d="m340.640625 127.117188c4.199219 0 7.605469-3.402344 7.605469-7.601563v-70.320313c0-27.125-22.070313-49.195312-49.195313-49.195312h-249.855469c-27.125 0-49.195312 22.070312-49.195312 49.195312v413.609376c0 27.128906 22.070312 49.195312 49.195312 49.195312h249.855469c27.125 0 49.195313-22.070312 49.195313-49.195312v-317.941407c0-4.199219-3.40625-7.605469-7.605469-7.605469s-7.605469 3.40625-7.605469 7.605469v317.941407c0 18.742187-15.246094 33.988281-33.984375 33.988281h-249.855469c-18.742187 0-33.988281-15.25-33.988281-33.988281v-413.609376c0-18.742187 15.246094-33.988281 33.988281-33.988281h249.855469c18.738281 0 33.984375 15.246094 33.984375 33.988281v70.320313c.003906 4.199219 3.40625 7.601563 7.605469 7.601563zm0 0"/><path d="m317.832031 440.007812v-368.015624c0-4.199219-3.402343-7.601563-7.605469-7.601563h-272.207031c-4.199219 0-7.605469 3.402344-7.605469 7.601563v368.015624c0 4.199219 3.40625 7.601563 7.605469 7.601563h45.621094c4.199219 0 7.605469-3.402344 7.605469-7.601563 0-4.199218-3.40625-7.605468-7.605469-7.605468h-38.019531v-352.804688h257.003906v352.804688h-193.636719c-4.199219 0-7.605469 3.40625-7.605469 7.605468 0 4.199219 3.40625 7.601563 7.605469 7.601563h201.238281c4.199219 0 7.605469-3.402344 7.605469-7.601563zm0 0"/><path d="m143.707031 463.195312c-4.199219 0-7.601562 3.402344-7.601562 7.601563 0 4.203125 3.402343 7.605469 7.601562 7.605469h60.832031c4.199219 0 7.601563-3.402344 7.601563-7.605469 0-4.199219-3.402344-7.601563-7.601563-7.601563zm0 0"/><path d="m204.539062 48.804688c4.199219 0 7.601563-3.402344 7.601563-7.601563 0-4.203125-3.402344-7.605469-7.601563-7.605469h-60.832031c-4.199219 0-7.601562 3.402344-7.601562 7.605469 0 4.199219 3.402343 7.601563 7.601562 7.601563zm0 0"/><path d="m117.21875 290.875c0 31.375 25.527344 56.902344 56.902344 56.902344 31.378906 0 56.90625-25.527344 56.90625-56.902344 0-31.378906-25.527344-56.902344-56.90625-56.902344-31.375 0-56.902344 25.523438-56.902344 56.902344zm98.597656 0c0 22.988281-18.703125 41.695312-41.695312 41.695312-22.988282 0-41.695313-18.707031-41.695313-41.695312 0-22.992188 18.707031-41.695312 41.695313-41.695312 22.992187 0 41.695312 18.703124 41.695312 41.695312zm0 0"/><path d="m131.140625 165.734375c-7.105469 2.421875-12.839844 7.46875-16.148437 14.207031-3.3125 6.738282-3.800782 14.363282-1.375 21.464844 3.984374 11.671875 14.925781 19.03125 26.625 19.03125 3 0 6.054687-.484375 9.050781-1.507812 14.664062-5.003907 22.527343-21.003907 17.523437-35.671876-5.007812-14.667968-21.007812-22.527343-35.675781-17.523437zm20.652344 32.285156c-1.519531 3.089844-4.152344 5.40625-7.414063 6.519531-3.257812 1.109376-6.757812.886719-9.847656-.632812-3.09375-1.515625-5.40625-4.148438-6.519531-7.410156-1.113281-3.261719-.890625-6.757813.628906-9.851563 1.519531-3.089843 4.152344-5.40625 7.410156-6.519531 1.375-.46875 2.777344-.691406 4.15625-.691406 5.363281 0 10.386719 3.378906 12.214844 8.734375 1.113281 3.261719.886719 6.757812-.628906 9.851562zm0 0"/><path d="m102.410156 211.671875c-13-8.433594-30.4375-4.71875-38.871094 8.28125-8.433593 13-4.71875 30.441406 8.28125 38.875 4.609376 2.988281 9.871094 4.535156 15.238282 4.535156 1.964844 0 3.945312-.207031 5.914062-.628906 7.34375-1.5625 13.636719-5.894531 17.722656-12.191406 4.085938-6.296875 5.472657-13.808594 3.910157-21.152344-1.566407-7.339844-5.898438-13.632813-12.195313-17.71875zm-4.476562 30.597656c-1.875 2.886719-4.761719 4.875-8.128906 5.59375-3.371094.714844-6.816407.082031-9.707032-1.796875-2.890625-1.875-4.878906-4.761718-5.59375-8.128906-.71875-3.371094-.082031-6.816406 1.792969-9.707031s4.761719-4.875 8.132813-5.59375c.902343-.195313 1.8125-.289063 2.710937-.289063 2.464844 0 4.878906.710938 6.992187 2.082032 2.890626 1.875 4.878907 4.761718 5.59375 8.132812.71875 3.367188.082032 6.816406-1.792968 9.707031zm0 0"/><path d="m237.234375 251.644531c5.308594 8.582031 14.523437 13.308594 23.941406 13.308594 5.046875 0 10.148438-1.355469 14.746094-4.199219 13.175781-8.15625 17.261719-25.511718 9.105469-38.6875-8.15625-13.175781-25.507813-17.261718-38.6875-9.105468-13.175782 8.152343-17.261719 25.507812-9.105469 38.683593zm17.109375-25.753906c2.109375-1.304687 4.449219-1.925781 6.765625-1.925781 4.324219 0 8.550781 2.167968 10.988281 6.105468 1.8125 2.929688 2.375 6.386719 1.585938 9.742188-.789063 3.351562-2.835938 6.195312-5.765625 8.007812-6.046875 3.742188-14.011719 1.867188-17.753907-4.179687-3.742187-6.042969-1.867187-14.007813 4.179688-17.75zm0 0"/><path d="m218.441406 166.566406c-7.050781-2.574218-14.679687-2.25-21.488281.917969-6.808594 3.164063-11.972656 8.789063-14.546875 15.84375-5.316406 14.554687 2.203125 30.722656 16.757812 36.035156 3.171876 1.160157 6.417969 1.707031 9.609376 1.707031 11.476562 0 22.273437-7.082031 26.429687-18.464843 5.316406-14.558594-2.203125-30.726563-16.761719-36.039063zm2.476563 30.820313c-2.4375 6.679687-9.855469 10.128906-16.535157 7.691406-6.679687-2.4375-10.132812-9.855469-7.691406-16.535156 1.179688-3.238281 3.550782-5.820313 6.675782-7.273438 1.730468-.804687 3.574218-1.207031 5.429687-1.207031 1.492187 0 2.988281.261719 4.429687.789062 6.679688 2.4375 10.128907 9.855469 7.691407 16.535157zm0 0"/></svg>