<svg viewBox="-7 0 512 512.00143" xmlns="http://www.w3.org/2000/svg"><path d="m419.96875 164.960938v-23.472657c0-4.199219-3.40625-7.605469-7.605469-7.605469s-7.605469 3.40625-7.605469 7.605469v23.472657c0 4.199218 3.40625 7.601562 7.605469 7.601562s7.605469-3.402344 7.605469-7.601562zm0 0"/><path d="m384.128906 164.960938v-23.472657c0-4.199219-3.40625-7.605469-7.605468-7.605469-4.199219 0-7.605469 3.40625-7.605469 7.605469v23.472657c0 4.199218 3.40625 7.601562 7.605469 7.601562 4.199218 0 7.605468-3.402344 7.605468-7.601562zm0 0"/><path d="m493.144531 151.910156c-3.957031-1.398437-8.300781.679688-9.699219 4.636719-2.941406 8.335937-6.84375 14.777344-11.234374 19.753906-3.566407-60.417969-51.898438-108.988281-112.214844-112.929687.421875-3.539063 1.3125-8.101563 3.199218-12.863282 5.378907-13.582031 16.089844-22.230468 31.832032-25.707031 4.101562-.902343 6.691406-4.960937 5.785156-9.0625-.90625-4.101562-4.964844-6.691406-9.0625-5.785156-21.890625 4.832031-33.519531 17.144531-39.6875 28.515625-5.78125-14.257812-15.890625-29.660156-33.5-37.769531-3.820312-1.757813-8.332031-.085938-10.085938 3.726562-1.757812 3.816407-.089843 8.332031 3.726563 10.089844 21.5 9.894531 28.828125 35.828125 31.207031 48.898437-59.835937 4.273438-107.714844 52.472657-111.46875 112.449219h-210.152344c1.476563-16.523437 8.4375-55.929687 41.230469-73.039062 3.722657-1.941407 5.164063-6.535157 3.222657-10.257813-1.941407-3.722656-6.535157-5.167968-10.261719-3.222656-18.246094 9.519531-32.179688 25.820312-40.703125 47.480469-.292969-28.308594 5.910156-64.671875 33.378906-92.140625 2.96875-2.96875 2.96875-7.78125 0-10.75-2.96875-2.972656-7.785156-2.972656-10.753906 0-24.230469 24.226562-37.328125 58.207031-37.8828128 98.261718-.3710932 26.617188 4.8320308 47.449219 6.1757808 52.355469.207032 45.421875 13.464844 89.359375 38.382813 127.136719 1.460937 2.214844 3.882813 3.417969 6.355469 3.417969 1.4375 0 2.890625-.40625 4.179687-1.257813 3.507813-2.3125 4.472657-7.03125 2.160157-10.535156-22.082032-33.472656-34.371094-72.128906-35.75-112.242188h217.785156c4.199218 0 7.601562-3.402343 7.601562-7.601562 0-57.980469 47.167969-105.152344 105.148438-105.15625h.007812c57.640625 0 104.589844 46.617188 105.140625 104.128906.007813 1.738282 0 3.476563-.035156 5.210938-15.316406 7.265625-30.613281 4.484375-31.714844 4.269531-4.105469-.828125-8.109375 1.824219-8.945312 5.933594-.839844 4.117187 1.816406 8.132812 5.929687 8.96875.324219.066406 4.800782.953125 11.523438.953125 5.167968 0 11.65625-.523438 18.601562-2.347656 1.1875-.308594 2.40625-.671876 3.652344-1.074219-4.738281 49.699219-26.339844 95.96875-62.128906 132.167969-41.226563 41.699218-96.027344 64.734374-154.300782 64.859374-.160156 0-.320312 0-.480468 0-65.496094 0-126.894532-29.042968-168.507813-79.722656-2.667969-3.25-7.457031-3.71875-10.703125-1.054687-3.246094 2.667969-3.714844 7.457031-1.050781 10.703125 42.902344 52.253906 105.453125 82.984375 172.65625 85.148437v87.941407c0 4.199218 3.40625 7.601562 7.605469 7.601562 4.199218 0 7.605468-3.402344 7.605468-7.601562v-87.941407c10.585938-.339843 21.054688-1.390625 31.347657-3.125v91.066407c0 4.199218 3.402343 7.601562 7.601562 7.601562 4.203125 0 7.605469-3.402344 7.605469-7.601562v-94.15625c41.855469-9.980469 80.277344-31.511719 111.433594-63.027344 40.472656-40.9375 63.980468-93.921875 67.144531-150.566406 9.953125-6.753907 19.585937-17.609376 25.738281-35.035157 1.398438-3.964843-.679687-8.308593-4.640625-9.703125zm0 0"/><path d="m136.722656 209.824219c0-4.199219-3.402344-7.605469-7.605468-7.605469h-47.757813c-4.199219 0-7.605469 3.40625-7.605469 7.605469 0 13.933593 1.828125 27.449219 5.234375 40.328125.050781.265625.109375.53125.191407.796875.054687.1875.121093.375.179687.5625 18.328125 66.824219 79.59375 116.070312 152.15625 116.070312 45.589844 0 82.683594-37.089843 82.683594-82.679687 0-45.59375-37.09375-82.683594-82.683594-82.683594h-77.050781c-4.199219 0-7.601563 3.40625-7.601563 7.605469s3.402344 7.601562 7.601563 7.601562h77.050781c37.203125 0 67.472656 30.269531 67.472656 67.476563 0 37.203125-30.269531 67.472656-67.472656 67.472656-44.078125 0-83.546875-20.113281-109.714844-51.640625 4.957031 2.550781 10.320313 4.847656 16.09375 6.886719 25.164063 8.894531 58.242188 13.035156 104.101563 13.035156 4.199218 0 7.601562-3.40625 7.601562-7.605469s-3.402344-7.605469-7.601562-7.605469c-91.0625 0-135.40625-17.421874-148.042969-58.210937-1.234375-4.527344-2.246094-9.144531-3.03125-13.835937 19.972656 17.152343 62.285156 38.589843 149.042969 38.589843 4.203125 0 7.605468-3.402343 7.605468-7.601562s-3.402343-7.605469-7.605468-7.605469c-68.085938 0-105.800782-13.710938-125.453125-25.214844-8.507813-4.980468-14.40625-9.972656-18.417969-14.140625h33.027344c4.199218 0 7.601562-3.402343 7.601562-7.601562zm0 0"/></svg>