<svg viewBox="0 0 512.00002 512.00002" xmlns="http://www.w3.org/2000/svg"><path d="m490.953125 154.183594c-1.671875-3.851563-6.152344-5.621094-10.003906-3.949219-3.851563 1.671875-5.621094 6.152344-3.949219 10.003906 13.132812 30.265625 19.792969 62.484375 19.792969 95.761719 0 64.316406-25.046875 124.785156-70.527344 170.265625-15.109375 15.109375-31.882813 27.953125-49.894531 38.382813-36.820313-19.648438-78.339844-30.015626-120.367188-30.015626-16.257812 0-32.53125 1.535157-48.359375 4.5625-4.125.785157-6.832031 4.769532-6.042969 8.894532.789063 4.125 4.769532 6.828125 8.898438 6.039062 14.890625-2.847656 30.199219-4.289062 45.503906-4.289062 36.027344 0 71.648438 8.097656 103.882813 23.515625-32.023438 15.335937-67.328125 23.4375-103.886719 23.4375-36.554688 0-71.859375-8.101563-103.882812-23.433594 11.671874-5.59375 23.789062-10.25 36.183593-13.875 4.03125-1.179687 6.34375-5.402344 5.167969-9.433594-1.179688-4.03125-5.402344-6.339843-9.433594-5.164062-16.730468 4.894531-32.976562 11.550781-48.378906 19.777343-18.019531-10.433593-34.804688-23.28125-49.921875-38.398437-45.480469-45.480469-70.527344-105.949219-70.527344-170.265625 0-58.195312 20.511719-113.238281 58.105469-156.882812 15.246094 7.015624 32.9375 8.65625 50.109375 10.230468 13.839844 1.269532 26.910156 2.46875 38.539063 6.246094 10.96875 3.558594 21.851562 10.105469 33.371093 17.035156 18.816407 11.316406 38.269531 23.015625 60.671875 23.015625 22.390625 0 41.839844-11.695312 60.648438-23.007812 11.527344-6.933594 22.414062-13.480469 33.390625-17.042969 11.632812-3.777344 24.699219-4.976562 38.535156-6.246094 17.160156-1.574218 34.832031-3.210937 50.066406-10.214844 8.808594 10.242188 16.785157 21.207032 23.78125 32.820313 2.167969 3.597656 6.839844 4.757813 10.4375 2.589844 3.597657-2.164063 4.757813-6.839844 2.589844-10.433594-22.371094-37.152344-54.042969-68.25-91.585937-89.9375-38.703126-22.355469-82.917969-34.171875-127.867188-34.171875-68.378906 0-132.667969 26.628906-181.019531 74.980469-48.351563 48.351562-74.980469 112.640625-74.980469 181.019531s26.628906 132.667969 74.980469 181.019531c48.351562 48.351563 112.640625 74.980469 181.019531 74.980469s132.667969-26.628906 181.019531-74.980469c48.351563-48.351562 74.980469-112.640625 74.980469-181.019531 0-35.371094-7.082031-69.628906-21.046875-101.816406zm-135.539063-117.546875c-31.042968 14.046875-65.105468 21.425781-99.410156 21.425781-34.335937 0-68.429687-7.390625-99.492187-21.464844 30.847656-14.003906 64.597656-21.390625 99.488281-21.390625 34.40625 0 68.351562 7.359375 99.414062 21.429688zm-216.03125 8.585937c35.855469 18.359375 76.085938 28.046875 116.621094 28.046875 40.515625 0 80.722656-9.675781 116.5625-28.015625 1.234375.683594 2.46875 1.378906 3.695313 2.085938 18.890625 10.914062 36.179687 24.378906 51.417969 39.875-11.890626 4.347656-25.867188 5.644531-40.492188 6.988281-14.058594 1.289063-28.59375 2.625-41.835938 6.925781-12.628906 4.097656-24.78125 11.40625-36.535156 18.472656-17.8125 10.714844-34.640625 20.835938-52.8125 20.835938-18.179687 0-35.011718-10.121094-52.832031-20.839844-11.746094-7.066406-23.890625-14.371094-36.511719-18.46875-13.246094-4.300781-27.785156-5.636718-41.847656-6.925781-14.632812-1.34375-28.617188-2.640625-40.519531-6.992187.484375-.492188.953125-.988282 1.441406-1.476563 16.15625-16.15625 34.210937-29.71875 53.648437-40.511719zm0 0"/><path d="m50.921875 261.328125c-3.082031 1.050781-5.152344 3.941406-5.152344 7.195313 0 3.253906 2.066407 6.148437 5.148438 7.199218 8.121093 2.773438 16.628906 4.179688 25.285156 4.179688 23.914063 0 46.449219-11.074219 61.1875-29.492188 14.742187 18.421875 37.28125 29.496094 61.195313 29.496094 27.820312 0 53.785156-14.976562 67.773437-39.082031 1.367187-2.359375 1.367187-5.273438 0-7.632813-13.984375-24.105468-39.953125-39.082031-67.773437-39.082031-23.914063 0-46.449219 11.074219-61.195313 29.496094-14.742187-18.421875-37.277344-29.496094-61.1875-29.496094-8.65625 0-17.164063 1.40625-25.289063 4.179687-3.078124 1.050782-5.144531 3.941407-5.144531 7.195313s2.066407 6.144531 5.144531 7.195313c12.988282 4.433593 24.148438 12.992187 31.847657 24.328124-7.695313 11.339844-18.855469 19.894532-31.839844 24.320313zm147.667969-52.007813c20.90625 0 40.523437 10.503907 52.214844 27.6875-11.695313 17.183594-31.308594 27.6875-52.214844 27.6875-20.910156 0-40.527344-10.503906-52.214844-27.6875 11.6875-17.183593 31.304688-27.6875 52.214844-27.6875zm-100.273438 31.5c1.367188-2.359374 1.367188-5.273437-.003906-7.632812-5.46875-9.421875-12.773438-17.519531-21.390625-23.867188 20.632813.238282 39.933594 10.699219 51.492187 27.6875-11.554687 16.984376-30.847656 27.441407-51.480468 27.683594 8.613281-6.34375 15.914062-14.445312 21.382812-23.871094zm0 0"/><path d="m215.449219 244.273438c4.199219 0 7.601562-3.402344 7.601562-7.601563v-7.4375c0-4.199219-3.402343-7.601563-7.601562-7.601563s-7.605469 3.402344-7.605469 7.601563v7.4375c0 4.199219 3.40625 7.601563 7.605469 7.601563zm0 0"/><path d="m420.398438 355.972656c3.078124-1.050781 5.148437-3.945312 5.148437-7.195312 0-3.253906-2.070313-6.144532-5.148437-7.199219-8.121094-2.769531-16.632813-4.175781-25.289063-4.175781-23.90625 0-46.445313 11.074218-61.1875 29.496094-14.742187-18.421876-37.28125-29.496094-61.195313-29.496094-27.816406 0-53.785156 14.976562-67.769531 39.082031-1.367187 2.359375-1.367187 5.269531 0 7.632813 13.984375 24.105468 39.953125 39.078124 67.769531 39.078124 23.914063 0 46.457032-11.074218 61.195313-29.492187 14.742187 18.417969 37.277344 29.492187 61.1875 29.492187 8.660156 0 17.167969-1.40625 25.289063-4.179687 3.082031-1.050781 5.148437-3.945313 5.148437-7.199219s-2.070313-6.144531-5.152344-7.195312c-12.984375-4.425782-24.144531-12.980469-31.839843-24.324219 7.695312-11.332031 18.859374-19.890625 31.84375-24.324219zm-147.671876 52.015625c-20.90625 0-40.523437-10.503906-52.214843-27.6875 11.691406-17.183593 31.308593-27.6875 52.214843-27.6875 20.910157 0 40.523438 10.503907 52.214844 27.6875-11.691406 17.183594-31.304687 27.6875-52.214844 27.6875zm100.273438-31.507812c-1.367188 2.359375-1.367188 5.273437 0 7.632812 5.46875 9.425781 12.769531 17.527344 21.382812 23.867188-20.632812-.238281-39.925781-10.695313-51.480468-27.683594 11.558594-16.984375 30.859375-27.445313 51.492187-27.683594-8.617187 6.34375-15.925781 14.445313-21.394531 23.867188zm0 0"/><path d="m255.867188 364.925781c-4.199219 0-7.605469 3.402344-7.605469 7.601563v7.4375c0 4.199218 3.40625 7.601562 7.605469 7.601562 4.199218 0 7.605468-3.402344 7.605468-7.601562v-7.4375c0-4.199219-3.40625-7.601563-7.605468-7.601563zm0 0"/><path d="m400.816406 232.277344c0-19.660156-15.996094-35.652344-35.65625-35.652344s-35.652344 15.992188-35.652344 35.652344 15.992188 35.65625 35.652344 35.65625 35.65625-15.996094 35.65625-35.65625zm-56.101562 0c0-11.273438 9.171875-20.445313 20.449218-20.445313 11.273438 0 20.445313 9.171875 20.445313 20.445313 0 11.273437-9.171875 20.445312-20.445313 20.445312-11.277343 0-20.449218-9.171875-20.449218-20.445312zm0 0"/><path d="m297.742188 295.136719c0 13.695312 11.140624 24.839843 24.839843 24.839843 13.695313 0 24.835938-11.144531 24.835938-24.839843 0-13.695313-11.140625-24.839844-24.835938-24.839844-13.699219 0-24.839843 11.144531-24.839843 24.839844zm34.46875 0c0 5.3125-4.320313 9.632812-9.628907 9.632812-5.3125 0-9.632812-4.320312-9.632812-9.632812 0-5.308594 4.320312-9.632813 9.632812-9.632813 5.308594 0 9.628907 4.324219 9.628907 9.632813zm0 0"/><path d="m147.351562 157.589844c0-13.882813-11.296874-25.175782-25.179687-25.175782s-25.175781 11.292969-25.175781 25.175782c0 13.882812 11.292968 25.179687 25.175781 25.179687s25.179687-11.296875 25.179687-25.179687zm-35.148437 0c0-5.496094 4.472656-9.96875 9.96875-9.96875 5.5 0 9.972656 4.472656 9.972656 9.96875s-4.472656 9.96875-9.972656 9.96875c-5.496094 0-9.96875-4.472656-9.96875-9.96875zm0 0"/></svg>