<?xml version="1.0" encoding="utf-8"?>
<!-- Generator: Adobe Illustrator 22.0.0, SVG Export Plug-In . SVG Version: 6.00 Build 0)  -->
<svg version="1.1" id="Capa_1" xmlns="http://www.w3.org/2000/svg" xmlns:xlink="http://www.w3.org/1999/xlink" x="0px" y="0px"
	 viewBox="0 0 512 512" style="enable-background:new 0 0 512 512;" xml:space="preserve">
<style type="text/css">
	.st0{fill:#0099CC;}
	.st1{fill:#FFCC00;}
	.st2{fill:#FBB540;}
	.st3{fill:#FF3366;}
	.st4{fill:#D18D28;}
	.st5{fill:#FBFDFF;}
	.st6{fill:#CBCBCB;}
	.st7{fill:#003366;}
</style>
<g id="filled_outline">
	<path class="st0" d="M472,488l-432,0.9v-336L256,24l216,128V488z"/>
	<path class="st1" d="M400,489l5.8-20.2c12-40.1,15.7-82.2,10.8-123.8c-5.6-48-22.6-93.9-49.3-134.1c-15.4-23-34.8-43.1-57.3-59.2
		c-14.4-10.3-30.9-17.4-48.3-20.9c-8.9-1.8-18.1-1.2-26.8,1.7l-19,6.3c-10,3.3-18.1,10.9-22,20.8L184,184l-47.8,23.9
		c-7.9,4-11.1,13.6-7.2,21.5c0.3,0.6,0.6,1.2,1,1.7L152,264l47.2-4.3v229.2L400,489z"/>
	<path class="st2" d="M344,212.2c0,17.7-14.3,32-32,32s-32-14.3-32-32v-16.7c0-12.8-3.5-25.3-10-36.2l-8.1-13.6
		c-3.4-5.7-7.5-11.1-12.1-16c0.6,0,1.1,0,1.7,0c3.4,0,6.9,0.3,10.2,1c17.4,3.5,33.9,10.6,48.3,20.9c3.4,2.4,6.7,4.9,9.9,7.5
		C335.2,172.5,344,191.9,344,212.2z"/>
	<path class="st2" d="M143.7,234.9L136,240l-5.9-8.9c-4.9-7.4-2.9-17.3,4.5-22.2c0.5-0.4,1.1-0.7,1.7-1L152,200l0.1,0l1.8,5.4
		C157.5,216.4,153.3,228.4,143.7,234.9L143.7,234.9z"/>
	<path class="st3" d="M369,317.4l-49,49l-49-49c-4.5-4.5-7-10.5-7-16.8c0-13.1,10.6-23.8,23.8-23.8l0,0c6.3,0,12.3,2.5,16.8,7
		l15.4,15.4l15.4-15.4c4.5-4.5,10.5-7,16.8-7c13.1,0,23.8,10.6,23.8,23.8l0,0C376,306.9,373.5,312.9,369,317.4L369,317.4z"/>
	<g>
		<circle class="st4" cx="221" cy="189" r="11"/>
		<path class="st4" d="M199.2,259.7l35.6-3.2c3.2-0.3,6-2.2,7.5-5.1c1.9-3.7,6.4-5.2,10.1-3.4c1.1,0.6,2.1,1.4,2.8,2.4
			c1.7,2.4,1.8,5.7,0.2,8.2c-3.6,6-9.8,9.9-16.8,10.7l-38.7,4.4L199.2,259.7z"/>
		<path class="st4" d="M344,212.2c0,17.7-14.3,32-32,32s-32-14.3-32-32v-16.7c0-12.8-3.5-25.3-10-36.2l-8.1-13.6
			c-3.4-5.7-7.5-11.1-12.1-16c0.6,0,1.1,0,1.7,0c3.4,0,6.9,0.3,10.2,1c17.4,3.5,33.9,10.6,48.3,20.9l4.6,3.3
			c1.9,1.3,3.6,2.7,5.3,4.2C335.2,172.5,344,191.9,344,212.2L344,212.2z"/>
		<path class="st4" d="M143.7,234.9L136,240l-5.9-8.9c-4.9-7.4-2.9-17.3,4.5-22.2c0.5-0.4,1.1-0.7,1.7-1L152,200l0.1,0l1.8,5.4
			C157.5,216.4,153.3,228.4,143.7,234.9L143.7,234.9z"/>
	</g>
	<path class="st5" d="M272,416l2.2,0.6C306,425.7,328,454.9,328,488v1H128l-4.8-16.7c-17.2-56-9-116.8,22.4-166.2L152,296l1.9-3.7
		c8.7-17.3,26.4-28.3,45.8-28.3h0.4v32l27.9,13.9c12.7,6.3,21.8,18.2,24.5,32.1L256,360l0.8,0.8c8.6,8.6,9.4,22.4,1.8,32L256,396
		L272,416z"/>
	<path class="st6" d="M218.5,424c-14,0-27.4-5.5-37.3-15.4l-2.9-2.9c-3.1-3.1-3.1-8.2,0-11.3s8.2-3.1,11.3,0l2.9,2.9
		c14.3,14.3,37.6,14.3,51.9,0c1-1,1.9-2,2.7-3l2.6-3.2c2.8-3.5,7.8-4,11.2-1.2c3.5,2.8,4,7.8,1.2,11.2l-2.6,3.2
		C249.7,416.8,234.5,424,218.5,424L218.5,424z"/>
	<circle class="st6" cx="216" cy="352" r="11"/>
	<path class="st7" d="M352.2,268.8c-8.4,0-16.5,3.3-22.5,9.3l-9.8,9.8l-9.8-9.8c-12.4-12.4-32.5-12.4-44.9,0
		c-12.4,12.4-12.4,32.5,0,44.9l49,49c3.1,3.1,8.2,3.1,11.3,0c0,0,0,0,0,0l49-49c12.4-12.4,12.4-32.5,0-44.9
		C368.7,272.1,360.7,268.8,352.2,268.8L352.2,268.8z M363.4,311.7L320,355.1l-43.4-43.4c-6.1-6.2-5.9-16.2,0.3-22.3
		c6.1-6,15.9-6,22,0l15.4,15.4c3.1,3.1,8.2,3.1,11.3,0c0,0,0,0,0,0l15.4-15.4c6.2-6.1,16.2-6,22.3,0.3
		C369.4,295.8,369.4,305.6,363.4,311.7L363.4,311.7z"/>
	<path class="st7" d="M476.1,145.1l-216-128c-2.5-1.5-5.7-1.5-8.2,0l-216,128.9c-2.4,1.4-3.9,4.1-3.9,6.9v336c0,4.4,3.6,8,8,8h0
		l432-0.9c4.4,0,8-3.6,8-8V152C480,149.2,478.5,146.6,476.1,145.1L476.1,145.1z M192,272.7V296c0,3,1.7,5.8,4.4,7.2l27.9,13.9
		c10.5,5.2,18,15,20.3,26.5l3.6,17.9c0.3,1.5,1.1,3,2.2,4.1l0.8,0.8c5.8,5.8,6.3,14.9,1.2,21.3l-2.6,3.2l-2.6,3.2
		c-12.7,15.8-35.8,18.4-51.6,5.7c-1.1-0.8-2.1-1.8-3-2.7l-2.9-2.9c-3.1-3.1-8.2-3.1-11.3,0s-3.1,8.2,0,11.3l2.9,2.9
		c20.6,20.6,53.9,20.6,74.5,0c0,0,0,0,0,0l10,12.5c1,1.3,2.5,2.2,4.1,2.7l2.2,0.6c25.6,7.4,44.3,29.3,47.6,55.7H133.9l-3.1-10.1
		c-16.6-53.8-8.7-112.1,21.5-159.5l6.4-10.1c0.1-0.2,0.3-0.5,0.4-0.7l1.9-3.7C167.1,283.7,178.6,275,192,272.7L192,272.7z
		 M276.7,409l-10.5-13.1c8.5-12.3,7.3-28.8-2.8-39.8l-3.1-15.6c-3.2-16.4-13.9-30.3-28.8-37.7L208,291.1v-24.1l32.7-3
		c2.8-0.3,5.2-1.9,6.4-4.4l8-16c1.9-4,0.3-8.8-3.7-10.7c-3.9-1.9-8.7-0.3-10.6,3.5l-6,12l-78.8,7.2l-8.9-13.4l1-0.7
		c12.2-8.2,17.7-23.3,13.6-37.5l25.8-12.9c1.8-0.9,3.1-2.4,3.9-4.2l9.8-24.5c3.1-7.7,9.3-13.6,17.1-16.2l19-6.3c2.9-1,5.9-1.6,9-2
		c3.2,3.7,6.1,7.6,8.6,11.8l8.1,13.6c5.8,9.7,8.9,20.8,8.9,32.1v16.7c0,22.1,17.9,40,40,40s40-17.9,40-40c0-3.2-0.2-6.5-0.6-9.7
		c3.2,4.1,6.3,8.4,9.2,12.8c26,39.2,42.5,83.9,48.1,130.6c4.8,40.5,1.2,81.5-10.5,120.6l-4.1,13.7l-58.4,0.1
		C332.4,446.7,309,418.5,276.7,409L276.7,409z M136.7,226.6c-2.5-3.7-1.5-8.6,2.2-11.1c0.3-0.2,0.6-0.4,0.9-0.5l7.2-3.6
		c0.8,6.6-2.2,13.1-7.7,16.8l-1,0.7L136.7,226.6z M314.9,165.5c13.4,11.9,21.1,28.9,21.1,46.7c0,9.1-5.1,17.4-13.3,21.5
		c-6.8,3.4-14.7,3.4-21.5,0c-8.2-4-13.3-12.4-13.3-21.5v-16.7c0-14.2-3.9-28.1-11.2-40.3l-8.1-13.6c-0.2-0.4-0.5-0.8-0.7-1.1
		c13.4,3.6,26,9.6,37.3,17.7C308.6,160.5,311.8,163,314.9,165.5z M464,480l-53.3,0.1l2.7-9c12.4-41.1,16.2-84.4,11.1-127
		c-5.8-49.2-23.2-96.4-50.6-137.6c-13.4-20.1-29.8-38.1-48.7-53.2c-1.9-1.7-4-3.3-6.1-4.8c-0.2-0.2-0.5-0.3-0.8-0.5
		c-1.3-0.9-2.6-1.9-3.9-2.8c-15.3-11-32.9-18.6-51.4-22.3c-10.3-2.1-20.9-1.4-30.9,1.9l-19,6.3c-12.3,4.1-22.1,13.4-26.9,25.4
		l-8.7,21.7l-45.1,22.5c-11.9,5.9-16.7,20.3-10.7,32.2c0.4,0.9,0.9,1.8,1.5,2.6l5.9,8.9l16,24c1.6,2.4,4.5,3.8,7.4,3.5l7.1-0.6
		c-5.4,4.9-9.9,10.8-13.2,17.4L145,292l-6.2,9.7c-32.8,51.4-41.3,114.6-23.3,172.8l1.9,6.1L48,480.9V157.5L256,33.3l208,123.3
		L464,480z"/>
	<circle class="st7" cx="216" cy="352" r="11"/>
	<circle class="st7" cx="221" cy="189" r="11"/>
</g>
</svg>
