<?xml version="1.0" encoding="utf-8"?>
<!-- Generator: Adobe Illustrator 22.0.0, SVG Export Plug-In . SVG Version: 6.00 Build 0)  -->
<svg version="1.1" id="Layer_1" xmlns="http://www.w3.org/2000/svg" xmlns:xlink="http://www.w3.org/1999/xlink" x="0px" y="0px"
	 viewBox="0 0 1200 1200" style="enable-background:new 0 0 1200 1200;" xml:space="preserve">
<style type="text/css">
	.st0{fill:#FE3728;}
</style>
<g>
	<path class="st0" d="M468,535.9c-15.4-36.2-32.2-63.4-54.9-54.9c0,0-41.4,12.7-36.5,85.1c3.2,48.2,47.1,60.4,69.2,53.2
		C467.9,612.2,483.4,572.1,468,535.9z"/>
	<path class="st0" d="M519.6,542.4c45.3,11.1,75.2-25.9,80.8-74s0.5-88.9-16.2-97.8c-27.6-14.8-86,22.4-103.2,73
		C458.8,508.9,507.4,539.4,519.6,542.4z"/>
	<path class="st0" d="M710.8,676.8c-22.3-22.6-35.1-56.1-44.7-70.4c-9.6-14.3-24.7-40.6-64.9-46.1l-0.1,0.1l-0.1-0.2
		c-40.2-5.5-61.8,15.8-74.9,27.1c-13.1,11.3-34.3,40.1-61.9,55.9c-27.5,15.8-48.7,47.5-40.7,85.4c8,37.9,50,59.6,91.7,58.2
		c11.9-0.4,23.7-1.2,35.5-2.9c8.7-1.3,16.9-0.9,25.7,0.9c8,1.6,15,5.2,22.5,8.2c8.1,3.2,16.3,5.9,24.6,8.5
		c39.7,12.4,86.1,2.8,103.9-31.6C745,735.6,733.1,699.4,710.8,676.8z M638.7,696.9c-8.8,16.6-40.4,35.8-62.4,44.5c0,0,0,0,0,0
		c0,0,0,0,0,0c0,0,0,0,0,0c0,0,0,0,0,0c-18.9-14.2-44.1-41.2-48.2-59.5c-3.9-17.4,5.6-35.1,22.6-39.5c14.8-3.8,30.1,3.8,36.7,17.5
		c10.1-11.4,26.8-14.8,40.1-7.1C642.7,661.5,647.1,681.1,638.7,696.9z"/>
	<path class="st0" d="M684.1,564.8c12.6,0.4,67.5-16,63.6-85c-3.1-53.3-49.4-104.8-79.9-97.9c-18.4,4.2-34.2,42.1-41.7,89.9
		C618.5,519.7,637.5,563.4,684.1,564.8z"/>
	<path class="st0" d="M803.2,534.1c-19.5-14.3-43,7.5-67.5,38.2c-24.6,30.8-20.3,73.5-0.9,86.3c19.4,12.8,64.9,12.8,80.9-32.8
		C839.6,557.4,803.2,534.1,803.2,534.1z"/>
</g>
</svg>
