<svg viewBox="-87 0 511 511.99804" xmlns="http://www.w3.org/2000/svg"><path d="m327.792969 431.804688c10.90625-91.5625 13.292969-184.402344 7.078125-275.957032-.285156-4.191406-3.914063-7.359375-8.101563-7.074218-4.191406.285156-7.359375 3.914062-7.074219 8.105468 6.042969 89.09375 3.867188 179.417969-6.464843 268.566406-74.023438 11.636719-149.015625 14.296876-222.984375 7.898438-4.195313-.367188-7.871094 2.734375-8.234375 6.921875-.363281 4.183594 2.738281 7.871094 6.921875 8.234375 26.613281 2.300781 53.339844 3.449219 80.121094 3.449219 48.332031 0 96.804687-3.753907 144.875-11.222657l3.816406 21.378907c1.085937 6.085937-.910156 11.972656-5.476563 16.144531-4.5625 4.171875-10.601562 5.632812-16.570312 4.007812l-25.371094-6.917968c-12.035156-3.28125-24.699219.429687-33.054687 9.683594l-5.328126 5.894531c-5.261718 5.828125-13.566406 7.488281-20.664062 4.132812l-27.867188-13.171875c-8.933593-4.226562-19.179687-4.222656-28.109374 0l-27.867188 13.171875c-7.097656 3.355469-15.40625 1.695313-20.667969-4.132812l-5.324219-5.894531c-8.359374-9.253907-21.027343-12.964844-33.058593-9.683594l-25.371094 6.917968c-5.964844 1.625-12.007813.167969-16.570313-4.007812-4.566406-4.171875-6.558593-10.058594-5.472656-16.144531l3.8125-21.382813c11.183594 1.742188 22.441406 3.300782 33.574219 4.628906.308594.035157.613281.054688.910156.054688 3.800781 0 7.082031-2.839844 7.546875-6.707031.496094-4.171875-2.480468-7.957031-6.652344-8.453125-11.496093-1.371094-23.136718-2.984375-34.675781-4.796875-13.035156-112.464844-13.035156-226.429688 0-338.894531 95.503907-15.011719 192.242188-15.011719 287.742188 0 1.582031 13.644531 2.988281 27.414062 4.183593 41.007812.367188 4.1875 4.070313 7.28125 8.242188 6.914062 4.183594-.371093 7.277344-4.0625 6.910156-8.246093-1.339844-15.269531-2.949218-30.753907-4.769531-46.042969l4.925781-27.617188c1.992188-11.164062-1.816406-22.398437-10.183594-30.046874-8.371093-7.652344-19.898437-10.4375-30.839843-7.457032l-25.371094 6.917969c-6.464844 1.765625-13.269531-.230469-17.761719-5.203125l-5.328125-5.894531c-9.796875-10.8476565-25.25-13.9375-38.460937-7.691407l-27.867188 13.171876c-4.796875 2.269531-10.304687 2.273437-15.105468 0l-27.867188-13.171876c-13.210938-6.246093-28.664062-3.1562495-38.457031 7.6875l-5.328125 5.898438c-4.488282 4.972656-11.296875 6.964844-17.761719 5.203125l-25.371094-6.917969c-10.941406-2.984375-22.46875-.199218-30.839843 7.453125-8.367188 7.652344-12.175782 18.882813-10.183594 30.046875l4.925781 27.621094c-13.898437 116.667969-13.898437 234.957031 0 351.625l-4.925781 27.617188c-1.992188 11.164062 1.816406 22.398437 10.183594 30.046874 8.371093 7.652344 19.898437 10.4375 30.839843 7.453126l25.371094-6.917969c6.464844-1.761719 13.269531.234375 17.761719 5.207031l5.328125 5.894531c9.792969 10.84375 25.246093 13.933594 38.457031 7.6875l27.867188-13.171875c4.800781-2.269531 10.304687-2.269531 15.105468 0l27.867188 13.175782c4.550781 2.152343 9.367187 3.195312 14.128906 3.195312 9.058594 0 17.910156-3.777344 24.328125-10.882812l5.328125-5.898438c4.492188-4.972656 11.296875-6.96875 17.761719-5.203125l25.371093 6.917969c10.941407 2.984375 22.46875.195312 30.839844-7.457032 8.371094-7.648437 12.179688-18.882812 10.1875-30.046874zm-301.347657-398.054688c4.5625-4.171875 10.605469-5.632812 16.570313-4.007812l25.371094 6.917968c12.03125 3.28125 24.699219-.429687 33.054687-9.683594l5.328125-5.894531c5.261719-5.828125 13.566407-7.488281 20.664063-4.132812l27.871094 13.171875c8.929687 4.222656 19.175781 4.226562 28.109374 0l27.863282-13.171875c7.101562-3.355469 15.40625-1.695313 20.667968 4.132812l5.328126 5.894531c8.359374 9.253907 21.023437 12.96875 33.054687 9.6875l25.371094-6.917968c5.964843-1.628906 12.007812-.167969 16.570312 4.003906 4.566407 4.171875 6.5625 10.058594 5.476563 16.148438l-3.816406 21.375c-95.972657-14.914063-193.171876-14.914063-289.148438 0l-3.8125-21.375c-1.085938-6.089844.910156-11.976563 5.476562-16.148438zm0 0"/><path d="m82.980469 342.375c3.609375 19.5 20.878906 34.414062 41.289062 34.414062 23.152344 0 41.992188-18.835937 41.992188-41.988281v-16.320312l65.578125-65.578125h16.316406c23.152344 0 41.992188-18.835938 41.992188-41.992188 0-20.40625-14.914063-37.675781-34.414063-41.285156-3.609375-19.5-20.878906-34.414062-41.289063-34.414062-23.152343 0-41.988281 18.835937-41.988281 41.988281v16.316406l-65.582031 65.582031h-16.316406c-23.152344 0-41.988282 18.835938-41.988282 41.988282-.003906 20.410156 14.910157 37.679687 34.410157 41.289062zm7.578125-68.0625h19.46875c2.015625 0 3.953125-.800781 5.378906-2.230469l70.035156-70.035156c1.425782-1.425781 2.230469-3.359375 2.230469-5.378906v-19.46875c0-14.765625 12.011719-26.777344 26.773437-26.777344 14.484376 0 26.492188 11.78125 26.765626 26.265625.074218 4.089844 3.371093 7.386719 7.460937 7.460938 14.480469.273437 26.261719 12.277343 26.261719 26.761718 0 14.765625-12.011719 26.777344-26.773438 26.777344h-19.46875c-2.019531 0-3.953125.800781-5.378906 2.226562l-70.035156 70.039063c-1.429688 1.425781-2.230469 3.359375-2.230469 5.378906v19.46875c0 14.765625-12.011719 26.777344-26.777344 26.777344-14.484375 0-26.488281-11.78125-26.761719-26.265625-.074218-4.089844-3.371093-7.386719-7.460937-7.460938-14.480469-.273437-26.261719-12.277343-26.261719-26.761718-.003906-14.765625 12.007813-26.777344 26.773438-26.777344zm0 0"/><path d="m292.082031 336.023438h-85.195312c-4.203125 0-7.609375 3.40625-7.609375 7.609374 0 4.199219 3.40625 7.605469 7.609375 7.605469h85.195312c4.199219 0 7.605469-3.40625 7.605469-7.605469 0-4.203124-3.40625-7.609374-7.605469-7.609374zm0 0"/><path d="m181.527344 383.695312h110.554687c4.199219 0 7.605469-3.40625 7.605469-7.609374 0-4.199219-3.40625-7.605469-7.605469-7.605469h-110.554687c-4.203125 0-7.605469 3.40625-7.605469 7.605469 0 4.203124 3.402344 7.609374 7.605469 7.609374zm0 0"/><path d="m53.734375 176.789062h85.195313c4.199218 0 7.605468-3.40625 7.605468-7.605468 0-4.203125-3.40625-7.609375-7.605468-7.609375h-85.195313c-4.203125 0-7.609375 3.40625-7.609375 7.609375 0 4.199218 3.40625 7.605468 7.609375 7.605468zm0 0"/><path d="m53.734375 209.246094h54.765625c4.199219 0 7.605469-3.40625 7.605469-7.609375 0-4.199219-3.40625-7.605469-7.605469-7.605469h-54.765625c-4.203125 0-7.609375 3.40625-7.609375 7.605469 0 4.203125 3.40625 7.609375 7.609375 7.609375zm0 0"/><path d="m53.734375 144.335938h110.554687c4.199219 0 7.605469-3.40625 7.605469-7.609376 0-4.199218-3.40625-7.605468-7.605469-7.605468h-110.554687c-4.203125 0-7.609375 3.40625-7.609375 7.605468 0 4.203126 3.40625 7.609376 7.609375 7.609376zm0 0"/></svg>