<svg viewBox="-54 0 512 512.00103" xmlns="http://www.w3.org/2000/svg"><path d="m134.582031 373.636719c4.199219 0 7.605469-3.402344 7.605469-7.601563v-123.4375c0-4.199218-3.40625-7.605468-7.605469-7.605468s-7.601562 3.40625-7.601562 7.605468v123.4375c0 4.199219 3.402343 7.601563 7.601562 7.601563zm0 0"/><path d="m269.921875 372.117188c4.199219 0 7.605469-3.402344 7.605469-7.605469v-121.914063c0-4.199218-3.40625-7.605468-7.605469-7.605468s-7.601563 3.40625-7.601563 7.605468v121.914063c0 4.203125 3.402344 7.605469 7.601563 7.605469zm0 0"/><path d="m396.910156 378.199219h-8.367187v-60.832031c0-4.199219-3.402344-7.601563-7.601563-7.601563-4.199218 0-7.605468 3.402344-7.605468 7.601563v60.832031h-42.578126v-142.1875c0-2.800781-.050781-5.585938-.132812-8.363281h42.503906c.132813 2.769531.207032 5.558593.207032 8.363281v56.007812c0 4.203125 3.40625 7.605469 7.605468 7.605469 4.199219 0 7.601563-3.402344 7.601563-7.605469v-56.007812c0-2.804688-.074219-5.589844-.195313-8.363281h8.558594c4.199219 0 7.605469-3.40625 7.605469-7.605469s-3.40625-7.605469-7.605469-7.605469h-9.847656c-10.527344-83.023438-75.921875-149.164062-158.582032-160.859375 3.921876-5.367187 6.246094-11.972656 6.246094-19.113281 0-17.902344-14.5625-32.464844-32.464844-32.464844-17.902343 0-32.464843 14.5625-32.464843 32.464844 0 7.140625 2.324219 13.746094 6.246093 19.109375-82.660156 11.695312-148.058593 77.839843-158.585937 160.863281h-9.847656c-4.199219 0-7.605469 3.40625-7.605469 7.605469s3.40625 7.605469 7.605469 7.605469h8.558593c-.125 2.773437-.195312 5.558593-.195312 8.363281v142.1875h-8.359375c-4.203125 0-7.60546875 3.40625-7.60546875 7.605469 0 4.199218 3.40234375 7.605468 7.60546875 7.605468h8.359375v110.988282c0 4.199218 3.402344 7.601562 7.601562 7.601562h357.371094c4.199219 0 7.601563-3.402344 7.601563-7.601562v-110.988282h8.367187c4.199219 0 7.601563-3.40625 7.601563-7.605468 0-4.199219-3.402344-7.605469-7.601563-7.605469zm-81.363281-142.1875v142.1875h-59.984375c-9.128906-16.777344-25.957031-28.769531-45.699219-31.253907v-119.296874h105.546875c.089844 2.769531.136719 5.558593.136719 8.363281zm-124.695313 260.78125v-47.121094h22.8125v47.121094zm0-62.328125v-71.355469c3.644532-.945313 7.46875-1.453125 11.402344-1.453125 3.941406 0 7.765625.507812 11.410156 1.453125v71.355469zm-101.75-206.816406h105.554688v119.296874c-19.75 2.480469-36.578125 14.476563-45.707031 31.253907h-59.988281v-142.1875c0-2.804688.050781-5.59375.140624-8.363281zm120.761719-161.152344c10 4.074218 19.886719 16.019531 28.460938 34.660156 11.535156 25.074219 19.5625 60.21875 22.597656 98.957031.3125 3.984375 3.644531 7.007813 7.574219 7.007813.199218 0 .402344-.007813.601562-.023438 4.1875-.328125 7.316406-3.988281 6.988282-8.171875-3.175782-40.484375-11.679688-77.464843-23.945313-104.125-3.503906-7.621093-7.109375-13.992187-10.734375-19.335937 38.535156 21.496094 67.269531 73.777344 73.0625 136.976562h-104.605469zm-46.652343 8.910156c-5.84375 8.535156-11.195313 19.097656-15.917969 31.558594-9.625 25.40625-16.148438 57.203125-18.871094 91.957031-.328125 4.1875 2.800781 7.847656 6.988281 8.175781 4.175782.328125 7.847656-2.800781 8.175782-6.988281 2.609374-33.335937 8.808593-63.679687 17.929687-87.757813 9.421875-24.871093 21.183594-40.976562 33.140625-45.851562v145.9375h-104.613281c5.800781-63.253906 34.578125-115.570312 73.167969-137.03125zm-6.390626 331.683594c0-15.117188 7.429688-28.523438 18.824219-36.789063v64.164063h-18.824219zm72.050782-36.785156c11.390625 8.265624 18.820312 21.671874 18.820312 36.785156v27.375h-18.820312zm142.832031-157.867188h-41.960937c-3.476563-40.328125-15.84375-77.6875-35.703126-107.035156-6.460937-9.550782-13.511718-17.945313-21.035156-25.144532 52.289063 23.84375 90.546875 73.269532 98.699219 132.179688zm-169.445313-197.230469c9.515626 0 17.257813 7.742188 17.257813 17.257813s-7.742187 17.257812-17.257813 17.257812c-9.515624 0-17.253906-7.742187-17.253906-17.257812s7.738282-17.257813 17.253906-17.257813zm-70.75 65.050781c-7.523437 7.199219-14.574218 15.59375-21.035156 25.144532-19.859375 29.347656-32.226562 66.707031-35.703125 107.035156h-41.960937c8.152344-58.910156 46.410156-108.335938 98.699218-132.179688zm-100.332031 155.753907c0-2.804688.074219-5.59375.207031-8.363281h42.503907c-.085938 2.777343-.132813 5.5625-.132813 8.363281v142.1875h-42.578125zm50.183594 222.28125c-4.199219 0-7.605469 3.402343-7.605469 7.601562v30.898438h-42.578125v-103.382813h42.578125v47.136719c0 4.199219 3.40625 7.605469 7.605469 7.605469s7.601563-3.40625 7.601563-7.605469v-47.136719h54.230468c-1.019531 4.398438-1.578125 8.976563-1.578125 13.679688v89.703125h-52.652343v-30.898438c0-4.199219-3.402344-7.601562-7.601563-7.601562zm75.460937-8.621094h18.824219v47.121094h-18.824219zm72.050782 47.121094v-47.121094h18.820312v47.121094zm34.027344 0v-89.703125c0-4.703125-.558594-9.28125-1.578126-13.679688h54.226563v103.382813zm110.4375 0h-42.578126v-103.382813h42.578126zm0 0"/></svg>