<svg viewBox="-28 1 511 511.99899" xmlns="http://www.w3.org/2000/svg"><path d="m194.605469 335.78125c0 24.066406 19.582031 43.644531 43.648437 43.644531s43.644532-19.578125 43.644532-43.644531-19.578126-43.644531-43.644532-43.644531-43.648437 19.578125-43.648437 43.644531zm72.085937 0c0 15.679688-12.757812 28.4375-28.4375 28.4375-15.683594 0-28.4375-12.757812-28.4375-28.4375s12.753906-28.4375 28.4375-28.4375c15.679688 0 28.4375 12.757812 28.4375 28.4375zm0 0"/><path d="m234.84375 256.445312c-4.023438-11.789062-16.878906-18.109374-28.671875-14.085937-11.792969 4.019531-18.109375 16.882813-14.089844 28.675781 3.203125 9.378906 12 15.296875 21.398438 15.296875 2.414062 0 4.871093-.390625 7.277343-1.214843 11.789063-4.019532 18.109376-16.882813 14.085938-28.671876.003906 0 .003906 0 0 0zm-18.996094 14.28125c-3.855468 1.3125-8.058594-.75-9.371094-4.601562-1.316406-3.855469.75-8.058594 4.605469-9.375.785157-.265625 1.585938-.394531 2.375-.394531 3.074219 0 5.949219 1.933593 6.996094 5 1.3125 3.851562-.753906 8.054687-4.605469 9.371093zm0 0"/><path d="m186.9375 276.164062c-5.0625-3.285156-11.097656-4.402343-17-3.144531-5.902344 1.257813-10.964844 4.738281-14.246094 9.800781-3.285156 5.0625-4.402344 11.097657-3.144531 17.003907 1.257813 5.902343 4.738281 10.960937 9.800781 14.242187 3.789063 2.460938 8.046875 3.632813 12.261719 3.632813 7.402344 0 14.664063-3.628907 18.988281-10.289063 6.777344-10.449218 3.792969-24.46875-6.660156-31.246094zm-6.101562 22.96875c-2.214844 3.414063-6.796876 4.390626-10.210938 2.175782-1.65625-1.074219-2.792969-2.726563-3.203125-4.65625-.410156-1.925782-.046875-3.902344 1.027344-5.554688 1.074219-1.65625 2.726562-2.792968 4.65625-3.203125.519531-.109375 1.035156-.164062 1.554687-.164062 1.410156 0 2.792969.40625 4 1.191406 3.417969 2.214844 4.394532 6.796875 2.175782 10.210937zm0 0"/><path d="m282.652344 308.179688c3.175781 5.128906 8.160156 8.71875 14.03125 10.101562 1.734375.40625 3.484375.609375 5.21875.609375 4.152344 0 8.230468-1.152344 11.847656-3.390625 5.132812-3.175781 8.71875-8.160156 10.101562-14.035156 1.382813-5.875.394532-11.933594-2.78125-17.0625-3.175781-5.132813-8.15625-8.71875-14.03125-10.101563-5.875-1.382812-11.933593-.398437-17.066406 2.777344-5.132812 3.175781-8.71875 8.160156-10.101562 14.035156-1.382813 5.875-.394532 11.933594 2.78125 17.066407zm12.023437-13.582032c.449219-1.917968 1.625-3.550781 3.300781-4.585937 1.179688-.730469 2.515626-1.109375 3.871094-1.109375.566406 0 1.140625.066406 1.707032.199218 1.917968.453126 3.546874 1.625 4.585937 3.300782 1.035156 1.675781 1.359375 3.65625.90625 5.578125-.453125 1.917969-1.625 3.546875-3.300781 4.585937-1.679688 1.035156-3.65625 1.359375-5.578125.90625-1.917969-.449218-3.546875-1.621094-4.585938-3.300781-1.035156-1.675781-1.359375-3.65625-.90625-5.574219zm0 0"/><path d="m271.355469 242.980469c-5.667969-2.070313-11.804688-1.808594-17.273438.738281-5.472656 2.542969-9.625 7.066406-11.695312 12.734375-2.070313 5.667969-1.808594 11.804687.738281 17.277344 2.542969 5.46875 7.066406 9.621093 12.734375 11.691406 2.527344.925781 5.148437 1.382813 7.761719 1.382813 3.246094 0 6.484375-.707032 9.515625-2.117188 5.46875-2.546875 9.625-7.070312 11.691406-12.738281 4.273437-11.699219-1.773437-24.695313-13.472656-28.96875zm-.8125 23.753906c-.675781 1.851563-2.03125 3.332031-3.820313 4.160156-1.789062.832031-3.792968.921875-5.648437.242188-1.851563-.675781-3.328125-2.03125-4.160157-3.820313-.832031-1.789062-.917968-3.792968-.242187-5.648437.679687-1.851563 2.035156-3.328125 3.824219-4.160157.992187-.460937 2.046875-.691406 3.109375-.691406.851562 0 1.710937.148438 2.535156.449219 1.851563.675781 3.332031 2.035156 4.160156 3.824219.832031 1.785156.917969 3.792968.242188 5.644531zm0 0"/><path d="m158.15625 413.929688h160.191406c4.199219 0 7.605469-3.40625 7.605469-7.605469s-3.40625-7.605469-7.605469-7.605469h-160.191406c-4.199219 0-7.601562 3.40625-7.601562 7.605469s3.402343 7.605469 7.601562 7.605469zm0 0"/><path d="m189.585938 433.222656c-4.199219 0-7.601563 3.402344-7.601563 7.601563 0 4.203125 3.402344 7.605469 7.601563 7.605469h97.332031c4.199219 0 7.605469-3.402344 7.605469-7.605469 0-4.199219-3.40625-7.601563-7.605469-7.601563zm0 0"/><path d="m383.234375 133.089844c-5.875 0-11.507813 1.039062-16.734375 2.933594-6.949219-10.210938-17.796875-17.265626-30.195312-19.316407-7.785157-1.292969-15.582032-2.421875-23.390626-3.40625v-76c0-20.566406-16.730468-37.300781-37.296874-37.300781h-74.722657c-20.566406 0-37.300781 16.734375-37.300781 37.300781v76c-7.808594.980469-15.609375 2.113281-23.398438 3.40625-20.542968 3.410157-36.15625 20.289063-37.972656 41.042969-3.1875 36.304688-5.257812 73.128906-6.160156 109.457031-.105469 4.195313 3.214844 7.683594 7.414062 7.789063.0625 0 .128907.003906.191407.003906 4.113281 0 7.496093-3.285156 7.597656-7.417969.894531-36.007812 2.949219-72.511719 6.109375-108.503906 1.207031-13.84375 11.617188-25.097656 25.3125-27.371094 63.414062-10.519531 127.722656-10.519531 191.128906 0 7.789063 1.292969 14.65625 5.542969 19.300782 11.726563-11.582032 9.003906-19.054688 23.054687-19.054688 38.824218 0 20.199219 12.246094 37.585938 29.699219 45.144532 3.742187 77.636718 2.199219 156.363281-4.625 234.085937-1.21875 13.847657-11.632813 25.101563-25.324219 27.375-63.40625 10.519531-127.710938 10.515625-191.128906 0-.003906-.003906-.007813-.003906-.011719-.003906 7.183594-9.605469 11.445313-21.515625 11.445313-34.40625 0-26.003906-17.34375-48.023437-41.066407-55.128906-1.84375-35.710938-2.597656-71.839844-2.21875-107.492188.046875-4.199219-3.320312-7.640625-7.519531-7.6875-.027344 0-.058594 0-.085938 0-4.160156 0-7.554687 3.351563-7.601562 7.523438-.371094 34.914062.332031 70.277343 2.078125 105.269531-.378906-.007812-.753906-.027344-1.128906-.027344-31.730469 0-57.546875 25.8125-57.546875 57.542969s25.816406 57.546875 57.546875 57.546875c12.589843 0 24.238281-4.078125 33.726562-10.960938 3.171875 1.308594 6.480469 2.261719 9.894531 2.828126 32.535157 5.394531 65.296876 8.09375 98.058594 8.09375 32.761719 0 65.519532-2.699219 98.050782-8.09375 20.535156-3.40625 36.152343-20.285157 37.980468-41.046876 6.75-76.878906 8.378906-154.730468 4.878906-231.570312 1.34375.113281 2.699219.183594 4.070313.183594 3.332031 0 6.664063-.335938 9.902344-1 4.117187-.84375 6.769531-4.859375 5.925781-8.972656-.84375-4.117188-4.863281-6.773438-8.976562-5.925782-2.234376.457032-4.539063.691406-6.851563.691406-18.726563 0-33.964844-15.238281-33.964844-33.964843 0-18.726563 15.238281-33.964844 33.964844-33.964844s33.964844 15.238281 33.964844 33.964844c0 9.070312-3.53125 17.601562-9.949219 24.015625-2.96875 2.96875-2.96875 7.785156 0 10.753906s7.785156 2.972656 10.753906 0c9.285156-9.285156 14.402344-21.632812 14.402344-34.769531 0-27.113281-22.058594-49.171875-49.171875-49.171875zm-204.433594-21.503906v-74.285157c0-12.183593 9.910157-22.09375 22.09375-22.09375h74.71875c12.183594 0 22.09375 9.910157 22.09375 22.09375v74.285157c-39.566406-3.957032-79.335937-3.957032-118.90625 0zm-124.5625 342.871093c0-23.347656 18.992188-42.339843 42.335938-42.339843s42.335937 18.992187 42.335937 42.339843c0 23.34375-18.992187 42.335938-42.335937 42.335938s-42.335938-18.992188-42.335938-42.335938zm0 0"/><path d="m422.773438 62.121094c-17.609376 0-31.933594 14.324218-31.933594 31.933594 0 17.609374 14.324218 31.9375 31.933594 31.9375 17.609374 0 31.9375-14.328126 31.9375-31.9375 0-17.609376-14.328126-31.933594-31.9375-31.933594zm0 48.664062c-9.222657 0-16.726563-7.503906-16.726563-16.730468 0-9.222657 7.503906-16.726563 16.726563-16.726563 9.226562 0 16.730468 7.503906 16.730468 16.726563 0 9.226562-7.503906 16.730468-16.730468 16.730468zm0 0"/><path d="m72.992188 329.527344c0-19.988282-16.261719-36.246094-36.246094-36.246094s-36.246094 16.261719-36.246094 36.246094 16.261719 36.246094 36.246094 36.246094 36.246094-16.261719 36.246094-36.246094zm-36.246094 21.039062c-11.601563 0-21.039063-9.4375-21.039063-21.039062 0-11.601563 9.4375-21.039063 21.039063-21.039063 11.601562 0 21.039062 9.4375 21.039062 21.039063 0 11.597656-9.4375 21.039062-21.039062 21.039062zm0 0"/></svg>