<svg viewBox="0 -106 511.99982 511" xmlns="http://www.w3.org/2000/svg"><path d="m251.996094 126.207031c-26.367188 16.328125-42.109375 44.5625-42.109375 75.527344 0 .882813.011719 1.765625.035156 2.644531.851563 29.03125 23.824219 44.21875 46.078125 44.21875 22.25 0 45.222656-15.1875 46.074219-44.21875.023437-.878906.039062-1.761718.039062-2.644531 0-30.964844-15.742187-59.199219-42.109375-75.527344-2.453125-1.519531-5.554687-1.519531-8.007812 0zm34.910156 75.527344c0 .734375-.011719 1.464844-.035156 2.199219-.429688 14.660156-10.140625 29.457031-30.871094 29.457031s-30.445312-14.792969-30.875-29.460937c-.019531-.730469-.03125-1.460938-.03125-2.195313 0-24.054687 11.464844-46.121094 30.90625-59.941406 19.441406 13.820312 30.90625 35.886719 30.90625 59.941406zm0 0"/><path d="m70.453125 269.640625c-18.128906-3.015625-36.394531-6.511719-54.394531-10.417969 8.386718-63.410156 16.796875-126.921875 25.21875-190.523437 16.90625 3.226562 33.957031 6.109375 50.820312 8.539062 54.546875 7.886719 109.316406 11.828125 164.035156 11.828125 71.820313 0 143.554688-6.808594 214.582032-20.363281l5.394531 40.757813c.550781 4.164062 4.375 7.09375 8.539063 6.542968 4.160156-.550781 7.089843-4.375 6.539062-8.535156l-7.886719-59.566406c-1.933593-14.601563-9.472656-27.53125-21.234375-36.402344-11.753906-8.859375-26.238281-12.554688-40.78125-10.402344-109.675781 16.195313-220.894531 16.195313-330.566406 0-14.554688-2.152344-29.035156 1.542969-40.78125 10.398438-11.765625 8.867187-19.308594 21.796875-21.25 36.410156l-1.429688 10.816406c-9.085937 68.585938-18.148437 137.0625-27.1914058 205.429688-.5156252 3.902344 2.0351558 7.554687 5.8789058 8.417968 20.460938 4.570313 41.328126 8.632813 62.011719 12.074219.425781.070313.84375.105469 1.257813.105469 3.652344 0 6.871094-2.636719 7.492187-6.359375.6875-4.144531-2.113281-8.058594-6.253906-8.75zm-11.359375-246.003906c8.46875-6.382813 18.910156-9.046875 29.398438-7.496094 111.152343 16.414063 223.867187 16.414063 335.015624 0 10.484376-1.550781 20.925782 1.113281 29.398438 7.5 8.484375 6.398437 13.925781 15.722656 15.316406 26.253906l.492188 3.710938c-123.757813 23.714843-249.695313 26.613281-374.445313 8.582031-16.921875-2.441406-34.035156-5.34375-50.996093-8.589844l.488281-3.699218c1.398437-10.535157 6.84375-19.863282 15.332031-26.261719zm0 0"/><path d="m511.933594 264.148438-17.140625-129.441407c-.550781-4.164062-4.371094-7.09375-8.535157-6.542969-4.164062.550782-7.089843 4.375-6.539062 8.535157l16.222656 122.519531c-130.699218 28.378906-264.097656 33.375-396.625 14.835938-4.160156-.582032-8.003906 2.320312-8.585937 6.480468s2.320312 8 6.476562 8.582032c52.972657 7.410156 106.0625 11.109374 159.089844 11.109374 83.75 0 167.308594-9.234374 249.757813-27.660156 3.84375-.859375 6.394531-4.511718 5.878906-8.417968zm0 0"/></svg>