<svg viewBox="0 0 512 512.00001" xmlns="http://www.w3.org/2000/svg"><path d="m462.613281 413.234375c-27.226562 0-49.382812 22.152344-49.382812 49.382813v34.175781h-349.335938c-13.007812 0-25.234375-5.066407-34.425781-14.257813-9.230469-9.242187-14.296875-21.519531-14.261719-34.574218.074219-26.769532 22.289063-48.550782 49.523438-48.550782h353.488281c51.710938 0 93.78125-42.070312 93.78125-93.785156 0-51.710938-42.070312-93.78125-93.78125-93.78125h-24.761719v-10.128906c0-4.199219-3.402343-7.601563-7.601562-7.601563h-15.109375c14.738281-20.699219 22.710937-45.453125 22.710937-71.203125 0-33.992187-13.5625-65.617187-38.191406-89.054687-3.042969-2.894531-7.855469-2.777344-10.75.265625-2.894531 3.042968-2.777344 7.855468.265625 10.75 21.582031 20.539062 33.46875 48.253906 33.46875 78.039062 0 27.433594-10.328125 53.574219-29.082031 73.609375-2.070313 2.214844-2.628907 5.441407-1.425781 8.222657 1.207031 2.78125 3.949218 4.578124 6.976562 4.578124h23.53125v21.28125h-165.753906c-4.199219 0-7.605469 3.40625-7.605469 7.605469v7.046875c0 25.339844-9.867187 49.15625-27.785156 67.0625-17.90625 17.914063-41.722657 27.78125-67.0625 27.78125-52.292969 0-94.835938-42.546875-94.835938-94.84375v-135.199218c0-25.339844 9.867188-49.15625 27.785157-67.066407 17.90625-17.914062 41.71875-27.78125 67.050781-27.78125h160.515625c17.882812 0 35.585937 4.46875 51.199218 12.925781 3.695313 2 8.308594.628907 10.308594-3.066406 2-3.691406.628906-8.304687-3.066406-10.308594-17.828125-9.652343-38.039062-14.757812-58.441406-14.757812h-160.515625c-29.394531 0-57.027344 11.449219-77.804688 32.234375-20.789062 20.78125-32.238281 48.417969-32.238281 77.820313v135.199218c0 60.683594 49.367188 110.054688 110.042969 110.054688 29.40625 0 57.042969-11.449219 77.816406-32.238282 20.660156-20.644531 32.09375-48.066406 32.238281-77.261718h165.757813c4.199219 0 7.605469-3.402344 7.605469-7.601563v-11.152343h24.757812c43.324219 0 78.574219 35.246093 78.574219 78.574218 0 43.324219-35.25 78.574219-78.574219 78.574219h-353.488281c-35.597657 0-64.636719 28.582031-64.730469 63.71875-.046875 17.128906 6.597656 33.238281 18.714844 45.367187 12.066406 12.0625 28.109375 18.710938 45.179687 18.710938h356.921875.019532 41.777343c27.230469 0 49.382813-22.152344 49.382813-49.382812 0-27.226563-22.152344-49.382813-49.382813-49.382813zm0 83.558594h-34.171875v-34.175781c0-18.84375 15.328125-34.175782 34.171875-34.175782s34.175781 15.332032 34.175781 34.175782-15.332031 34.175781-34.175781 34.175781zm0 0"/><path d="m68.4375 222.5c-4.199219 0-7.605469 3.402344-7.605469 7.601562v15.152344c0 27.140625 22.078125 49.222656 49.210938 49.222656 27.144531 0 49.222656-22.082031 49.222656-49.222656v-135.199218c0-27.140626-22.078125-49.222657-49.222656-49.222657-27.132813 0-49.210938 22.082031-49.210938 49.222657v94.699218c0 4.199219 3.40625 7.605469 7.605469 7.605469s7.601562-3.40625 7.601562-7.605469v-94.699218c0-18.753907 15.253907-34.015626 34.003907-34.015626 18.757812 0 34.015625 15.261719 34.015625 34.015626v135.199218c0 18.753906-15.257813 34.011719-34.015625 34.011719-18.75 0-34.003907-15.257813-34.003907-34.011719v-15.152344c0-4.199218-3.402343-7.601562-7.601562-7.601562zm0 0"/><path d="m263.066406 196.503906c24.066406 0 43.644532-19.578125 43.644532-43.644531s-19.578126-43.644531-43.644532-43.644531-43.644531 19.578125-43.644531 43.644531 19.578125 43.644531 43.644531 43.644531zm0-72.082031c15.679688 0 28.4375 12.757813 28.4375 28.4375s-12.757812 28.4375-28.4375 28.4375c-15.679687 0-28.4375-12.757813-28.4375-28.4375s12.757813-28.4375 28.4375-28.4375zm0 0"/><path d="m228.316406 101.09375c3.148438 1.546875 6.535156 2.324219 9.941406 2.324219 2.457032 0 4.921876-.402344 7.316407-1.222657 5.710937-1.945312 10.320312-6.003906 12.980469-11.417968 2.660156-5.417969 3.054687-11.546875 1.105468-17.257813-1.949218-5.710937-6.003906-10.320312-11.421875-12.980469-5.414062-2.660156-11.542969-3.050781-17.253906-1.105468-5.710937 1.949218-10.320313 6.007812-12.980469 11.421875-2.664062 5.417969-3.054687 11.546875-1.105468 17.257812 1.949218 5.710938 6.003906 10.320313 11.417968 12.980469zm3.335938-23.53125c.867187-1.769531 2.375-3.09375 4.242187-3.734375.78125-.265625 1.589844-.398437 2.390625-.398437 1.113282 0 2.21875.253906 3.246094.761718 1.773438.867188 3.097656 2.375 3.734375 4.242188.636719 1.867187.507813 3.867187-.359375 5.636718-.871094 1.773438-2.375 3.097657-4.246094 3.734376-1.867187.636718-3.867187.507812-5.636718-.359376-1.769532-.871093-3.097657-2.375-3.734376-4.242187-.636718-1.867187-.507812-3.871094.363282-5.640625zm0 0"/><path d="m211.753906 93.242188c-.003906 0-.003906 0 0 0-10.453125-6.78125-24.46875-3.792969-31.25 6.65625-3.28125 5.0625-4.398437 11.101562-3.140625 17.003906 1.257813 5.898437 4.738281 10.960937 9.800781 14.242187 3.707032 2.40625 7.933594 3.648438 12.25 3.648438 1.578126 0 3.171876-.167969 4.753907-.503907 5.898437-1.257812 10.960937-4.738281 14.242187-9.800781 3.285156-5.0625 4.402344-11.101562 3.144532-17.003906-1.261719-5.902344-4.738282-10.957031-9.800782-14.242187zm-6.101562 22.96875c-2.21875 3.417968-6.796875 4.394531-10.210938 2.175781-1.65625-1.070313-2.792968-2.726563-3.207031-4.652344-.410156-1.929687-.042969-3.902344 1.027344-5.558594 1.414062-2.175781 3.785156-3.363281 6.207031-3.363281 1.375 0 2.769531.382812 4.007812 1.1875 1.652344 1.074219 2.792969 2.726562 3.203126 4.65625.410156 1.929688.046874 3.902344-1.027344 5.554688zm0 0"/><path d="m321.5 135.359375c1.730469.40625 3.480469.609375 5.21875.609375 4.148438 0 8.226562-1.152344 11.84375-3.390625 5.132812-3.175781 8.722656-8.160156 10.101562-14.035156 1.382813-5.871094.398438-11.933594-2.777343-17.0625-3.175781-5.132813-8.160157-8.71875-14.035157-10.101563-5.875-1.382812-11.933593-.394531-17.066406 2.777344-5.128906 3.175781-8.71875 8.160156-10.101562 14.035156-1.382813 5.875-.394532 11.933594 2.78125 17.066406 3.175781 5.128907 8.160156 8.71875 14.035156 10.101563zm-2.011719-23.683594c.453125-1.917969 1.625-3.546875 3.300781-4.585937 1.183594-.730469 2.515626-1.109375 3.871094-1.109375.570313 0 1.140625.066406 1.707032.199219 1.921874.453124 3.546874 1.625 4.585937 3.300781 1.039063 1.679687 1.359375 3.65625.910156 5.578125-.453125 1.917968-1.625 3.546875-3.304687 4.585937-1.675782 1.039063-3.65625 1.363281-5.574219.910157-1.921875-.453126-3.550781-1.625-4.585937-3.304688-1.039063-1.671875-1.359376-3.652344-.910157-5.574219zm0 0"/><path d="m280.675781 102.5c2.546875.933594 5.15625 1.371094 7.722657 1.371094 9.222656 0 17.902343-5.691406 21.246093-14.84375 4.269531-11.699219-1.773437-24.695313-13.476562-28.96875-11.699219-4.269532-24.695313 1.773437-28.96875 13.472656-2.066407 5.671875-1.804688 11.804688.738281 17.277344 2.546875 5.46875 7.066406 9.625 12.738281 11.691406zm.808594-23.75c1.09375-2.992188 3.929687-4.855469 6.945313-4.855469.839843 0 1.691406.144531 2.523437.449219 3.824219 1.398438 5.800781 5.644531 4.40625 9.46875-1.398437 3.824219-5.644531 5.796875-9.46875 4.402344-1.855469-.675782-3.332031-2.035156-4.164063-3.820313-.832031-1.789062-.917968-3.792969-.242187-5.644531zm0 0"/></svg>