<svg viewBox="-89 0 512 512.00002" xmlns="http://www.w3.org/2000/svg"><path d="m280.109375 119.414062c3.871094 1.621094 8.332031-.207031 9.949219-4.082031l43.828125-104.792969c.984375-2.347656.726562-5.03125-.683594-7.148437s-3.785156-3.390625-6.328125-3.390625h-134.15625c-3.066406 0-5.832031 1.839844-7.015625 4.667969l-18.226563 43.582031-18.730468-43.644531c-1.199219-2.792969-3.945313-4.605469-6.988282-4.605469h-134.152343c-2.546875 0-4.921875 1.273438-6.332031 3.390625-1.410157 2.117187-1.667969 4.800781-.683594 7.148437l71.480468 170.90625c1.21875 2.914063 4.042969 4.671876 7.019532 4.671876.976562 0 1.972656-.191407 2.929687-.589844 3.875-1.621094 5.703125-6.074219 4.082031-9.949219l-67.074218-160.371094h117.71875l22.5625 52.570313-48.941406 117.019531h-11.640626c-13.652343 0-24.757812 11.105469-24.757812 24.757813v85.34375c-21.898438 23.074218-35.355469 54.234374-35.355469 88.476562 0 31.214844 11.320313 61.316406 31.875 84.761719 2.773438 3.15625 7.574219 3.472656 10.734375.703125 3.15625-2.769532 3.472656-7.574219.703125-10.730469-18.125-20.667969-28.105469-47.210937-28.105469-74.734375 0-62.535156 50.878907-113.414062 113.417969-113.414062 62.539063 0 113.417969 50.878906 113.417969 113.414062 0 62.539062-50.878906 113.417969-113.417969 113.417969-23.703125 0-46.40625-7.234375-65.648437-20.921875-3.425782-2.433594-8.171875-1.628906-10.605469 1.792968-2.433594 3.421876-1.632813 8.167969 1.789063 10.601563 21.835937 15.527344 47.585937 23.734375 74.464843 23.734375 70.925781 0 128.625-57.699219 128.625-128.625 0-34.242188-13.453125-65.398438-35.347656-88.46875v-85.351562c0-4.890626-1.476563-9.660157-4.144531-13.679688l22.859375-54.65625c1.621093-3.875-.207031-8.328125-4.082031-9.949219-3.871094-1.621093-8.328126.207031-9.949219 4.082031l-31.636719 75.644532c-2.617188 6.257812-8.691406 10.300781-15.46875 10.300781h-99.4375c-2.277344 0-3.5-1.46875-3.917969-2.101563-.421875-.628906-1.304687-2.324218-.425781-4.421874l83.46875-199.566407h117.667969l-39.421875 94.253907c-1.621094 3.875.207031 8.332031 4.082031 9.953124zm-161.453125 117.089844h99.4375c11.242188 0 21.460938-5.835937 27.214844-15.199218v59.925781c-21.664063-16.597657-48.730469-26.480469-78.070313-26.480469-29.332031 0-56.398437 9.878906-78.0625 26.476562v-71.671874c0-5.265626 4.285157-9.550782 9.550781-9.550782h5.28125l-3.722656 8.898438c-2.578125 6.164062-1.90625 13.160156 1.792969 18.71875 3.699219 5.5625 9.898437 8.882812 16.578125 8.882812zm0 0"/><path d="m109.28125 441.335938c3.332031 14.4375 16.386719 25.300781 31.726562 25.300781 17.953126 0 32.558594-14.605469 32.558594-32.558594v-10.980469l33.394532-33.394531h10.980468c17.953125 0 32.558594-14.605469 32.558594-32.558594 0-15.339843-10.867188-28.390625-25.300781-31.726562-3.335938-14.4375-16.386719-25.300781-31.726563-25.300781-17.953125 0-32.558594 14.605468-32.558594 32.558593v10.980469l-33.394531 33.394531h-10.980469c-17.953124 0-32.558593 14.605469-32.558593 32.558594-.003907 15.335937 10.863281 28.390625 25.300781 31.726563zm7.257812-49.078126h14.128907c2.015625 0 3.949219-.800781 5.378906-2.226562l37.847656-37.847656c1.425781-1.425782 2.226563-3.363282 2.226563-5.378906v-14.128907c0-9.566406 7.785156-17.351562 17.351562-17.351562 9.386719 0 17.164063 7.632812 17.34375 17.015625.074219 4.089844 3.371094 7.386718 7.457032 7.460937 9.382812.175781 17.019531 7.957031 17.019531 17.339844 0 9.570313-7.785157 17.351563-17.351563 17.351563h-14.132812c-2.015625 0-3.949219.800781-5.375 2.226562l-37.851563 37.851562c-1.421875 1.425782-2.226562 3.359376-2.226562 5.375v14.132813c0 9.566406-7.78125 17.351563-17.347657 17.351563-9.386718 0-17.167968-7.636719-17.34375-17.019532-.074218-4.085937-3.371093-7.382812-7.457031-7.460937-9.386719-.175781-17.019531-7.953125-17.019531-17.339844 0-9.566406 7.785156-17.351563 17.351562-17.351563zm0 0"/></svg>