<svg viewBox="0 0 512 512.00069" xmlns="http://www.w3.org/2000/svg"><path d="m169.140625 40.605469c-24.203125 18.449219-47.28125 38.613281-68.601563 59.933593-21.316406 21.316407-41.480468 44.398438-59.933593 68.601563-7.117188 9.335937-6.839844 22.621094.65625 31.582031 56.601562 67.675782 119.613281 130.6875 187.289062 187.289063 4.625 3.867187 10.398438 5.8125 16.1875 5.8125 5.433594 0 10.878907-1.710938 15.394531-5.15625 24.203126-18.453125 47.285157-38.617188 68.601563-59.933594s41.480469-44.398437 59.933594-68.601563c7.117187-9.335937 6.839843-22.617187-.65625-31.582031-56.601563-67.679687-119.617188-130.691406-187.285157-187.285156-8.96875-7.5-22.25-7.777344-31.585937-.660156zm206.84375 198.003906c2.839844 3.398437 2.929687 8.453125.210937 12.019531-18.027343 23.648438-37.726562 46.195313-58.550781 67.019532-20.820312 20.820312-43.371093 40.519531-67.015625 58.550781-3.566406 2.71875-8.621094 2.625-12.019531-.21875-66.964844-56.003907-129.316406-118.351563-185.320313-185.316407-2.839843-3.398437-2.929687-8.453124-.210937-12.019531 18.027344-23.644531 37.726563-46.195312 58.550781-67.019531 20.824219-20.824219 43.371094-40.523438 67.015625-58.546875 1.734375-1.324219 3.820313-1.980469 5.898438-1.980469 2.195312 0 4.378906.734375 6.121093 2.191406 66.960938 56.003907 129.3125 118.355469 185.320313 185.320313zm0 0"/><path d="m89.566406 182.074219c-1.324218-3.152344-4.589844-5.136719-8.003906-4.804688-3.128906.304688-5.816406 2.527344-6.734375 5.523438-2.09375 6.839843 5.683594 12.660156 11.691406 8.894531 3.167969-1.984375 4.511719-6.160156 3.046875-9.613281zm0 0"/><path d="m192.40625 295.15625c-2.242188 2.238281-2.910156 5.710938-1.664062 8.621094 1.351562 3.167968 4.734374 5.117187 8.15625 4.703125 3.359374-.40625 6.152343-3.03125 6.765624-6.359375.582032-3.148438-.863281-6.402344-3.582031-8.089844-3.058593-1.894531-7.136719-1.414062-9.675781 1.125zm0 0"/><path d="m169.285156 272.023438c-2.242187 2.242187-2.914062 5.714843-1.667968 8.632812 1.355468 3.164062 4.738281 5.121094 8.15625 4.703125 7.210937-.882813 9.316406-10.644531 3.175781-14.460937-3.050781-1.894532-7.128907-1.410157-9.664063 1.125zm0 0"/><path d="m215.53125 318.28125c-2.238281 2.242188-2.90625 5.710938-1.664062 8.621094 1.355468 3.175781 4.738281 5.117187 8.160156 4.703125 3.359375-.410157 6.148437-3.039063 6.761718-6.359375.578126-3.144532-.867187-6.40625-3.585937-8.089844-3.058594-1.894531-7.132813-1.414062-9.671875 1.125zm0 0"/><path d="m123.027344 225.78125c-2.238282 2.238281-2.914063 5.710938-1.664063 8.625 1.355469 3.167969 4.746094 5.109375 8.164063 4.695312 3.355468-.40625 6.148437-3.03125 6.757812-6.351562.582032-3.148438-.863281-6.410156-3.582031-8.097656-3.058594-1.894532-7.132813-1.414063-9.675781 1.128906zm0 0"/><path d="m99.90625 202.65625c-2.242188 2.242188-2.914062 5.707031-1.667969 8.621094 1.355469 3.167968 4.738281 5.117187 8.15625 4.703125 3.359375-.40625 6.152344-3.03125 6.769531-6.359375.578126-3.144532-.867187-6.402344-3.585937-8.089844-3.054687-1.894531-7.132813-1.414062-9.671875 1.125zm0 0"/><path d="m146.164062 248.902344c-2.242187 2.242187-2.917968 5.714844-1.667968 8.628906 1.355468 3.171875 4.734375 5.105469 8.15625 4.695312 7.214844-.875 9.316406-10.640624 3.171875-14.449218-3.054688-1.894532-7.125-1.414063-9.660157 1.125zm0 0"/><path d="m251.445312 343.945312c-2.613281-6.183593-11.675781-6.367187-14.410156-.175781-1.382812 3.140625-.523437 6.949219 2.105469 9.164063 2.425781 2.042968 5.957031 2.421875 8.757813.925781 3.554687-1.902344 5-6.203125 3.546874-9.914063zm0 0"/><path d="m115.25 156.390625c-1.226562-2.964844-4.21875-4.917969-7.429688-4.839844-3.351562.082031-6.324218 2.359375-7.308593 5.558594-.976563 3.1875.257812 6.773437 2.988281 8.683594 2.632812 1.839843 6.183594 1.882812 8.867188.109375 3.0625-2.023438 4.316406-6.125 2.882812-9.511719zm0 0"/><path d="m218.089844 280.554688c2.503906 2.488281 6.46875 3.015624 9.515625 1.21875 2.820312-1.65625 4.335937-4.976563 3.742187-8.191407-1.269531-6.894531-10.695312-8.660156-14.378906-2.699219-1.886719 3.054688-1.414062 7.128907 1.121094 9.671876zm0 0"/><path d="m148.722656 200.097656c-2.246094 2.234375-2.914062 5.707032-1.667968 8.617188 1.355468 3.171875 4.734374 5.117187 8.15625 4.703125 7.214843-.871094 9.316406-10.636719 3.179687-14.445313-3.054687-1.898437-7.132813-1.417968-9.667969 1.125zm0 0"/><path d="m194.96875 257.433594c2.488281 2.488281 6.46875 2.992187 9.507812 1.214844 2.824219-1.648438 4.339844-4.976563 3.75-8.1875-1.273437-6.910157-10.6875-8.660157-14.382812-2.699219-1.894531 3.054687-1.417969 7.128906 1.125 9.671875zm0 0"/><path d="m171.84375 223.21875c-2.238281 2.242188-2.910156 5.714844-1.664062 8.632812 1.355468 3.167969 4.734374 5.105469 8.15625 4.691407 7.214843-.875 9.316406-10.636719 3.175781-14.449219-3.054688-1.898438-7.128907-1.414062-9.667969 1.125zm0 0"/><path d="m125.589844 176.960938c-2.238282 2.246093-2.902344 5.71875-1.660156 8.632812 1.351562 3.175781 4.738281 5.117188 8.160156 4.703125 7.214844-.871094 9.316406-10.652344 3.171875-14.457031-3.054688-1.898438-7.132813-1.417969-9.671875 1.121094zm0 0"/><path d="m241.222656 303.675781c2.484375 2.5 6.472656 3.011719 9.507813 1.226563 2.816406-1.660156 4.332031-4.988282 3.742187-8.199219-1.273437-6.90625-10.679687-8.660156-14.375-2.699219-1.894531 3.058594-1.414062 7.132813 1.125 9.671875zm0 0"/><path d="m262.203125 322.796875c1.4375 6.933594 10.984375 8.539063 14.503906 2.324219 1.746094-3.085938 1.15625-7.050782-1.390625-9.507813-2.3125-2.238281-5.84375-2.789062-8.75-1.4375-3.226562 1.5-5.074218 5.125-4.363281 8.621094zm0 0"/><path d="m138.050781 127.183594c-2.945312-1.941406-6.910156-1.691406-9.5625.65625-2.292969 2.035156-3.183593 5.339844-2.246093 8.25 1.027343 3.207031 4.082031 5.453125 7.460937 5.445312 3.378906-.007812 6.421875-2.234375 7.460937-5.445312 1.054688-3.277344-.230468-7.007813-3.113281-8.90625zm0 0"/><path d="m272.449219 280.292969c3.410156 0 6.519531-2.308594 7.503906-5.578125.917969-3.054688-.148437-6.4375-2.648437-8.421875-5.445313-4.324219-13.613282.441406-12.609376 7.300781.554688 3.789062 3.914063 6.699219 7.753907 6.699219zm0 0"/><path d="m151.285156 151.277344c-2.242187 2.242187-2.914062 5.714844-1.667968 8.632812 1.355468 3.171875 4.734374 5.105469 8.15625 4.691406 7.214843-.871093 9.316406-10.632812 3.175781-14.449218-3.050781-1.894532-7.132813-1.417969-9.664063 1.125zm0 0"/><path d="m203.070312 210.914062c3.414063 0 6.527344-2.304687 7.511719-5.578124.921875-3.054688-.144531-6.433594-2.644531-8.410157-5.445312-4.308593-13.628906.421875-12.621094 7.289063.554688 3.792968 3.917969 6.699218 7.753906 6.699218zm0 0"/><path d="m249.324219 257.160156c3.414062 0 6.519531-2.296875 7.503906-5.566406.921875-3.054688-.144531-6.441406-2.648437-8.421875-5.449219-4.316406-13.613282.4375-12.609376 7.296875.558594 3.800781 3.917969 6.691406 7.753907 6.691406zm0 0"/><path d="m226.203125 234.039062c3.410156 0 6.519531-2.296874 7.503906-5.570312.917969-3.054688-.148437-6.441406-2.648437-8.421875-5.457032-4.316406-13.617188.433594-12.613282 7.300781.558594 3.804688 3.914063 6.691406 7.757813 6.691406zm0 0"/><path d="m174.40625 174.402344c-2.242188 2.242187-2.914062 5.714844-1.667969 8.628906 1.355469 3.171875 4.734375 5.117188 8.15625 4.703125 7.210938-.871094 9.332031-10.648437 3.183594-14.460937-3.054687-1.890626-7.132813-1.414063-9.671875 1.128906zm0 0"/><path d="m295.570312 303.417969c7.351563 0 10.59375-9.644531 4.734376-14.089844-5.84375-4.441406-14.234376 1.273437-12.289063 8.328125.925781 3.351562 4.070313 5.761719 7.554687 5.761719zm0 0"/><path d="m167.226562 108.011719c0-6.890625-8.714843-10.425781-13.496093-5.421875-2.269531 2.375-2.828125 6-1.347657 8.945312 1.527344 3.023438 4.941407 4.773438 8.292969 4.207032 3.722657-.628907 6.550781-3.941407 6.550781-7.730469zm0 0"/><path d="m251.886719 208.351562c3.414062 0 6.519531-2.304687 7.503906-5.574218.917969-3.058594-.148437-6.433594-2.648437-8.414063-5.449219-4.3125-13.613282.425781-12.613282 7.289063.558594 3.800781 3.914063 6.699218 7.757813 6.699218zm0 0"/><path d="m298.132812 254.597656c3.417969 0 6.523438-2.289062 7.507813-5.566406.914063-3.050781-.144531-6.441406-2.640625-8.421875-5.449219-4.316406-13.628906.433594-12.621094 7.300781.554688 3.796875 3.914063 6.6875 7.753906 6.6875zm0 0"/><path d="m205.628906 162.109375c3.414063 0 6.53125-2.308594 7.515625-5.578125.921875-3.054688-.148437-6.441406-2.648437-8.421875-5.449219-4.316406-13.625.433594-12.621094 7.296875.558594 3.792969 3.917969 6.703125 7.753906 6.703125zm0 0"/><path d="m228.761719 185.230469c3.414062 0 6.519531-2.308594 7.507812-5.578125.917969-3.050782-.144531-6.445313-2.648437-8.417969-5.453125-4.300781-13.628906.425781-12.621094 7.296875.554688 3.796875 3.921875 6.699219 7.761719 6.699219zm0 0"/><path d="m275.007812 231.476562c3.414063 0 6.519532-2.296874 7.503907-5.566406.921875-3.054687-.148438-6.441406-2.644531-8.421875-5.445313-4.324219-13.617188.441407-12.613282 7.296875.558594 3.796875 3.917969 6.691406 7.753906 6.691406zm0 0"/><path d="m188.046875 125.59375c-4.921875-4.941406-13.625-1.125-13.371094 5.832031.121094 3.335938 2.425781 6.308594 5.636719 7.238281 3.34375.96875 7.023438-.4375 8.859375-3.394531 1.894531-3.058593 1.414063-7.132812-1.125-9.675781zm0 0"/><path d="m314.023438 272.882812c2.609374 6.335938 11.863281 6.324219 14.476562 0 1.304688-3.15625.371094-6.921874-2.289062-9.074218-2.390626-1.933594-5.769532-2.292969-8.507813-.902344-3.582031 1.816406-5.253906 6.261719-3.679687 9.976562zm0 0"/><path d="m189.417969 75.804688c-2.820313-1.898438-6.703125-1.691407-9.320313.464843-2.53125 2.085938-3.503906 5.609375-2.410156 8.703125 1.070312 3.015625 3.992188 5.109375 7.1875 5.191406 3.199219.082032 6.21875-1.878906 7.4375-4.835937 1.40625-3.417969.179688-7.472656-2.894531-9.523437zm0 0"/><path d="m208.191406 113.289062c3.414063 0 6.527344-2.296874 7.515625-5.570312.921875-3.054688-.148437-6.4375-2.648437-8.417969-5.449219-4.3125-13.628906.429688-12.621094 7.296875.554688 3.792969 3.921875 6.691406 7.753906 6.691406zm0 0"/><path d="m231.324219 136.414062c3.414062 0 6.519531-2.296874 7.503906-5.566406.917969-3.054687-.148437-6.441406-2.648437-8.421875-5.449219-4.316406-13.628907.429688-12.621094 7.296875.558594 3.800782 3.925781 6.691406 7.765625 6.691406zm0 0"/><path d="m277.570312 182.671875c3.414063 0 6.519532-2.3125 7.503907-5.578125.917969-3.054688-.144531-6.445312-2.648438-8.421875-5.449219-4.300781-13.617187.433594-12.609375 7.296875.554688 3.792969 3.917969 6.703125 7.753906 6.703125zm0 0"/><path d="m323.816406 228.914062c3.414063 0 6.527344-2.289062 7.515625-5.566406.917969-3.054687-.148437-6.441406-2.648437-8.421875-5.453125-4.316406-13.628906.433594-12.621094 7.296875.554688 3.796875 3.914062 6.691406 7.753906 6.691406zm0 0"/><path d="m300.695312 205.792969c3.414063 0 6.523438-2.304688 7.511719-5.574219.921875-3.054688-.148437-6.4375-2.648437-8.417969-5.445313-4.308593-13.628906.429688-12.621094 7.292969.558594 3.796875 3.917969 6.699219 7.757812 6.699219zm0 0"/><path d="m254.445312 159.546875c3.414063 0 6.519532-2.3125 7.503907-5.578125.921875-3.054688-.144531-6.441406-2.648438-8.421875-5.453125-4.320313-13.613281.433594-12.613281 7.296875.558594 3.800781 3.917969 6.703125 7.757812 6.703125zm0 0"/><path d="m339.703125 247.199219c1.25 3.011719 4.359375 5.007812 7.628906 4.839843 3.277344-.167968 6.152344-2.433593 7.109375-5.558593.898438-2.933594-.050781-6.210938-2.375-8.210938-2.699218-2.316406-6.722656-2.515625-9.636718-.472656-2.984376 2.09375-4.066407 6.042969-2.726563 9.402344zm0 0"/><path d="m504.714844 444.625c-9.523438-23.410156-27.480469-49.011719-50.554688-72.085938-22.820312-22.820312-48.121094-40.585937-71.0625-50.128906 11.699219-13.199218 22.9375-26.820312 33.648438-40.867187 17.300781-22.691407 16.621094-53.796875-1.652344-75.644531-47.347656-56.617188-99.203125-110.191407-154.128906-159.234376-3.230469-2.882812-8.183594-2.601562-11.066406.628907-2.886719 3.230469-2.605469 8.183593.625 11.070312 54.355468 48.535157 105.679687 101.558594 152.546874 157.59375 13.539063 16.191407 14.035157 39.25 1.207032 56.078125-37.957032 49.789063-82.453125 94.285156-132.242188 132.242188-16.828125 12.828125-39.886718 12.332031-56.078125-1.207032-68.5625-57.34375-132.40625-121.1875-189.75-189.753906-13.539062-16.191406-14.039062-39.25-1.210937-56.078125 37.960937-49.792969 82.453125-94.285156 132.242187-132.242187 16.828125-12.828125 39.886719-12.328125 56.078125 1.210937 6.371094 5.328125 12.777344 10.773438 19.042969 16.191407 3.273437 2.832031 8.226563 2.472656 11.058594-.804688 2.832031-3.273438 2.472656-8.226562-.804688-11.058594-6.332031-5.46875-12.800781-10.972656-19.238281-16.355468-21.847656-18.273438-52.949219-18.949219-75.640625-1.652344-50.90625 38.808594-96.394531 84.296875-135.207031 135.207031-17.296875 22.691406-16.617188 53.796875 1.648437 75.640625 57.945313 69.28125 122.449219 133.785156 191.722657 191.722656 11.28125 9.433594 25.027343 14.175782 38.816406 14.175782 12.910156 0 25.851562-4.160157 36.824218-12.527344 14.050782-10.710938 27.675782-21.949219 40.871094-33.652344 9.542969 22.941406 27.308594 48.238281 50.136719 71.0625 23.066406 23.074219 48.664063 41.027344 72.074219 50.554688 11.949218 4.867187 22.804687 7.289062 32.1875 7.289062 10.691406 0 19.46875-3.152344 25.75-9.429688 11.796875-11.792968 12.5625-32.371093 2.15625-57.945312zm-13.242188 46.855469c-6.945312 6.941406-21.867187 6.472656-40.941406-1.289063-21.515625-8.757812-45.273438-25.492187-66.898438-47.121094-23.269531-23.269531-40.8125-48.953124-48.789062-71.25 12.773438-11.871093 25.105469-24.207031 36.976562-36.980468 22.304688 7.980468 47.988282 25.523437 71.253907 48.789062 21.628906 21.628906 38.359375 45.390625 47.117187 66.90625 7.761719 19.074219 8.230469 34 1.28125 40.945313zm0 0"/></svg>