<svg viewBox="-31 0 511 511.99992" xmlns="http://www.w3.org/2000/svg"><path d="m442.605469 496.773438h-3.046875v-156.824219h3.046875c4.203125 0 7.613281-3.40625 7.613281-7.613281 0-4.203126-3.410156-7.613282-7.613281-7.613282h-28.9375l.753906-26.191406 29.082031-30.792969c2.007813-2.125 2.621094-5.214843 1.574219-7.945312l-15.128906-39.570313 15.128906-39.558594c1.046875-2.730468.433594-5.820312-1.574219-7.945312l-29.082031-30.800781-1.226563-42.34375c-.082031-2.921875-1.835937-5.539063-4.503906-6.730469l-38.667968-17.28125-17.285157-38.667969c-1.191406-2.667969-3.808593-4.417969-6.730469-4.5l-42.34375-1.226562-30.789062-29.089844c-2.128906-2.0078125-5.21875-2.621094-7.949219-1.574219l-39.566406 15.136719-39.558594-15.136719c-2.730469-1.046875-5.820312-.4335935-7.949219 1.574219l-30.800781 29.089844-42.34375 1.226562c-2.921875.085938-5.539062 1.835938-6.730469 4.503907l-17.285156 38.667968-38.671875 17.285156c-2.667969 1.195313-4.417969 3.808594-4.503906 6.730469l-1.222656 42.332031-29.082031 30.804688c-2.007813 2.125-2.621094 5.214844-1.574219 7.945312l15.128906 39.558594-15.128906 39.570313c-1.046875 2.730469-.433594 5.820312 1.574219 7.945312l29.082031 30.800781.753906 26.183594h-28.933594c-4.207031 0-7.613281 3.410156-7.613281 7.613282 0 4.207031 3.40625 7.613281 7.613281 7.613281h3.042969v109.625c0 4.203125 3.410156 7.613281 7.613281 7.613281 4.207031 0 7.613281-3.410156 7.613281-7.613281v-109.625h397.949219v156.824219h-397.949219v-21.820313c0-4.203125-3.40625-7.613281-7.613281-7.613281-4.203125 0-7.613281 3.410156-7.613281 7.613281v21.820313h-3.042969c-4.207031 0-7.613281 3.410156-7.613281 7.613281s3.40625 7.613281 7.613281 7.613281h434.492188c4.203125 0 7.613281-3.410156 7.613281-7.613281s-3.410156-7.613281-7.613281-7.613281zm-391.175781-201.570313c-.054688-1.867187-.792969-3.652344-2.078126-5.007813l-27.785156-29.433593 14.460938-37.820313c.667968-1.75.667968-3.6875 0-5.4375l-14.460938-37.8125 27.785156-29.429687c1.285157-1.359375 2.023438-3.140625 2.078126-5.007813l1.167968-40.453125 36.960938-16.523437c1.710937-.765625 3.078125-2.132813 3.84375-3.84375l16.523437-36.957032 40.460938-1.171874c1.867187-.054688 3.648437-.792969 5.007812-2.078126l29.429688-27.792968 37.808593 14.46875c1.753907.671875 3.691407.671875 5.441407 0l37.824219-14.46875 29.417968 27.792968c1.359375 1.285157 3.140625 2.023438 5.007813 2.078126l40.464843 1.171874 16.523438 36.957032c.761719 1.710937 2.132812 3.082031 3.84375 3.847656l36.957031 16.511719 1.171875 40.464843c.054688 1.867188.792969 3.648438 2.074219 5.003907l27.789063 29.433593-14.460938 37.808594c-.671875 1.75-.671875 3.6875 0 5.441406l14.460938 37.820313-27.789063 29.417969c-1.28125 1.359375-2.019531 3.140625-2.074219 5.011718l-.851562 29.53125h-346.152344zm0 0"/><path d="m338.359375 122.492188c-3.261719 2.65625-3.75 7.449218-1.09375 10.710937 20.859375 25.609375 32.347656 57.9375 32.347656 91.03125 0 28.019531-8.042969 55.191406-23.261719 78.574219-2.292968 3.527344-1.296874 8.242187 2.226563 10.535156 1.285156.835938 2.722656 1.234375 4.144531 1.234375 2.492188 0 4.929688-1.222656 6.390625-3.460937 16.828125-25.867188 25.726563-55.910157 25.726563-86.882813 0-36.589844-12.703125-72.332031-35.769532-100.648437-2.65625-3.257813-7.453124-3.75-10.710937-1.09375zm0 0"/><path d="m324.429688 99.257812c-28.4375-22.566406-62.695313-34.496093-99.074219-34.496093-87.9375 0-159.480469 71.539062-159.480469 159.472656 0 30.976563 8.898438 61.015625 25.726562 86.882813 1.460938 2.242187 3.902344 3.460937 6.390626 3.460937 1.421874 0 2.863281-.398437 4.144531-1.234375 3.523437-2.292969 4.523437-7.007812 2.226562-10.535156-15.214843-23.382813-23.261719-50.554688-23.261719-78.574219 0-79.539063 64.710938-144.246094 144.253907-144.246094 32.90625 0 63.890625 10.789063 89.609375 31.195313 3.289062 2.613281 8.082031 2.0625 10.695312-1.230469 2.613282-3.292969 2.0625-8.082031-1.230468-10.695313zm0 0"/><path d="m181.660156 443.886719c0 24.097656 19.601563 43.699219 43.699219 43.699219 24.09375 0 43.699219-19.601563 43.699219-43.699219 0-24.09375-19.605469-43.695313-43.699219-43.695313-24.097656 0-43.699219 19.601563-43.699219 43.695313zm72.171875 0c0 15.699219-12.773437 28.472656-28.472656 28.472656s-28.472656-12.773437-28.472656-28.472656 12.773437-28.472657 28.472656-28.472657 28.472656 12.773438 28.472656 28.472657zm0 0"/><path d="m221.945312 364.453125c-1.949218-5.714844-6.011718-10.332031-11.433593-12.996094-5.425781-2.664062-11.5625-3.054687-17.277344-1.105469-11.804687 4.027344-18.128906 16.90625-14.101563 28.710938 3.203126 9.394531 12.011719 15.316406 21.421876 15.316406 2.417968 0 4.875-.390625 7.285156-1.210937 5.71875-1.953125 10.335937-6.011719 13-11.4375 2.664062-5.421875 3.058594-11.558594 1.105468-17.277344zm-14.773437 10.5625c-.867187 1.773437-2.378906 3.101563-4.246094 3.738281-3.855469 1.316406-8.066406-.75-9.382812-4.609375-1.316407-3.855469.75-8.066406 4.609375-9.382812.78125-.265625 1.589844-.398438 2.390625-.398438 1.117187 0 2.222656.253907 3.253906.761719 1.773437.867188 3.101563 2.378906 3.738281 4.246094.636719 1.867187.507813 3.875-.363281 5.644531zm0 0"/><path d="m173.980469 384.195312c-10.460938-6.785156-24.496094-3.796874-31.285157 6.667969-6.785156 10.460938-3.796874 24.496094 6.667969 31.285157 3.710938 2.40625 7.941407 3.648437 12.261719 3.648437 1.582031 0 3.175781-.164063 4.761719-.503906 5.90625-1.257813 10.972656-4.742188 14.261719-9.8125 3.285156-5.066407 4.40625-11.113281 3.144531-17.023438-1.257813-5.910156-4.742188-10.972656-9.8125-14.261719zm-6.109375 23c-1.074219 1.65625-2.726563 2.796876-4.660156 3.207032-1.929688.414062-3.90625.046875-5.5625-1.027344-3.417969-2.21875-4.394532-6.808594-2.179688-10.226562 1.417969-2.179688 3.792969-3.367188 6.214844-3.367188 1.378906 0 2.769531.382812 4.011718 1.191406 1.65625 1.074219 2.796876 2.726563 3.207032 4.660156.410156 1.929688.046875 3.90625-1.03125 5.5625zm0 0"/><path d="m269.8125 416.25c3.175781 5.140625 8.167969 8.730469 14.050781 10.113281 1.734375.410157 3.484375.613281 5.222657.613281 4.15625 0 8.238281-1.15625 11.863281-3.394531 5.136719-3.179687 8.726562-8.171875 10.113281-14.050781 1.382812-5.882812.394531-11.949219-2.785156-17.085938-6.5625-10.605468-20.53125-13.894531-31.136719-7.332031-5.136719 3.179688-8.730469 8.171875-10.113281 14.050781-1.382813 5.882813-.394532 11.949219 2.785156 17.085938zm12.035156-13.597656c.453125-1.917969 1.628906-3.550782 3.308594-4.589844 1.207031-.746094 2.550781-1.105469 3.875-1.105469 2.476562 0 4.902344 1.246094 6.300781 3.5 1.035157 1.679688 1.359375 3.664063.90625 5.585938s-1.625 3.550781-3.304687 4.589843c-1.679688 1.039063-3.660156 1.363282-5.585938.910157-1.917968-.453125-3.550781-1.625-4.589844-3.304688-1.039062-1.679687-1.363281-3.660156-.910156-5.585937zm0 0"/><path d="m258.5 350.976562c-5.671875-2.074218-11.816406-1.808593-17.292969.738282-5.480469 2.546875-9.636719 7.074218-11.710937 12.75-4.277344 11.71875 1.777344 24.726562 13.492187 29.003906 2.53125.925781 5.152344 1.382812 7.769531 1.382812 3.25 0 6.492188-.707031 9.523438-2.121093 5.480469-2.546875 9.636719-7.074219 11.710938-12.75 2.070312-5.675781 1.808593-11.816407-.738282-17.296875-2.550781-5.476563-7.078125-9.636719-12.753906-11.707032zm-.8125 23.78125c-1.398438 3.828126-5.648438 5.804688-9.480469 4.410157-3.828125-1.398438-5.804687-5.652344-4.40625-9.480469.675781-1.855469 2.035157-3.335938 3.824219-4.167969.992188-.460937 2.050781-.691406 3.113281-.691406.855469 0 1.714844.148437 2.539063.449219 1.855468.679687 3.335937 2.039062 4.167968 3.828125.832032 1.789062.917969 3.796875.242188 5.652343zm0 0"/></svg>