<svg viewBox="-27 0 512 512.00117" xmlns="http://www.w3.org/2000/svg"><path d="m117.246094 141.875c11.679687 12.980469 25.855468 19.925781 40.410156 19.925781 1.753906 0 3.515625-.101562 5.273438-.304687 16.375-1.890625 30.585937-12.375 40.011718-29.519532 8.964844-16.296874 12.5625-36.875 10.128906-57.941406-2.433593-21.066406-10.625-40.285156-23.070312-54.109375-13.085938-14.542969-29.316406-21.511719-45.6875-19.621093-16.058594 1.855468-30.09375 12.027343-39.523438 28.644531-2.066406 3.644531-.789062 8.273437 2.855469 10.339843 3.640625 2.066407 8.269531.789063 10.335938-2.855468 6.980469-12.296875 16.949219-19.777344 28.074219-21.0625 11.355468-1.3125 22.960937 3.910156 32.671874 14.699218 10.355469 11.507813 17.203126 27.738282 19.277344 45.703126 2.074219 17.964843-.890625 35.332031-8.351562 48.894531-6.992188 12.722656-17.101563 20.449219-28.460938 21.761719-11.355468 1.3125-22.960937-3.90625-32.671875-14.699219-10.355469-11.507813-17.199219-27.738281-19.273437-45.703125-1.226563-10.617188-.707032-20.949219 1.542968-30.714844.941407-4.082031-1.601562-8.152344-5.683593-9.09375s-8.152344 1.605469-9.09375 5.6875c-2.644531 11.453125-3.261719 23.519531-1.835938 35.859375 2.433594 21.066406 10.625 40.285156 23.070313 54.109375zm0 0"/><path d="m295.402344 161.496094c1.761718.203125 3.523437.304687 5.277344.304687 14.550781 0 28.730468-6.945312 40.410156-19.925781 12.441406-13.824219 20.632812-33.042969 23.066406-54.109375 2.433594-21.0625-1.160156-41.644531-10.125-57.941406-9.425781-17.144531-23.636719-27.628907-40.011719-29.519531-16.367187-1.890626-32.597656 5.078124-45.6875 19.621093-12.441406 13.824219-20.632812 33.042969-23.066406 54.109375s1.160156 41.644532 10.125 57.941406c9.429687 17.144532 23.636719 27.628907 40.011719 29.519532zm-35.070313-85.722656c2.074219-17.964844 8.921875-34.195313 19.277344-45.703126 8.726563-9.699218 18.980469-14.898437 29.21875-14.898437 1.152344 0 2.304687.066406 3.453125.199219 11.359375 1.3125 21.464844 9.039062 28.460938 21.761718 7.457031 13.566407 10.425781 30.929688 8.347656 48.894532-2.074219 17.964844-8.917969 34.195312-19.273438 45.703125-9.710937 10.792969-21.316406 16.015625-32.671875 14.699219-11.359375-1.308594-21.46875-9.039063-28.464843-21.757813-7.457032-13.566406-10.421876-30.929687-8.347657-48.898437zm0 0"/><path d="m73.199219 263.46875c7.5625 0 14.742187-1.851562 21.160156-5.558594 12.734375-7.351562 20.648437-20.9375 22.285156-38.257812 1.542969-16.355469-2.753906-34.285156-12.109375-50.484375-9.351562-16.199219-22.726562-28.886719-37.667968-35.726563-15.8125-7.242187-31.535157-7.183594-44.273438.167969-12.734375 7.355469-20.648438 20.941406-22.285156 38.257813-1.542969 16.359374 2.753906 34.289062 12.105468 50.484374 9.355469 16.199219 22.730469 28.886719 37.671876 35.730469 7.84375 3.59375 15.664062 5.386719 23.113281 5.386719zm-47.648438-48.699219c-7.792969-13.496093-11.394531-28.222656-10.140625-41.476562 1.160156-12.289063 6.402344-21.71875 14.765625-26.546875 4.046875-2.335938 8.65625-3.5 13.609375-3.5 5.289063 0 10.972656 1.332031 16.769532 3.984375 12.101562 5.542969 23.054687 16.027343 30.847656 29.523437 7.792968 13.492188 11.394531 28.222656 10.140625 41.476563-1.160157 12.289062-6.40625 21.71875-14.769531 26.546875-8.359376 4.828125-19.148438 4.65625-30.375-.484375-12.101563-5.542969-23.054688-16.027344-30.847657-29.523438zm0 0"/><path d="m458.023438 171.867188c-1.632813-17.316407-9.546876-30.902344-22.285157-38.253907-12.734375-7.355469-28.457031-7.414062-44.273437-.171875-14.9375 6.839844-28.316406 19.53125-37.667969 35.726563-9.351563 16.199219-13.652344 34.128906-12.105469 50.488281 1.632813 17.316406 9.546875 30.902344 22.285156 38.253906 6.417969 3.707032 13.59375 5.5625 21.160157 5.5625 7.445312 0 15.269531-1.796875 23.113281-5.390625 14.9375-6.839843 28.316406-19.53125 37.667969-35.726562 9.351562-16.199219 13.652343-34.128907 12.105469-50.488281zm-25.238282 42.902343c-7.792968 13.496094-18.75 23.980469-30.851562 29.523438-11.222656 5.140625-22.011719 5.3125-30.375.484375-8.363282-4.828125-13.609375-14.257813-14.769532-26.550782-1.25-13.25 2.351563-27.980468 10.144532-41.476562 7.789062-13.492188 18.746094-23.976562 30.847656-29.519531 11.222656-5.140625 22.011719-5.3125 30.375-.484375s13.609375 14.257812 14.769531 26.546875c1.253907 13.253906-2.351562 27.980469-10.140625 41.476562zm0 0"/><path d="m356.894531 301.714844c-10.730469-5.09375-17.351562-15.59375-17.28125-27.410156.003907-1.050782-.003906-2.105469-.027343-3.164063-.355469-16.171875-4.171876-31.714844-11.339844-46.191406-1.855469-3.75-6.40625-5.289063-10.160156-3.429688-3.753907 1.855469-5.289063 6.40625-3.429688 10.160157 6.171875 12.46875 9.460938 25.859374 9.769531 39.796874.019531.914063.027344 1.828126.019531 2.738282-.105468 17.5 10.082032 33.675781 25.949219 41.203125 33.109375 15.703125 54.5 49.511719 54.5 86.132812 0 25.34375-9.734375 49.15625-27.410156 67.054688-17.679687 17.894531-41.367187 27.917969-66.703125 28.222656-11.285156.148437-22.351562-1.679687-32.882812-5.398437-31.425782-11.089844-66.039063-11.089844-97.46875 0-10.53125 3.71875-21.589844 5.535156-32.882813 5.398437-25.335937-.304687-49.023437-10.328125-66.703125-28.222656-17.675781-17.898438-27.410156-41.710938-27.410156-67.054688 0-36.621093 21.394531-70.429687 54.5-86.132812 15.886718-7.535157 26.074218-23.671875 25.949218-41.097657l-.003906-.691406c0-25.214844 9.757813-48.988281 27.46875-66.933594 17.695313-17.925781 41.300782-27.992187 66.46875-28.339843 27.554688-.414063 54 11.324219 72.511719 32.109375 2.785156 3.128906 7.578125 3.40625 10.707031.621094 3.125-2.785157 3.40625-7.578126.621094-10.707032-21.4375-24.078125-52.050781-37.621094-84.050781-37.191406-29.175781.40625-56.539063 12.074219-77.050781 32.851562-20.535157 20.804688-31.839844 48.355469-31.839844 77.585938v.792969c.082031 11.5625-6.699219 22.277343-17.28125 27.292969-18.621094 8.835937-34.382813 22.671874-45.582032 40.023437-11.5 17.828125-17.582031 38.511719-17.582031 59.816406 0 29.359375 11.289063 56.957031 31.785157 77.710938 20.503906 20.753906 47.960937 32.378906 77.316406 32.730469 13.085937.15625 25.894531-1.949219 38.109375-6.261719 28.171875-9.941407 59.199219-9.941407 87.371093 0 11.792969 4.164062 24.148438 6.269531 36.753907 6.269531.453125 0 .90625 0 1.355469-.007812 29.355468-.351563 56.8125-11.972657 77.316406-32.730469 20.496094-20.753907 31.785156-48.351563 31.785156-77.710938 0-21.304687-6.082031-41.988281-17.585938-59.8125-11.199218-17.351562-26.960937-31.191406-45.582031-40.023437zm0 0"/><path d="m282.445312 263.605469c0-29.378907-23.898437-53.28125-53.277343-53.28125-29.378907 0-53.28125 23.902343-53.28125 53.28125 0 29.378906 23.902343 53.277343 53.28125 53.277343 29.378906 0 53.277343-23.898437 53.277343-53.277343zm-91.390624 0c0-21.015625 17.097656-38.113281 38.113281-38.113281s38.109375 17.097656 38.109375 38.113281-17.09375 38.113281-38.109375 38.113281-38.113281-17.097656-38.113281-38.113281zm0 0"/><path d="m146.8125 345.960938c-29.378906 0-53.28125 23.902343-53.28125 53.28125 0 29.378906 23.902344 53.28125 53.28125 53.28125s53.277344-23.902344 53.277344-53.28125c0-29.378907-23.898438-53.28125-53.277344-53.28125zm0 91.394531c-21.015625 0-38.113281-17.097657-38.113281-38.113281 0-21.015626 17.097656-38.113282 38.113281-38.113282s38.113281 17.097656 38.113281 38.113282c0 21.015624-17.097656 38.113281-38.113281 38.113281zm0 0"/><path d="m311.523438 452.523438c29.375 0 53.277343-23.902344 53.277343-53.28125 0-29.378907-23.902343-53.277344-53.277343-53.277344-29.378907 0-53.28125 23.898437-53.28125 53.277344 0 29.378906 23.902343 53.28125 53.28125 53.28125zm0-91.394532c21.015624 0 38.109374 17.097656 38.109374 38.113282 0 21.015624-17.09375 38.113281-38.109374 38.113281-21.015626 0-38.113282-17.097657-38.113282-38.113281 0-21.015626 17.097656-38.113282 38.113282-38.113282zm0 0"/></svg>