<svg viewBox="0 0 512.00002 512" xmlns="http://www.w3.org/2000/svg"><path d="m512 109.632812c0-30.539062-27.511719-58.660156-77.46875-79.179687-3.882812-1.59375-8.328125.261719-9.921875 4.144531-1.597656 3.886719.257813 8.328125 4.144531 9.925782 43.238282 17.757812 68.039063 41.492187 68.039063 65.109374 0 2.242188-.226563 4.484376-.667969 6.722657-1.320312 3.671875-2.667969 7.402343-4.03125 11.191406-9.089844 17.371094-31.078125 33.949219-63.339844 47.199219-46.019531 18.902344-107.371094 29.3125-172.753906 29.3125s-126.734375-10.410156-172.753906-29.3125c-32.335938-13.28125-54.351563-29.902344-63.402344-47.316406-1.878906-5.238282-3.238281-9.027344-3.964844-11.058594-.445312-2.242188-.671875-4.492188-.671875-6.738282 0-23.617187 24.800781-47.351562 68.039063-65.109374 46.019531-18.90625 107.371094-29.316407 172.753906-29.316407 55.441406 0 107.664062 7.398438 151.023438 21.394531 3.996093 1.292969 8.28125-.90625 9.570312-4.898437 1.289062-3.996094-.90625-8.28125-4.898438-9.574219-44.851562-14.476562-98.6875-22.128906-155.695312-22.128906-67.316406 0-130.71875 10.816406-178.53125 30.453125-49.957031 20.519531-77.46875 48.640625-77.46875 79.179687 0 2.390626.1875 4.765626.523438 7.125-.0625 1.003907.070312 2.039063.429687 3.046876.015625.039062.089844.253906.214844.601562.988281 4.554688 2.601562 9.039062 4.820312 13.4375 11.109375 30.976562 38.515625 107.324219 60.992188 169.464844 1.117187 3.09375 4.039062 5.019531 7.148437 5.019531.859375 0 1.734375-.148437 2.585938-.457031 3.949218-1.425782 5.992187-5.785156 4.566406-9.734375-16.132812-44.601563-34.804688-96.527344-48.167969-133.730469 11.832031 8.933594 26.679688 17.148438 44.355469 24.40625 47.8125 19.636719 111.214844 30.453125 178.53125 30.453125 40.292969 0 79.183594-3.878906 114.167969-11.199219l-33.511719 215.363282c-23.433594 6.152343-51.332031 9.664062-80.652344 9.664062-64.710937 0-123.691406-17.734375-140.695312-42.230469-1.042969-2.4375-5.773438-14.816406-24.695313-66.964843-1.429687-3.945313-5.792969-5.984376-9.738281-4.554688-3.949219 1.433594-5.988281 5.796875-4.554688 9.742188 17.167969 47.320312 22.675782 62.007812 24.714844 66.984374-.171875 4.371094-.628906 16.453126-.878906 28.71875-.683594 33.144532.671875 35.15625 2.234375 37.484376 19.851563 29.542968 81.582031 49.390624 153.613281 49.390624 66.585938 0 125.03125-17.03125 148.894532-43.390624 2.777343-3.070313 4.980468-8.128907 3.757812-39.070313-.464844-11.753906-1.292969-23.230469-1.648438-27.867187 3.726563-7.941407 14.535157-35.484376 53.507813-142.191407 18.453125-50.515625 36.757813-101.15625 45.394531-125.089843 2.273438-4.464844 3.921875-9.019532 4.925782-13.648438.125-.355469.199218-.558594.210937-.59375.363281-1.011719.496094-2.046875.433594-3.058594.332031-2.355468.519531-4.730468.519531-7.121094zm-119.046875 349.160157c-21.285156 22.558593-76.074219 37.664062-136.953125 37.664062-64.273438 0-122.898438-17.496093-140.347656-41.742187-.699219-4.84375-.570313-22.609375.003906-41.894532 27.441406 21.691407 80.3125 35.480469 140.34375 35.480469 57.175781 0 108.320312-12.5625 136.75-32.800781 1.171875 19.355469 1.523438 38.234375.203125 43.292969zm.1875-63.5625c-8.539063 9.152343-22.59375 17.085937-40.332031 23.296875l33.316406-214.109375c17.390625-4.320313 33.644531-9.542969 48.40625-15.605469 17.601562-7.230469 32.398438-15.402344 44.207031-24.292969-36.476562 100.792969-80.015625 219.675781-85.597656 230.710938zm0 0"/><path d="m328.878906 259.074219c1.742188 2.644531 5.105469 3.929687 8.171875 3.152343 3.210938-.820312 5.570313-3.679687 5.738281-6.996093.34375-6.785157-8.148437-10.558594-12.964843-5.746094-2.527344 2.523437-2.949219 6.621094-.945313 9.589844zm0 0"/><path d="m325.453125 301.820312c-2.929687 1.207032-4.859375 4.226563-4.695313 7.398438.15625 3.050781 2.179688 5.746094 5.039063 6.777344 6.242187 2.257812 12.261719-4.414063 9.429687-10.398438-1.703124-3.597656-6.085937-5.335937-9.773437-3.777344zm0 0"/><path d="m318.609375 355.808594c-5.871094 2.425781-6.230469 10.910156-.546875 13.792968 2.960938 1.5 6.667969.878907 8.957031-1.53125 2.347657-2.46875 2.742188-6.304687.976563-9.210937-1.910156-3.136719-5.992188-4.484375-9.386719-3.050781zm0 0"/></svg>