<svg viewBox="-42 0 512 512.00034" xmlns="http://www.w3.org/2000/svg"><path d="m276.152344 190.371094v-19.769532c0-4.199218-3.40625-7.601562-7.605469-7.601562s-7.605469 3.402344-7.605469 7.601562v19.769532c0 4.199218 3.40625 7.605468 7.605469 7.605468s7.605469-3.40625 7.605469-7.605468zm0 0"/><path d="m228.402344 190.371094v-19.769532c0-4.199218-3.402344-7.601562-7.601563-7.601562s-7.605469 3.402344-7.605469 7.601562v19.769532c0 4.199218 3.40625 7.605468 7.605469 7.605468s7.601563-3.40625 7.601563-7.605468zm0 0"/><path d="m57.082031 258.496094c.507813.105468 1.011719.152344 1.511719.152344 3.546875 0 6.714844-2.492188 7.445312-6.101563 8.292969-41.078125 30.1875-146.679687 32.261719-153.230469 11.894531-34.84375 37.578125-63.800781 70.675781-79.804687v124.429687c0 4.199219 3.40625 7.605469 7.605469 7.605469s7.601563-3.40625 7.601563-7.605469v-136.335937c0-2.59375-1.320313-5.007813-3.503906-6.40625-2.183594-1.398438-4.929688-1.585938-7.285157-.5l-8.585937 3.960937c-37.917969 17.503906-67.40625 50.210938-80.898438 89.742188-2.429687 7.105468-27 126.507812-32.777344 155.136718-.832031 4.117188 1.832032 8.128907 5.949219 8.957032zm0 0"/><path d="m364.453125 297.730469c41.082031-41.078125 63.703125-95.695313 63.703125-153.789063 0-4.199218-3.402344-7.605468-7.601562-7.605468h-143.085938v-128.730469c0-2.59375-1.320312-5.007813-3.507812-6.40625-2.183594-1.398438-4.925782-1.585938-7.28125-.5l-8.585938 3.960937c-26.65625 12.304688-49.109375 31.878906-64.929688 56.605469-2.265624 3.539063-1.230468 8.238281 2.304688 10.503906s8.238281 1.230469 10.503906-2.304687c13.8125-21.59375 33.242188-38.824219 56.285156-49.953125v124.429687c0 4.199219 3.40625 7.605469 7.605469 7.605469h75.617188c1.492187 15.179687 7.402343 29.734375 17.035156 41.628906 9.460937 11.671875 22.152344 20.386719 36.289063 25.074219-29.675782 74.878906-102.824219 127.972656-188.140626 127.972656h-51.320312c-4.199219 0-7.601562 3.40625-7.601562 7.605469s3.402343 7.605469 7.601562 7.605469h44.226562v53.507812h-170.296874c9.917968-49.140625 21.441406-106.226562 27.96875-138.613281.828124-4.117187-1.835938-8.125-5.949219-8.957031-4.117188-.828125-8.128907 1.835937-8.957031 5.953125-6.886719 34.164062-46.335938 229.566406-46.335938 229.566406l14.90625 3.011719s2.28125-11.289063 5.878906-29.117188h122.960938c4.199218 0 7.601562-3.402344 7.601562-7.601562 0-4.199219-3.402344-7.605469-7.601562-7.605469h-119.890625c1.925781-9.527344 4.070312-20.152344 6.347656-31.429687h173.367187v31.429687h-34.476562c-4.199219 0-7.605469 3.40625-7.605469 7.605469 0 4.199218 3.40625 7.601562 7.605469 7.601562h34.476562v27.609375c0 4.203125 3.40625 7.605469 7.605469 7.605469s7.601563-3.402344 7.601563-7.605469v-143.128906c55.050781-2.003906 106.515625-24.375 145.675781-63.535156zm9.882813-114.128907c-7.570313-9.339843-12.1875-20.304687-13.578126-32.054687h52.046876c-.671876 18.164063-3.765626 35.71875-8.941407 52.363281-11.503906-3.75-21.839843-10.816406-29.527343-20.308594zm0 0"/></svg>