<svg viewBox="0 -78 511.99782 511" xmlns="http://www.w3.org/2000/svg"><path d="m138.746094 289.867188c7.929687 7.925781 18.46875 12.292968 29.679687 12.292968 11.214844 0 21.753907-4.367187 29.683594-12.292968l11.53125-11.535157h92.710937l11.53125 11.535157c7.929688 7.925781 18.472657 12.292968 29.683594 12.292968 11.210938 0 21.75-4.367187 29.679688-12.292968 14.425781-14.425782 16.089844-37.175782 4.859375-53.507813 11.230469-16.335937 9.566406-39.085937-4.859375-53.511719-7.929688-7.929687-18.46875-12.292968-29.679688-12.292968-11.210937 0-21.753906 4.363281-29.683594 12.292968l-11.53125 11.535156h-92.707031l-11.535156-11.535156c-7.929687-7.929687-18.46875-12.292968-29.679687-12.292968-11.214844 0-21.753907 4.363281-29.683594 12.292968-14.421875 14.425782-16.089844 37.175782-4.855469 53.511719-11.234375 16.332031-9.570313 39.082031 4.855469 53.507813zm10.402344-58.785157c-10.042969-10.429687-9.886719-27.242187.351562-37.480469 5.21875-5.21875 12.074219-7.828124 18.925781-7.828124 6.855469 0 13.710938 2.609374 18.929688 7.828124l13.761719 13.761719c1.421874 1.425781 3.359374 2.226563 5.375 2.226563h99.007812c2.015625 0 3.949219-.800782 5.378906-2.226563l13.761719-13.761719c10.433594-10.4375 27.414063-10.4375 37.851563 0 10.238281 10.238282 10.398437 27.050782.351562 37.480469-2.835938 2.945313-2.835938 7.605469 0 10.550781 10.046875 10.425782 9.886719 27.242188-.351562 37.480469-10.4375 10.433594-27.417969 10.433594-37.855469 0l-13.761719-13.761719c-1.425781-1.425781-3.355469-2.226562-5.375-2.226562h-99.007812c-2.015626 0-3.949219.800781-5.375 2.226562l-13.761719 13.761719c-10.4375 10.433594-27.417969 10.433594-37.855469 0-10.238281-10.238281-10.394531-27.054687-.351562-37.480469 2.835937-2.945312 2.835937-7.605468 0-10.550781zm0 0"/><path d="m511.929688 319.75-11.191407-84.519531c-.550781-4.164063-4.371093-7.089844-8.535156-6.539063-4.164063.550782-7.089844 4.371094-6.539063 8.535156l10.273438 77.597657c-78.714844 17.082031-159.40625 25.742187-239.941406 25.742187-80.539063 0-161.226563-8.660156-239.9375-25.742187 8.386718-63.40625 16.792968-126.917969 25.21875-190.519531 33.992187 6.484374 68.59375 11.492187 102.980468 14.859374.25.027344.503907.039063.75.039063 3.867188 0 7.171876-2.9375 7.558594-6.863281.410156-4.179688-2.644531-7.902344-6.824218-8.308594-34.222657-3.355469-68.652344-8.351562-102.46875-14.828125l.488281-3.699219c1.398437-10.539062 6.84375-19.863281 15.328125-26.261718 8.472656-6.386719 18.914062-9.050782 29.402344-7.496094 111.148437 16.410156 223.863281 16.414062 335.015624 0 10.488282-1.550782 20.929688 1.113281 29.398438 7.5 8.484375 6.398437 13.921875 15.722656 15.316406 26.25l.492188 3.722656c-96.410156 18.46875-194.886719 24.316406-292.824219 17.359375-4.1875-.304687-7.828125 2.855469-8.125 7.046875-.296875 4.1875 2.859375 7.824219 7.046875 8.121094 27.035156 1.921875 54.097656 2.878906 81.15625 2.878906 72.003906 0 143.925781-6.808594 214.746094-20.320312l10.925781 82.527343c.550781 4.164063 4.375 7.09375 8.535156 6.539063 4.164063-.550782 7.089844-4.371094 6.539063-8.535156l-13.414063-101.328126c-1.933593-14.605468-9.476562-27.53125-21.238281-36.402343-9.457031-7.132813-20.683594-10.910157-32.292969-10.996094-13.617187-16.015625-36.351562-29.636719-66.066406-39.535156-31.574219-10.515625-68.816406-16.074219-107.699219-16.074219-.328125 0-.652344 0-.988281.007812-38.671875.09375-75.6875 5.6875-107.050781 16.179688-29.550782 9.890625-52.164063 23.46875-65.730469 39.421875-11.609375.082031-22.839844 3.859375-32.296875 10.988281-11.765625 8.871094-19.3125 21.796875-21.25 36.410156l-1.429688 10.816407c-9.082031 68.585937-18.148437 137.0625-27.1914058 205.429687-.5156252 3.902344 2.0351558 7.558594 5.8789058 8.417969 81.949219 18.316406 166.078126 27.601563 250.050782 27.601563 83.96875 0 168.101562-9.285157 250.058594-27.601563 3.84375-.859375 6.394531-4.515625 5.875-8.421875zm-359.140626-288.640625c29.867188-9.992187 65.265626-15.316406 102.367188-15.390625.082031 0 .164062-.003906.246094-.007812.203125-.003907.402344-.003907.597656-.003907 37.273438 0 72.851562 5.289063 102.894531 15.296875 21.589844 7.191406 39.367188 16.632813 51.570313 27.238282-102.558594 14.136718-206.375 14.136718-308.929688.003906 12.144532-10.554688 29.8125-19.960938 51.253906-27.136719zm0 0"/></svg>