<svg viewBox="0 -67 512.00002 512" xmlns="http://www.w3.org/2000/svg"><path d="m481.453125 94.828125c-2.824219-3.109375-7.632813-3.335937-10.742187-.511719-3.109376 2.820313-3.339844 7.628906-.515626 10.738282 17.152344 18.878906 26.597657 43.335937 26.597657 68.863281v163.679687h-204.890625v-163.679687c0-56.488281 45.957031-102.445313 102.445312-102.445313 20.542969 0 40.355469 6.054688 57.296875 17.511719 3.480469 2.351563 8.207031 1.4375 10.558594-2.042969 2.351563-3.476562 1.4375-8.207031-2.039063-10.558594-17.09375-11.554687-36.722656-18.324218-57.222656-19.804687v-14.117187c0-23.414063-19.046875-42.460938-42.460937-42.460938h-58.019531c-23.414063 0-42.460938 19.046875-42.460938 42.460938v13.804687h-10.675781v-13.804687c0-23.414063-19.050781-42.460938-42.464844-42.460938h-58.023437c-23.414063 0-42.460938 19.046875-42.460938 42.460938v14.347656c-59.605469 5.695312-106.375 56.039062-106.375 117.109375v98.289062c0 4.199219 3.402344 7.605469 7.605469 7.605469 4.199219 0 7.601562-3.40625 7.601562-7.605469v-98.289062c0-52.675781 39.964844-96.1875 91.167969-101.820313v48.039063c0 4.199219 3.402344 7.605469 7.601562 7.605469 4.199219 0 7.605469-3.40625 7.605469-7.605469v-48.664063h112.53125v48.664063c0 4.199219 3.402344 7.605469 7.605469 7.605469 4.199219 0 7.601562-3.40625 7.601562-7.605469v-48.664063s18.261719.003906 18.28125.003906c.019532 0 .039063-.003906.058594-.003906h68.890625c-35.703125 20.226563-59.855469 58.566406-59.855469 102.445313v163.679687h-261.488281v-40.042968c0-4.199219-3.402343-7.601563-7.601562-7.601563-4.203125 0-7.605469 3.402344-7.605469 7.601563v47.648437c0 4.199219 3.402344 7.601563 7.605469 7.601563h16.804687v18.25c0 4.199218 3.40625 7.605468 7.605469 7.605468h45.621094c4.199219 0 7.605469-3.40625 7.605469-7.605468v-18.25h102.105468v18.25c0 4.199218 3.402344 7.605468 7.605469 7.605468h45.621094c4.199219 0 7.601562-3.40625 7.601562-7.605468v-18.25h164.019531v18.25c0 4.199218 3.402344 7.605468 7.601563 7.605468h45.621094c4.203125 0 7.605469-3.40625 7.605469-7.605468v-18.25h31.371093c4.203125 0 7.605469-3.402344 7.605469-7.601563v-171.285156c0-29.316407-10.847656-57.40625-30.546875-79.089844zm-359.871094-38.5625v-13.804687c0-15.027344 12.226563-27.253907 27.253907-27.253907h58.023437c15.027344 0 27.253906 12.226563 27.253906 27.253907v13.804687zm153.625-13.804687c0-15.027344 12.226563-27.253907 27.25-27.253907h58.023438c15.027343 0 27.253906 12.226563 27.253906 27.253907v13.804687h-112.527344zm-205.175781 320.988281h-30.410156v-10.644531h30.410156zm162.9375 0h-30.414062v-10.644531h30.414062zm224.847656 0h-30.414062v-10.644531h30.414062zm0 0"/><path d="m394.347656 96.820312c-42.511718 0-77.097656 34.585938-77.097656 77.097657v130.730469c0 4.199218 3.402344 7.605468 7.605469 7.605468h138.984375c4.203125 0 7.605468-3.40625 7.605468-7.605468v-130.730469c0-42.511719-34.585937-77.097657-77.097656-77.097657zm54.175782 47.21875-19.691407 19.695313-23.726562-23.730469 19.84375-19.847656c9.878906 5.648438 18.0625 13.921875 23.574219 23.882812zm7.714843 29.878907v17.222656l-16.652343-16.652344 14.949218-14.949219c1.101563 4.617188 1.703125 9.429688 1.703125 14.378907zm-122.074219-14.382813 14.953126 14.957032-16.660157 16.660156v-17.234375c0-4.949219.601563-9.761719 1.707031-14.382813zm1.976563 49.433594 23.726563-23.726562 23.726562 23.726562-23.726562 23.726562zm12.972656 34.480469-16.65625 16.65625v-33.3125zm21.507813-68.960938 23.726562-23.730469 23.730469 23.730469-23.730469 23.726563zm23.726562 45.234375 23.730469 23.726563-23.730469 23.726562-23.726562-23.726562zm10.757813-10.753906 23.726562-23.726562 23.726563 23.726562-23.726563 23.726562zm51.132812 17.835938v33.296874l-16.648437-16.648437zm-46.582031-112.855469-15.304688 15.304687-15.308593-15.308594c4.898437-1.25 10.023437-1.917968 15.304687-1.917968s10.410156.667968 15.308594 1.921875zm-45.910156 6.207031 19.851562 19.851562-23.726562 23.730469-19.699219-19.699219c5.515625-9.960937 13.699219-18.238281 23.574219-23.882812zm-31.289063 161.457031 27.410157-27.410156 23.726562 23.726563-19.113281 19.113281h-32.019531v-15.429688zm61.894531 7.074219 8.355469 8.355469h-16.714843zm29.867188 8.355469-19.113281-19.109375 23.726562-23.726563 27.40625 27.402344v15.433594zm0 0"/></svg>