<svg viewBox="0 -20 512.00002 512" xmlns="http://www.w3.org/2000/svg"><path d="m511.957031 222.75c-.007812-.054688-.019531-.113281-.027343-.167969-.027344-.214843-.058594-.425781-.105469-.632812-.003907-.015625-.003907-.03125-.007813-.042969l-38.414062-171.84375c-.777344-3.472656-3.859375-5.945312-7.421875-5.945312h-50.183594v-20.371094c0-13.09375-10.652344-23.746094-23.746094-23.746094h-34.625c-13.09375 0-23.746093 10.652344-23.746093 23.746094v20.371094h-232.796876c-4.199218 0-7.601562 3.40625-7.601562 7.605468 0 4.199219 3.402344 7.601563 7.601562 7.601563h359.007813l6.796875 30.414062h-55.207031c-36.191407 0-65.636719 29.445313-65.636719 65.636719v68.1875c0 4.199219 3.40625 7.605469 7.605469 7.605469h143.34375v33.453125h-30.8125c-4.199219 0-7.605469 3.40625-7.605469 7.605468v40.660157c0 22.785156 16.648438 41.746093 38.417969 45.378906v21.929687h-41.824219c-3.863281-43.40625-40.410156-77.554687-84.804688-77.554687-18.636718 0-36.339843 5.910156-51.191406 17.097656-3.355468 2.527344-4.027344 7.292969-1.5 10.648438s7.292969 4.027343 10.648438 1.5c12.195312-9.183594 26.730468-14.039063 42.042968-14.039063 38.570313 0 69.953126 31.382813 69.953126 69.953125 0 38.570313-31.382813 69.953125-69.953126 69.953125-38.574218 0-69.953124-31.382812-69.953124-69.953125 0-14.019531 4.128906-27.542969 11.941406-39.105469 2.351562-3.480468 1.4375-8.207031-2.042969-10.558593-3.480469-2.351563-8.207031-1.433594-10.558594 2.046875-8.09375 11.980468-12.929687 25.683594-14.199219 40.011718h-74.195312c-3.863281-43.40625-40.410156-77.554687-84.804688-77.554687-44.390624 0-80.941406 34.148437-84.800781 77.554687h-26.34375v-320.871093h60.328125c4.199219 0 7.605469-3.402344 7.605469-7.601563 0-4.199218-3.40625-7.605468-7.605469-7.605468h-67.929687c-4.199219 0-7.605469 3.40625-7.605469 7.605468v336.078125c0 4.199219 3.40625 7.601563 7.605469 7.601563h33.945312c3.863281 43.40625 40.410157 77.558594 84.804688 77.558594s80.945312-34.152344 84.804687-77.558594h74.203125c3.859375 43.40625 40.40625 77.558594 84.800781 77.558594 44.394532 0 80.941407-34.148438 84.804688-77.558594h49.425781c4.199219 0 7.605469-3.402344 7.605469-7.601563v-164.238281c0-.273438-.015625-.546875-.042969-.8125zm-163.070312-178.632812v-20.371094c0-4.707032 3.828125-8.539063 8.539062-8.539063h34.625c4.707031 0 8.539063 3.832031 8.539063 8.539063v20.371094zm-222.53125 413.636718c-38.570313 0-69.953125-31.382812-69.953125-69.953125 0-38.570312 31.382812-69.953125 69.953125-69.953125 38.570312 0 69.953125 31.382813 69.953125 69.953125 0 38.570313-31.382813 69.953125-69.953125 69.953125zm234.695312-302.378906c0-27.804688 22.621094-50.425781 50.429688-50.425781h58.609375l24.8125 111.011719h-133.851563zm112.535157 157.511719v-33.058594h23.207031v62.921875c-13.324219-3.394531-23.207031-15.496094-23.207031-29.863281zm0 0"/><path d="m126.355469 335.921875c-28.605469 0-51.878907 23.273437-51.878907 51.878906s23.273438 51.878907 51.878907 51.878907 51.878906-23.273438 51.878906-51.878907-23.273437-51.878906-51.878906-51.878906zm0 88.550781c-20.222657 0-36.671875-16.453125-36.671875-36.671875 0-20.222656 16.449218-36.671875 36.671875-36.671875 20.222656 0 36.671875 16.449219 36.671875 36.671875 0 20.21875-16.449219 36.671875-36.671875 36.671875zm0 0"/><path d="m370.164062 439.679688c28.605469 0 51.878907-23.273438 51.878907-51.878907s-23.273438-51.878906-51.878907-51.878906c-28.605468 0-51.878906 23.273437-51.878906 51.878906s23.273438 51.878907 51.878906 51.878907zm0-88.550782c20.222657 0 36.671876 16.449219 36.671876 36.671875 0 20.21875-16.449219 36.671875-36.671876 36.671875-20.21875 0-36.671874-16.453125-36.671874-36.671875 0-20.222656 16.453124-36.671875 36.671874-36.671875zm0 0"/><path d="m216.585938 71.492188h-104.933594c-4.199219 0-7.601563 3.402343-7.601563 7.601562v36.5h-36.496093c-4.199219 0-7.605469 3.402344-7.605469 7.601562v104.929688c0 4.199219 3.40625 7.605469 7.605469 7.605469h36.496093v36.496093c0 4.199219 3.40625 7.605469 7.605469 7.605469h104.929688c4.199218 0 7.601562-3.40625 7.601562-7.605469v-36.496093h36.496094c4.199218 0 7.605468-3.40625 7.605468-7.605469v-104.929688c0-4.199218-3.40625-7.605468-7.605468-7.605468h-36.496094v-36.496094c0-4.199219-3.402344-7.601562-7.601562-7.601562zm36.496093 59.308593v89.71875h-36.5c-4.199219 0-7.601562 3.40625-7.601562 7.605469v36.496094h-89.722657v-36.496094c0-4.199219-3.40625-7.601562-7.605468-7.601562h-36.496094v-89.722657h36.5c4.199219 0 7.601562-3.40625 7.601562-7.605469v-36.496093h89.722657v36.496093c0 4.199219 3.402343 7.605469 7.605469 7.605469zm0 0"/><path d="m188.792969 147.421875-4.3125 4.308594h-40.726563l-4.308594-4.308594c-9.328124-9.328125-24.511718-9.328125-33.839843 0-7.574219 7.578125-8.976563 19.179687-4.148438 28.238281-4.828125 9.0625-3.425781 20.664063 4.148438 28.238282 9.328125 9.328124 24.511719 9.328124 33.839843 0l4.308594-4.308594h40.726563l4.3125 4.308594c4.664062 4.664062 10.789062 6.996093 16.917969 6.996093 6.128906 0 12.257812-2.332031 16.921874-6.996093 7.574219-7.574219 8.976563-19.175782 4.148438-28.238282 4.828125-9.058594 3.425781-20.660156-4.148438-28.238281-9.332031-9.328125-24.511718-9.328125-33.839843 0zm23.199219 22.964844c-2.835938 2.941406-2.835938 7.605469 0 10.546875 3.273437 3.398437 3.222656 8.875-.113282 12.210937-1.648437 1.648438-3.835937 2.554688-6.167968 2.554688-2.328126 0-4.519532-.90625-6.167969-2.554688l-6.535157-6.535156c-1.425781-1.425781-3.359374-2.230469-5.375-2.230469h-47.027343c-2.015625 0-3.949219.804688-5.375 2.230469l-6.539063 6.535156c-1.644531 1.648438-3.835937 2.554688-6.167968 2.554688-2.328126 0-4.519532-.90625-6.164063-2.554688-3.335937-3.335937-3.386719-8.8125-.117187-12.210937 2.835937-2.941406 2.835937-7.605469 0-10.546875-3.269532-3.398438-3.21875-8.875.117187-12.210938 1.644531-1.648437 3.835937-2.554687 6.164063-2.554687 2.332031 0 4.523437.90625 6.167968 2.554687l6.539063 6.535157c1.425781 1.425781 3.359375 2.226562 5.375 2.226562h47.027343c2.015626 0 3.949219-.800781 5.375-2.226562l6.535157-6.535157c1.648437-1.648437 3.839843-2.554687 6.167969-2.554687 2.332031 0 4.519531.90625 6.167968 2.554687 3.335938 3.335938 3.386719 8.8125.113282 12.210938zm0 0"/><path d="m386.902344 260.058594c4.199218 0 7.605468-3.402344 7.605468-7.601563s-3.40625-7.605469-7.605468-7.605469h-33.453125c-4.199219 0-7.605469 3.40625-7.605469 7.605469s3.40625 7.601563 7.605469 7.601563zm0 0"/></svg>