<svg viewBox="0 -6 512.00103 512" xmlns="http://www.w3.org/2000/svg"><path d="m504.394531 412.613281h-9.640625v-297.300781c0-33.121094-26.945312-60.066406-60.066406-60.066406h-85.800781v-26.285156c0-15.96875-12.992188-28.960938-28.957031-28.960938h-135.214844c-15.96875 0-28.960938 12.992188-28.960938 28.960938v26.285156h-78.441406c-33.121094 0-60.066406 26.945312-60.066406 60.066406v297.300781h-9.640625c-4.199219 0-7.605469 3.40625-7.605469 7.605469v39.730469c0 21.695312 17.648438 39.347656 39.347656 39.347656h242.625c4.199219 0 7.605469-3.40625 7.605469-7.605469 0-4.199218-3.40625-7.601562-7.605469-7.601562h-242.625c-13.3125 0-24.140625-10.828125-24.140625-24.140625v-32.125h481.585938v32.125c0 13.3125-10.828125 24.140625-24.140625 24.140625h-165.328125c-4.199219 0-7.605469 3.402344-7.605469 7.601562 0 4.199219 3.40625 7.605469 7.605469 7.605469h165.332031c21.695312 0 39.34375-17.648437 39.34375-39.347656v-39.730469c0-4.199219-3.40625-7.605469-7.605469-7.605469zm-205.320312-230.890625h-86.148438v-111.269531h86.148438zm0 15.207032v101.632812h-86.148438v-101.632812zm15.210937 0h86.945313v101.632812h-86.945313zm102.152344 0h63.109375v101.632812h-63.109375zm-7.605469-70.210938c4.199219 0 7.605469-3.40625 7.605469-7.605469v-48.660156h18.25c24.734375 0 44.859375 20.125 44.859375 44.859375v66.410156h-63.109375v-37.261718c0-4.199219-3.40625-7.601563-7.605469-7.601563s-7.601562 3.402344-7.601562 7.601563v37.261718h-86.945313v-111.269531h86.941406v48.660156c.003907 4.199219 3.40625 7.605469 7.605469 7.605469zm-237.871093-97.757812c0-7.585938 6.167968-13.753907 13.753906-13.753907h135.210937c7.582031 0 13.753907 6.167969 13.753907 13.753907v26.285156h-162.71875zm-7.601563 41.492187h34.355469v111.269531h-86.941406v-111.269531zm-86.046875 0h18.25v111.269531h-63.105469v-66.410156c0-24.734375 20.121094-44.859375 44.855469-44.859375zm-44.855469 126.476563h63.109375v101.632812h-63.109375zm0 116.839843h63.109375v98.84375h-63.109375zm78.316407 0h26.734374c4.199219 0 7.601563-3.40625 7.601563-7.605469 0-4.199218-3.402344-7.601562-7.601563-7.601562h-26.734374v-101.632812h86.941406v101.632812h-34.859375c-4.199219 0-7.605469 3.402344-7.605469 7.601562 0 4.199219 3.40625 7.605469 7.605469 7.605469h34.859375v98.84375h-86.941406zm102.152343 98.84375v-98.84375h86.148438v98.84375zm101.359375 0v-98.84375h86.945313v98.84375zm102.152344 0v-98.84375h63.109375v98.84375zm0 0"/></svg>