<svg viewBox="-60 1 511 511.99999" xmlns="http://www.w3.org/2000/svg"><path d="m387.246094 77.066406c-3.820313-1.195312-7.917969.769532-9.367188 4.503906l-88.949218 229.183594 16.644531-293.046875c.226562-3.953125-2.621094-7.414062-6.542969-7.960937-3.925781-.546875-7.605469 2.007812-8.472656 5.871094l-58.503906 261.773437-27.960938-270.566406c-.398438-3.878907-3.664062-6.824219-7.5625-6.824219-3.894531 0-7.160156 2.945312-7.5625 6.824219l-27.949219 270.582031-58.519531-261.789062c-.863281-3.863282-4.550781-6.417969-8.46875-5.871094-3.921875.546875-6.765625 4.007812-6.542969 7.960937l9.953125 175.085938c.238282 4.191406 3.835938 7.398437 8.023438 7.160156 4.191406-.238281 7.398437-3.832031 7.160156-8.023437l-4.675781-82.222657 65.617187 293.554688h-48.925781l-2.582031-45.34375-8.023438-141.164063c-.238281-4.191406-3.820312-7.398437-8.023437-7.160156-4.191407.238281-7.398438 3.828125-7.160157 8.023438l5.292969 93.125-88.949219-229.171876c-1.449218-3.734374-5.546874-5.707031-9.367187-4.503906-3.820313 1.199219-6.058594 5.160156-5.113281 9.050782l77.105468 317.417968c-31.296874 2.882813-55.890624 29.273438-55.890624 61.308594v39.550781c0 4.199219 3.40625 7.605469 7.605468 7.605469h275.71875c4.199219 0 7.605469-3.40625 7.605469-7.605469s-3.40625-7.601562-7.605469-7.601562h-268.117187v-31.949219c0-25.570312 20.800781-46.371094 46.371093-46.371094h226.0625c25.566407 0 46.371094 20.800782 46.371094 46.371094v31.949219h-25.832031c-4.203125 0-7.605469 3.402343-7.605469 7.601562s3.402344 7.605469 7.605469 7.605469h33.433594c4.199219 0 7.605469-3.40625 7.605469-7.605469v-39.550781c0-32.035156-24.589844-58.421875-55.882813-61.308594l77.09375-317.417968c.945313-3.894532-1.289063-7.851563-5.113281-9.050782zm-118.804688 326.195313h-48.9375l65.609375-293.554688zm-96.964844-79.070313 25.058594-242.589844 25.0625 242.570313-17.675781 79.089844h-14.769531zm-64.53125 35.792969 2.464844 43.277344h-16.007812l-50.742188-208.894531zm192.734376 43.277344h-16.007813l2.460937-43.269531 64.285157-165.640626zm0 0"/></svg>