<svg viewBox="0 -89 511.99999 511" xmlns="http://www.w3.org/2000/svg"><path d="m508.117188 93.183594-152.265626-84.988282c-9.019531-5.035156-19.246093-7.695312-29.578124-7.695312h-134.875c-4.183594 0-7.574219 3.390625-7.574219 7.574219 0 4.183593 3.390625 7.574219 7.574219 7.574219h134.875c7.753906 0 15.425781 2 22.195312 5.777343l145.648438 81.292969-44.390626 79.535156-133.582031-74.5625c-1.128906-.628906-2.398437-.957031-3.691406-.957031h-297.304687v-91.085937h151c4.183593 0 7.574218-3.390626 7.574218-7.574219 0-4.183594-3.390625-7.574219-7.574218-7.574219h-158.574219c-4.183594 0-7.574219 3.390625-7.574219 7.574219v106.234375c0 4.183594 3.390625 7.574218 7.574219 7.574218h27.773437v204.253907c0 4.183593 3.390625 7.578125 7.578125 7.578125h54.539063c4.183594 0 7.574218-3.394532 7.574218-7.578125v-204.253907h205.441407l29.886719 16.679688v98.109375c0 4.183594 3.390624 7.574219 7.574218 7.574219 4.1875 0 7.578125-3.390625 7.578125-7.574219v-89.652344l39.386719 21.984375v149.558594h-39.386719v-56.640625c0-4.183594-3.390625-7.574219-7.578125-7.574219-4.183594 0-7.574218 3.390625-7.574218 7.574219v64.214844c0 4.183593 3.390624 7.578125 7.574218 7.578125h54.542969c4.183594 0 7.574219-3.394532 7.574219-7.578125v-148.675781l38.898437 21.710937c1.140625.636719 2.410157.960937 3.691407.960937.695312 0 1.390624-.097656 2.066406-.289062 1.933594-.546875 3.570312-1.839844 4.550781-3.59375l51.773437-92.761719c2.039063-3.652343.730469-8.269531-2.921874-10.304687zm-418.226563 225.378906h-39.390625v-196.679688h39.390625zm0 0"/></svg>