<svg viewBox="-56 1 511 511.99896" xmlns="http://www.w3.org/2000/svg"><path d="m282.816406 190.582031v-22.648437c0-4.214844-3.414062-7.632813-7.628906-7.632813s-7.632812 3.417969-7.632812 7.632813v22.648437c0 4.214844 3.417968 7.628907 7.632812 7.628907s7.628906-3.414063 7.628906-7.628907zm0 0"/><path d="m228.109375 190.582031v-22.648437c0-4.214844-3.414063-7.632813-7.628906-7.632813-4.214844 0-7.628907 3.417969-7.628907 7.632813v22.648437c0 4.214844 3.414063 7.628907 7.628907 7.628907 4.214843 0 7.628906-3.414063 7.628906-7.628907zm0 0"/><path d="m300.542969 416.808594c-1.738281-3.835938-6.257813-5.539063-10.101563-3.796875-3.835937 1.742187-5.535156 6.265625-3.796875 10.101562 3.527344 7.773438 6.375 15.859375 8.460938 24.035157 4.261719 16.644531 5.457031 33.296874 3.566406 49.59375h-281.269531c10.226562-52.632813 21.484375-118.261719 24.613281-165.972657 1.746094 2.03125 3.566406 4.007813 5.472656 5.914063 20.449219 20.449218 48.15625 31.703125 76.65625 31.703125 6.03125 0 12.101563-.507813 18.140625-1.535157 4.152344-.707031 6.949219-4.644531 6.242188-8.800781-.707032-4.15625-4.644532-6.945312-8.800782-6.242187-29.71875 5.058594-60.164062-4.632813-81.449218-25.914063-23.429688-23.433593-32.644532-57.902343-24.039063-89.949219 1.089844-4.070312-1.320312-8.257812-5.390625-9.347656-4.074218-1.09375-8.253906 1.320313-9.347656 5.390625-7.023438 26.152344-3.832031 53.6875 8.09375 77.214844-.324219 48.949219-14.785156 132.144531-26.949219 193.6875-.441406 2.238281.140625 4.558594 1.589844 6.320313 1.449219 1.765624 3.613281 2.789062 5.894531 2.789062h297.164063c3.730469 0 6.914062-2.695312 7.527343-6.375 3.40625-20.421875 2.417969-41.371094-2.933593-62.257812-2.304688-9.035157-5.449219-17.96875-9.34375-26.558594zm0 0"/><path d="m396.902344 218.042969-149.675782-135.964844v-39.097656c0-23.699219-19.285156-42.980469-42.992187-42.980469-11.476563 0-22.269531 4.472656-30.386719 12.589844-8.121094 8.121094-12.59375 18.914062-12.59375 30.390625v27.957031c0 3.796875-3.09375 6.886719-6.894531 6.886719-1.839844 0-3.570313-.714844-4.871094-2.019531-1.300781-1.300782-2.015625-3.027344-2.015625-4.867188v-27.957031c-.003906-23.699219-19.289062-42.980469-42.992187-42.980469-11.480469 0-22.273438 4.472656-30.390625 12.589844-8.121094 8.121094-12.59375 18.914062-12.59375 30.390625v128.839843c-4.953125 3.503907-9.648438 7.433594-14.007813 11.789063-7.1875 7.1875-13.304687 15.304687-18.1875 24.117187-2.042969 3.6875-.710937 8.328126 2.976563 10.371094 1.171875.648438 2.4375.957032 3.691406.957032 2.683594 0 5.285156-1.417969 6.679688-3.933594 4.191406-7.566406 9.453124-14.539063 15.628906-20.71875 21.285156-21.277344 51.730468-30.964844 81.449218-25.90625 4.15625.707031 8.09375-2.085938 8.800782-6.242188.707031-4.152344-2.089844-8.09375-6.242188-8.800781-22.539062-3.835937-45.445312-.375-65.527344 9.359375v-119.832031c0-7.402344 2.882813-14.363281 8.121094-19.601563 5.234375-5.234375 12.199219-8.121094 19.601563-8.121094 15.289062 0 27.730469 12.4375 27.730469 27.722657v27.957031c0 5.914062 2.304687 11.476562 6.488281 15.660156 4.183593 4.183594 9.742187 6.484375 15.660156 6.484375 12.214844 0 22.15625-9.933593 22.15625-22.144531v-27.957031c0-7.402344 2.882813-14.363281 8.121094-19.601563 5.234375-5.234375 12.199219-8.121094 19.597656-8.121094 15.292969 0 27.734375 12.4375 27.734375 27.722657v42.472656c0 .972656.1875 1.933594.546875 2.835937.429687 1.074219 1.097656 2.035157 1.953125 2.816407l137.554688 124.953125h-33.832032c-4.214844 0-7.632812 3.417968-7.632812 7.628906 0 22.394531 12.386718 42.90625 31.597656 53.5625-.773438 1.15625-1.5625 2.3125-2.382812 3.472656-12.78125 18.074219-29.601563 34.058594-49.988282 47.503906-25.660156 16.921876-57.097656 29.863282-93.433594 38.46875-4.101562.96875-6.636718 5.082032-5.667968 9.179688.832031 3.511719 3.964844 5.875 7.417968 5.875.582032 0 1.175782-.066406 1.765626-.207031 10.523437-2.492188 20.652343-5.347657 30.390624-8.542969l5.003907 5.003906c8.285156 8.285156 15.601562 17.445313 21.753906 27.222656 1.449219 2.304688 3.925781 3.570313 6.464844 3.570313 1.386719 0 2.792969-.378906 4.054687-1.171875 3.566406-2.242188 4.640625-6.953125 2.394532-10.523438-6.722657-10.6875-14.714844-20.699218-23.75-29.753906 18.570312-7.152344 35.488281-15.671875 50.609374-25.492187v27.488281c0 4.210938 3.414063 7.628906 7.628907 7.628906h48.84375c4.214843 0 7.628906-3.417968 7.628906-7.628906v-93.320312c16.347656-28.308594 18.394531-50.632813 18.480469-51.703126.199218-2.363281-.714844-4.683593-2.46875-6.277343zm-50.441406 13.277343h36.273437c-1.929687 8.25-5.851563 19.949219-12.730469 32.828126-12.449218-6.722657-21.175781-18.914063-23.542968-32.828126zm-14.410157 130.394532v-30.667969c12.789063-9.890625 24.019531-20.859375 33.582031-32.777344v63.445313zm0 0"/></svg>