<svg viewBox="0 -14 512.00002 512" xmlns="http://www.w3.org/2000/svg"><path d="m504.394531 100.148438h-61.839843c-4.199219 0-7.605469 3.40625-7.605469 7.605468 0 4.199219 3.40625 7.605469 7.605469 7.605469h54.238281v352.804687h-481.585938v-352.804687h402c4.199219 0 7.601563-3.40625 7.601563-7.605469 0-4.199218-3.402344-7.605468-7.601563-7.605468h-57.914062l-97.910157-97.921876c-1.429687-1.425781-3.359374-2.226562-5.378906-2.226562-2.015625 0-3.949218.800781-5.375 2.226562l-97.925781 97.921876h-145.097656c-4.199219 0-7.605469 3.40625-7.605469 7.605468v368.015625c0 4.199219 3.40625 7.601563 7.605469 7.601563h496.789062c4.199219 0 7.605469-3.402344 7.605469-7.601563v-368.015625c0-4.199218-3.40625-7.605468-7.605469-7.605468zm-248.390625-81.789063 81.785156 81.792969h-163.578124zm0 0"/><path d="m397.488281 265.949219v-11.796875c0-4.199219-3.40625-7.601563-7.605469-7.601563-4.199218 0-7.605468 3.402344-7.605468 7.601563v11.796875c0 4.199219 3.40625 7.605469 7.605468 7.605469 4.199219 0 7.605469-3.40625 7.605469-7.605469zm0 0"/><path d="m368.777344 265.949219v-11.796875c0-4.199219-3.402344-7.601563-7.601563-7.601563-4.203125 0-7.605469 3.402344-7.605469 7.601563v11.796875c0 4.199219 3.402344 7.605469 7.605469 7.605469 4.199219 0 7.601563-3.40625 7.601563-7.605469zm0 0"/><path d="m465.34375 288.910156c-.011719-.171875-.027344-.339844-.046875-.507812-.011719-.101563-.03125-.207032-.046875-.308594-.03125-.175781-.066406-.351562-.109375-.523438-.023437-.089843-.042969-.179687-.070313-.269531-.050781-.1875-.113281-.367187-.179687-.550781-.027344-.074219-.050781-.148438-.082031-.222656-.085938-.210938-.183594-.414063-.285156-.617188-.019532-.039062-.035157-.082031-.058594-.121094-.128906-.238281-.269532-.46875-.421875-.691406-.042969-.066406-.09375-.125-.140625-.191406-.109375-.152344-.222656-.300781-.34375-.445312-.074219-.082032-.148438-.164063-.222656-.246094-.109376-.117188-.222657-.230469-.339844-.34375-.042969-.039063-.078125-.085938-.121094-.125l-72.917969-66.234375v-49.597657c0-2.332031-1.070312-4.535156-2.90625-5.976562-1.835937-1.441406-4.230469-1.964844-6.496093-1.410156-.496094.117187-12.285157 3.054687-24.035157 11.789062-3.398437 2.527344-6.453125 5.273438-9.15625 8.230469v-12.632813c0-2.332031-1.070312-4.535156-2.90625-5.976562-1.832031-1.441406-4.226562-1.964844-6.496093-1.410156-.496094.117187-12.285157 3.054687-24.039063 11.789062-15.945313 11.847656-24.371094 28.640625-24.371094 48.5625 0 4.996094-.773437 13.425782-2.300781 25.089844h-57.769531v-73.742188c0-2.59375-1.320313-5.007812-3.507813-6.40625-2.183594-1.394531-4.925781-1.582031-7.285156-.496093l-5.121094 2.363281c-16.269531 7.515625-30.003906 19.417969-39.746094 34.445312v-29.90625c0-2.59375-1.324218-5.007812-3.507812-6.40625-2.183594-1.394531-4.929688-1.582031-7.285156-.496093l-5.117188 2.363281c-23.386718 10.789062-41.570312 30.960938-49.886718 55.335938-1.148438 3.355468-8.105469 35.753906-20.675782 96.292968-.855468 4.113282 1.785156 8.136719 5.898438 8.992188 4.113281.855468 8.136718-1.789063 8.988281-5.898438 13.617187-65.566406 19.359375-91.824218 20.175781-94.46875 6.296875-18.445312 19.316406-34.019531 36.199219-43.542968v69.175781c0 4.199219 3.40625 7.601562 7.605469 7.601562 4.199218 0 7.605468-3.402343 7.605468-7.601562 0-15.191407 4.328126-29.988281 12.511719-42.785157 7.042969-11 16.621094-20.03125 27.9375-26.398437v69.183594c0 4.199219 3.40625 7.601562 7.605469 7.601562h42.429688c2.707031 17.195313 14.410156 31.96875 30.480468 38.519531-18.316406 42.96875-60.738281 71.398438-107.945312 71.507813-4.191406.011719-7.585938 3.414063-7.585938 7.605469v64.054687c0 4.199219 3.40625 7.601563 7.605469 7.601563s7.601563-3.402344 7.601563-7.601563v-56.683593c27.375-1.628907 53.003906-11.6875 73.863281-27.96875-8.039063 42.988281-15.371094 79.328124-15.457031 79.753906-.832032 4.113281 1.828124 8.128906 5.945312 8.957031.507812.105469 1.015625.152344 1.515625.152344 3.542969 0 6.714844-2.492188 7.445313-6.097657.097656-.492187 9.917968-49.144531 19.308593-100.578124 10.746094-12.410157 19.300781-26.921876 24.925781-43.035157 4.898438-14.050781 7.382813-28.785156 7.382813-43.789062 0-4.199219-3.40625-7.605469-7.605469-7.605469h-9.203125c1.460938-11.429688 2.175781-19.683594 2.175781-25.085938 0-24.558593 16.476563-36.65625 27.394532-41.980468v41.980468c0 4.199219 3.40625 7.601563 7.605468 7.601563 4.199219 0 7.601563-3.402344 7.601563-7.601563 0-24.558593 16.472656-36.65625 27.386719-41.980468v41.980468c0 2.140626.902344 4.183594 2.492187 5.628907l60.84375 55.265625h-32.894531c-22.765625 0-41.988281 17.472656-43.757812 39.777344-1.203126 15.179687 5.867187 29.882812 18.460937 38.378906 3.449219 2.328125 7.425781 3.632812 11.511719 3.886718v75.648438c0 4.199219 3.40625 7.605469 7.605468 7.605469 4.199219 0 7.601563-3.40625 7.601563-7.605469v-79.4375c53.34375-24.871094 58.394531-66.53125 58.714844-69.867188 0-.007812 0-.011718 0-.015624.003906-.058594.011719-.105469.011719-.140626.007812-.074218.003906-.148437.007812-.21875.003906-.136718.019531-.273437.019531-.410156 0-.046875-.007812-.089844-.007812-.136718 0-.109376-.007813-.222657-.011719-.332032zm-165.496094-3.582031c-10.105468-4.367187-17.613281-13.441406-20.070312-24.152344h13.832031.03125 10.304687c-.523437 8.207031-1.898437 16.285157-4.097656 24.152344zm148.386719 11.65625c-.894531 2.71875-2.1875 5.980469-4.039063 9.574219-4.898437-2.105469-9.550781-5.589844-12.359374-9.574219zm-52.066406 51.050781c-2.65625 1.042969-5.558594.78125-7.769531-.710937-8.054688-5.433594-12.578126-14.847657-11.804688-24.566407 1.144531-14.453124 13.707031-25.773437 28.59375-25.773437h9.875c1.617188 5.273437 4.882812 10.347656 9.582031 14.757813 3.25 3.046874 7.070313 5.664062 11.128907 7.679687-8.003907 9.898437-20.40625 20.417969-39.605469 28.613281zm0 0"/><path d="m82.601562 342.238281c-7.421874 35.90625-14.996093 72.960938-20.265624 99.121094-.828126 4.121094 1.835937 8.128906 5.953124 8.957031.507813.101563 1.011719.152344 1.511719.152344 3.546875 0 6.71875-2.496094 7.445313-6.105469 5.265625-26.136719 12.832031-63.164062 20.246094-99.046875.851562-4.113281-1.792969-8.136718-5.90625-8.984375-4.113282-.851562-8.136719 1.792969-8.984376 5.90625zm0 0"/><path d="m228.703125 299.195312v-11.796874c0-4.199219-3.40625-7.601563-7.605469-7.601563-4.199218 0-7.605468 3.402344-7.605468 7.601563v11.796874c0 4.199219 3.40625 7.605469 7.605468 7.605469 4.199219 0 7.605469-3.40625 7.605469-7.605469zm0 0"/><path d="m192.609375 306.800781c4.199219 0 7.605469-3.40625 7.605469-7.605469v-11.796874c0-4.199219-3.40625-7.601563-7.605469-7.601563s-7.605469 3.402344-7.605469 7.601563v11.796874c0 4.199219 3.40625 7.605469 7.605469 7.605469zm0 0"/></svg>