<svg viewBox="-6 0 511 511.998" xmlns="http://www.w3.org/2000/svg"><path d="m250.496094 48.972656c-104.390625 0-189.316406 84.929688-189.316406 189.320313s84.929687 189.316406 189.316406 189.316406c104.390625 0 189.320312-84.925781 189.320312-189.316406 0-104.394531-84.925781-189.320313-189.320312-189.320313zm0 363.429688c-96.003906 0-174.109375-78.105469-174.109375-174.109375 0-96.007813 78.105469-174.113281 174.109375-174.113281 96.007812 0 174.113281 78.105468 174.113281 174.113281 0 96.003906-78.105469 174.109375-174.113281 174.109375zm0 0"/><path d="m250.496094 190.335938c-26.441406 0-47.953125 21.511718-47.953125 47.957031 0 26.441406 21.511719 47.953125 47.953125 47.953125 26.445312 0 47.957031-21.511719 47.957031-47.953125 0-26.445313-21.511719-47.957031-47.957031-47.957031zm0 80.703124c-18.054688 0-32.746094-14.691406-32.746094-32.746093 0-18.058594 14.691406-32.75 32.746094-32.75 18.058594 0 32.75 14.691406 32.75 32.75 0 18.054687-14.691406 32.746093-32.75 32.746093zm0 0"/><path d="m493.296875 470.328125-69.019531-69.011719c41.65625-44.328125 64.511718-101.917968 64.511718-163.023437 0-50.910157-15.828124-99.480469-45.773437-140.457031-2.480469-3.390626-7.238281-4.132813-10.625-1.652344-3.394531 2.476562-4.132813 7.234375-1.65625 10.625 28.03125 38.355468 42.847656 83.820312 42.847656 131.484375 0 59.582031-23.203125 115.601562-65.332031 157.734375 0 .003906-.003906.003906-.003906.007812h-.003906c-42.132813 42.132813-98.15625 65.339844-157.742188 65.339844s-115.609375-23.203125-157.746094-65.339844c-42.136718-42.136718-65.339844-98.15625-65.339844-157.742187 0-59.589844 23.207032-115.609375 65.339844-157.746094 42.136719-42.132813 98.15625-65.339844 157.742188-65.339844 31.769531 0 62.453125 6.539063 91.199218 19.429688 27.773438 12.457031 52.351563 30.1875 73.046876 52.6875 2.84375 3.09375 7.652343 3.292969 10.746093.453125 3.089844-2.84375 3.289063-7.652344.449219-10.746094-22.101562-24.03125-48.351562-42.960938-78.019531-56.269531-30.714844-13.777344-63.492188-20.761719-97.421875-20.761719-63.648438 0-123.488282 24.785156-168.496094 69.792969-45.007812 45.007812-69.792969 104.847656-69.792969 168.5 0 61.105469 22.859375 118.695312 64.511719 163.023437l-69.011719 69.011719c-7.113281 7.121094-9.136719 17.316406-5.285156 26.609375 3.851563 9.289062 12.488281 15.058594 22.546875 15.058594h35.941406c4.199219 0 7.605469-3.402344 7.605469-7.601563s-3.40625-7.605469-7.605469-7.605469h-35.941406c-5.703125 0-7.945312-4.34375-8.5-5.675781-.550781-1.332031-2.039062-5.996093 1.996094-10.035156l69.007812-69.007813c44.328125 41.652344 101.917969 64.511719 163.023438 64.511719 61.109375 0 118.699218-22.859375 163.03125-64.511719l69.011718 69.003907c4.035157 4.039062 2.546876 8.703125 1.996094 10.035156-.550781 1.332031-2.796875 5.679687-8.496094 5.679687h-389.78125c-4.199218 0-7.605468 3.40625-7.605468 7.605469s3.40625 7.601563 7.605468 7.601563h389.777344c10.058594 0 18.695313-5.769532 22.546875-15.0625 3.855469-9.292969 1.828125-19.488282-5.285156-26.605469zm0 0"/><path d="m250.496094 175.597656c4.203125 0 7.605468-3.40625 7.605468-7.605468v-81.46875c0-4.199219-3.402343-7.601563-7.605468-7.601563-4.199219 0-7.601563 3.402344-7.601563 7.601563v81.46875c0 4.199218 3.402344 7.605468 7.601563 7.605468zm0 0"/><path d="m250.496094 300.984375c-4.199219 0-7.601563 3.40625-7.601563 7.605469v81.46875c0 4.199218 3.402344 7.605468 7.601563 7.605468 4.203125 0 7.605468-3.40625 7.605468-7.605468v-81.46875c0-4.199219-3.402343-7.605469-7.605468-7.605469zm0 0"/><path d="m208.761719 181.210938c1.410156 2.441406 3.964843 3.804687 6.59375 3.804687 1.289062 0 2.597656-.328125 3.792969-1.019531 3.636718-2.101563 4.882812-6.75 2.785156-10.386719l-40.734375-70.554687c-2.097657-3.636719-6.753907-4.882813-10.386719-2.78125-3.636719 2.097656-4.882812 6.75-2.78125 10.386718zm0 0"/><path d="m292.234375 295.371094c-2.101563-3.636719-6.753906-4.882813-10.390625-2.785156-3.636719 2.101562-4.878906 6.75-2.78125 10.386718l40.734375 70.554688c1.40625 2.441406 3.964844 3.804687 6.59375 3.804687 1.289063 0 2.597656-.328125 3.792969-1.019531 3.636718-2.101562 4.882812-6.753906 2.78125-10.390625zm0 0"/><path d="m115.261719 168.992188 70.554687 40.734374c1.199219.691407 2.503906 1.019532 3.796875 1.019532 2.625 0 5.183594-1.363282 6.589844-3.800782 2.101563-3.636718.855469-8.289062-2.78125-10.386718l-70.554687-40.734375c-3.640626-2.101563-8.289063-.855469-10.386719 2.78125-2.101563 3.636719-.855469 8.289062 2.78125 10.386719zm0 0"/><path d="m385.734375 307.589844-70.554687-40.734375c-3.640626-2.101563-8.289063-.851563-10.386719 2.785156-2.097657 3.636719-.851563 8.285156 2.785156 10.386719l70.554687 40.734375c1.195313.691406 2.503907 1.019531 3.792969 1.019531 2.628907 0 5.183594-1.367188 6.59375-3.804688 2.097657-3.636718.851563-8.285156-2.785156-10.386718zm0 0"/><path d="m187.804688 238.292969c0-4.199219-3.40625-7.605469-7.605469-7.605469h-81.46875c-4.199219 0-7.601563 3.40625-7.601563 7.605469s3.402344 7.601562 7.601563 7.601562h81.46875c4.199219 0 7.605469-3.402343 7.605469-7.601562zm0 0"/><path d="m313.191406 238.292969c0 4.199219 3.40625 7.601562 7.605469 7.601562h81.46875c4.199219 0 7.605469-3.402343 7.605469-7.601562s-3.40625-7.605469-7.605469-7.605469h-81.46875c-4.199219 0-7.605469 3.40625-7.605469 7.605469zm0 0"/><path d="m196.203125 269.640625c-2.101563-3.636719-6.75-4.882813-10.386719-2.785156l-70.554687 40.734375c-3.636719 2.101562-4.882813 6.75-2.78125 10.386718 1.40625 2.441407 3.964843 3.804688 6.589843 3.804688 1.292969 0 2.601563-.328125 3.796876-1.019531l70.554687-40.734375c3.632813-2.101563 4.882813-6.75 2.78125-10.386719zm0 0"/><path d="m304.792969 206.945312c1.410156 2.4375 3.964843 3.800782 6.59375 3.800782 1.289062 0 2.597656-.328125 3.792969-1.019532l70.554687-40.734374c3.636719-2.097657 4.882813-6.75 2.785156-10.386719-2.101562-3.636719-6.753906-4.882813-10.386719-2.78125l-70.554687 40.734375c-3.636719 2.097656-4.882813 6.75-2.785156 10.386718zm0 0"/><path d="m219.148438 292.585938c-3.636719-2.101563-8.285157-.855469-10.386719 2.78125l-40.730469 70.554687c-2.101562 3.636719-.855469 8.289063 2.78125 10.386719 1.199219.691406 2.503906 1.019531 3.792969 1.019531 2.628906 0 5.1875-1.363281 6.59375-3.800781l40.734375-70.554688c2.101562-3.636718.851562-8.289062-2.785156-10.386718zm0 0"/><path d="m281.84375 183.996094c1.199219.691406 2.507812 1.019531 3.796875 1.019531 2.628906 0 5.183594-1.363281 6.59375-3.804687l40.730469-70.550782c2.101562-3.636718.855468-8.289062-2.78125-10.386718-3.640625-2.101563-8.289063-.855469-10.386719 2.78125l-40.734375 70.554687c-2.097656 3.636719-.855469 8.289063 2.78125 10.386719zm0 0"/></svg>