<svg viewBox="-33 0 511 511.99862" xmlns="http://www.w3.org/2000/svg"><path d="m444.472656 420.816406-58.480468-107.789062-10.136719-18.539063c13.152343-7.683593 25.902343-16.175781 31.738281-30.242187 6.277344-15.144532 1.847656-31.847656-2.4375-48.003906-2.558594-9.65625-5.210938-19.640626-5.210938-28.484376 0-8.835937 2.648438-18.820312 5.210938-28.472656 4.285156-16.15625 8.714844-32.859375 2.4375-48.011718-3.40625-8.195313-9.421875-15.210938-18.9375-22.082032-3.414062-2.464844-8.171875-1.695312-10.636719 1.714844-2.464843 3.410156-1.695312 8.171875 1.714844 10.632812 7.132813 5.152344 11.511719 10.101563 13.785156 15.570313 4.304688 10.390625.714844 23.929687-3.089843 38.269531-2.8125 10.597656-5.71875 21.554688-5.71875 32.378906 0 10.828126 2.90625 21.789063 5.71875 32.390626 3.804687 14.335937 7.394531 27.878906 3.089843 38.261718-4.566406 11.007813-16.980469 18.136719-30.121093 25.679688-9.238282 5.304687-18.792969 10.789062-26.058594 18.054687-7.269532 7.273438-12.757813 16.824219-18.0625 26.066407-7.546875 13.140624-14.671875 25.550781-25.683594 30.117187-10.382812 4.308594-23.925781.71875-38.265625-3.085937-10.597656-2.808594-21.554687-5.714844-32.375-5.714844-10.824219 0-21.785156 2.90625-32.382813 5.71875-14.339843 3.800781-27.882812 7.390625-38.273437 3.082031-11.007813-4.566406-18.136719-16.980469-25.683594-30.125-5.300781-9.238281-10.78125-18.789063-18.046875-26.058594-6.675781-6.671875-15.035156-11.714843-24.476562-17.136719-.054688-.035156-.105469-.066406-.160156-.097656l-1.382813-.792968c-13.160156-7.550782-25.589844-14.683594-30.160156-25.703126-4.308594-10.390624-.71875-23.929687 3.082031-38.269531 2.808594-10.601562 5.714844-21.558593 5.714844-32.386719 0-10.820312-2.90625-21.777343-5.714844-32.375-3.800781-14.339843-7.390625-27.882812-3.082031-38.269531 4.5625-11.007812 16.972656-18.132812 30.113281-25.679687 9.242188-5.304688 18.796875-10.792969 26.066406-18.0625 7.265625-7.265625 12.75-16.816406 18.050782-26.054688 7.546874-13.140625 14.671874-25.554687 25.679687-30.117187 10.390625-4.308594 23.933594-.71875 38.273437 3.082031 10.597657 2.8125 21.558594 5.714844 32.382813 5.714844 10.820313 0 21.777344-2.902344 32.375-5.714844 14.339844-3.800781 27.886719-7.394531 38.269531-3.082031 11.007813 4.5625 18.132813 16.972656 25.679688 30.109375 5.304687 9.242187 10.792968 18.792968 18.0625 26.0625 5.894531 5.894531 13.246094 10.5625 19.660156 14.351562 3.621094 2.140625 8.292969.941406 10.433594-2.679687 2.140625-3.625.9375-8.292969-2.683594-10.433594-5.59375-3.304687-11.945312-7.320313-16.640625-12.011719-5.839844-5.839844-10.59375-14.113281-15.625-22.875-8.484375-14.773437-17.257813-30.046875-33.050781-36.59375-15.144532-6.285156-31.851563-1.855468-48.011719 2.429688-9.652344 2.558594-19.636719 5.207031-28.46875 5.207031-8.839844 0-18.824219-2.648437-28.480469-5.207031-16.15625-4.285156-32.863281-8.714844-48.011718-2.429688-15.800782 6.550782-24.570313 21.828125-33.054688 36.601563-5.027344 8.761719-9.777344 17.035156-15.613281 22.867187-5.839844 5.839844-14.117188 10.59375-22.878907 15.625-14.773437 8.484375-30.050781 17.257813-36.601562 33.058594-6.28125 15.144531-1.851562 31.851562 2.429688 48.007812 2.5625 9.652344 5.207031 19.632813 5.207031 28.46875 0 8.84375-2.648438 18.828126-5.207031 28.484376-4.28125 16.152343-8.707032 32.859374-2.429688 48.007812 5.8125 14.011719 18.484375 22.5 31.589844 30.15625l-68.484375 126.414062c-1.4062502 2.601563-1.183594 5.78125.574219 8.160157 1.757812 2.375 4.734374 3.523437 7.636718 2.933593l100.847656-20.398437 37.875 95.667969c1.089844 2.75 3.671876 4.625 6.625 4.800781.152344.007813.304688.015625.457032.015625 2.78125 0 5.355468-1.519531 6.695312-3.984375l60.824219-112.097656 60.8125 112.097656c1.335937 2.464844 3.914063 3.984375 6.695313 3.984375.152343 0 .304687-.003906.457031-.015625 2.953125-.175781 5.535156-2.046875 6.625-4.800781l37.882812-95.667969 100.84375 20.402344c2.894531.585937 5.875-.558594 7.632813-2.9375 1.761718-2.378907 1.984375-5.5625.570312-8.164063zm-287.957031 65.597656-34.21875-86.433593c-1.355469-3.429688-4.976563-5.390625-8.589844-4.660157l-91.132812 18.433594 60.503906-111.679687c5.746094 3.476562 10.796875 6.925781 14.714844 10.839843 5.835937 5.839844 10.582031 14.113282 15.613281 22.871094 8.484375 14.78125 17.253906 30.0625 33.054688 36.609375 15.148437 6.285157 31.855468 1.855469 48.015624-2.425781 4.203126-1.117188 8.46875-2.246094 12.679688-3.167969l7.132812 13.144531zm175.6875-91.09375c-3.613281-.734374-7.234375 1.230469-8.59375 4.660157l-34.226563 86.4375-66-121.648438c8.730469.082031 18.546876 2.679688 28.042969 5.199219 10.367188 2.75 20.960938 5.558594 31.222657 5.558594 5.730468 0 11.359374-.875 16.785156-3.128906 15.796875-6.550782 24.570312-21.828126 33.054687-36.601563 5.03125-8.761719 9.785157-17.039063 15.625-22.878906 3.941407-3.941407 9.007813-7.386719 14.574219-10.757813l9.929688 18.152344 50.691406 93.4375zm0 0"/><path d="m92.929688 230.800781c-3.914063 1.542969-5.835938 5.96875-4.292969 9.878907 10.507812 26.648437 28.550781 49.390624 52.179687 65.773437 24.191406 16.769531 52.59375 25.632813 82.132813 25.632813 79.582031 0 144.324219-64.746094 144.324219-144.324219 0-79.582031-64.742188-144.324219-144.324219-144.324219-79.578125 0-144.324219 64.742188-144.324219 144.324219 0 8.851562.808594 17.726562 2.40625 26.367187.761719 4.136719 4.742188 6.871094 8.871094 6.109375 4.136718-.765625 6.871094-4.738281 6.109375-8.875-1.429688-7.730469-2.152344-15.671875-2.152344-23.601562 0-71.179688 57.910156-129.089844 129.089844-129.089844 71.183593 0 129.089843 57.910156 129.089843 129.089844 0 71.179687-57.90625 129.089843-129.089843 129.089843-26.421875 0-51.820313-7.925781-73.449219-22.917968-21.144531-14.660156-37.289062-35.003906-46.6875-58.839844-1.542969-3.914062-5.96875-5.832031-9.882812-4.292969zm0 0"/><path d="m167.738281 221.429688c0 30.445312 24.769531 55.210937 55.210938 55.210937 30.445312 0 55.210937-24.765625 55.210937-55.210937 0-30.441407-24.765625-55.210938-55.210937-55.210938-30.441407 0-55.210938 24.765625-55.210938 55.210938zm95.191407 0c0 22.042968-17.9375 39.976562-39.980469 39.976562s-39.976563-17.933594-39.976563-39.976562c0-22.042969 17.933594-39.976563 39.976563-39.976563s39.980469 17.933594 39.980469 39.976563zm0 0"/><path d="m181.363281 100.355469c-14.300781 4.878906-21.96875 20.484375-17.085937 34.789062 3.882812 11.382813 14.554687 18.5625 25.960937 18.558594 2.929688 0 5.90625-.472656 8.828125-1.46875 6.925782-2.363281 12.519532-7.285156 15.75-13.855469 3.226563-6.574218 3.703125-14.007812 1.335938-20.933594h.003906c-4.878906-14.304687-20.488281-21.972656-34.792969-17.089843zm19.78125 31.304687c-1.4375 2.921875-3.917969 5.105469-7 6.15625-6.351562 2.164063-13.28125-1.238281-15.449219-7.589844-2.171874-6.355468 1.234376-13.289062 7.589844-15.457031 1.296875-.441406 2.617188-.652343 3.917969-.652343 5.066406 0 9.808594 3.191406 11.53125 8.246093 1.054687 3.078125.839844 6.378907-.589844 9.296875zm0 0"/><path d="m153.867188 144.734375c-12.679688-8.226563-29.683594-4.601563-37.910157 8.078125-8.226562 12.679688-4.601562 29.683594 8.078125 37.910156 4.496094 2.917969 9.625 4.421875 14.859375 4.421875 1.917969 0 3.847657-.203125 5.769531-.609375 7.160157-1.527344 13.296876-5.75 17.28125-11.890625 3.984376-6.140625 5.339844-13.46875 3.8125-20.628906-1.527343-7.160156-5.746093-13.296875-11.890624-17.28125zm-4.703126 29.617187c-1.769531 2.730469-4.496093 4.605469-7.675781 5.28125-3.183593.679688-6.4375.078126-9.164062-1.691406-5.628907-3.652344-7.238281-11.207031-3.585938-16.839844 2.328125-3.589843 6.242188-5.542968 10.230469-5.542968 2.269531 0 4.566406.632812 6.609375 1.957031 2.726563 1.769531 4.601563 4.496094 5.28125 7.675781.675781 3.179688.074219 6.433594-1.695313 9.160156zm0 0"/><path d="m283.644531 183.703125c3.851563 6.226563 9.898438 10.578125 17.027344 12.253906 2.101563.496094 4.222656.742188 6.328125.742188 5.035156 0 9.984375-1.398438 14.375-4.113281 6.222656-3.855469 10.574219-9.902344 12.253906-17.027344 1.675782-7.128906.480469-14.480469-3.375-20.707032-3.851562-6.222656-9.898437-10.574218-17.027344-12.253906-7.128906-1.675781-14.476562-.476562-20.703124 3.375-6.226563 3.851563-10.578126 9.898438-12.253907 17.027344-1.675781 7.125-.480469 14.476562 3.375 20.703125zm11.453125-17.214844c.746094-3.164062 2.679688-5.851562 5.445313-7.5625 1.949219-1.207031 4.148437-1.824219 6.382812-1.824219.9375 0 1.878907.105469 2.8125.328126 3.164063.742187 5.851563 2.675781 7.5625 5.441406 1.710938 2.765625 2.242188 6.03125 1.5 9.195312-.746093 3.167969-2.679687 5.851563-5.445312 7.5625-2.765625 1.710938-6.03125 2.246094-9.195313 1.5-3.164062-.746094-5.851562-2.679687-7.5625-5.445312-1.710937-2.761719-2.242187-6.027344-1.5-9.195313zm0 0"/><path d="m265.832031 101.160156c-14.195312-5.183594-29.960937 2.148438-35.144531 16.34375-2.511719 6.878906-2.195312 14.320313.894531 20.960938 3.085938 6.636718 8.574219 11.675781 15.453125 14.1875 3.089844 1.128906 6.253906 1.664062 9.371094 1.664062 11.191406 0 21.71875-6.90625 25.773438-18.007812 5.183593-14.199219-2.148438-29.964844-16.347657-35.148438zm2.035157 29.921875c-2.300782 6.304688-9.304688 9.558594-15.609376 7.257813-3.054687-1.113282-5.492187-3.351563-6.863281-6.300782-1.371093-2.949218-1.511719-6.253906-.398437-9.308593 1.800781-4.933594 6.480468-8 11.449218-8 1.382813 0 2.789063.238281 4.160157.738281 6.308593 2.304688 9.566406 9.304688 7.261719 15.613281zm0 0"/></svg>