<svg viewBox="-88 0 511 511.99954" xmlns="http://www.w3.org/2000/svg"><path d="m70.511719 33.972656c4.175781-.375 7.257812-4.066406 6.882812-8.242187-.0625-.710938-.113281-1.398438-.15625-2.066407l79.644531 72.347657c1.453126 1.320312 3.28125 1.972656 5.101563 1.972656 2.066406 0 4.125-.839844 5.625-2.488281 2.816406-3.101563 2.589844-7.90625-.515625-10.722656l-91.152344-82.800782c-1.914062-1.738281-4.582031-2.382812-7.082031-1.710937-2.496094.675781-4.480469 2.574219-5.261719 5.039062-.261718.828125-2.523437 8.464844-1.328125 21.789063.375 4.175781 4.066407 7.261718 8.242188 6.882812zm0 0"/><path d="m332.292969 234.839844-144.984375-131.707032c-3.105469-2.816406-7.90625-2.585937-10.726563.515626-2.820312 3.105468-2.589843 7.90625.515625 10.726562l130.441406 118.492188h-44.125c-3.757812 0-6.867187 2.730468-7.476562 6.308593-7.6875-2.925781-15.886719-4.445312-24.28125-4.445312-37.679688 0-68.332031 30.652343-68.332031 68.332031 0 22.800781 11.257812 43.578125 29.300781 56.117188-6.003906 1.816406-12.175781 3.484374-18.53125 4.988281-4.078125.964843-6.601562 5.058593-5.636719 9.136719.828125 3.492187 3.941407 5.847656 7.382813 5.847656.578125 0 1.164062-.066406 1.753906-.207032 14.148438-3.351562 27-7.324218 38.671875-11.742187v137.203125c0 4.195312 3.398437 7.59375 7.589844 7.59375 4.195312 0 7.59375-3.398438 7.59375-7.59375v-143.496094c41.839843-18.871094 66.175781-43.46875 80.007812-63.269531 20.863281-29.871094 23.207031-55.476563 23.296875-56.550781.199219-2.351563-.710937-4.664063-2.460937-6.25zm-120.15625 117.664062c-20.21875-7.960937-33.628907-27.496094-33.628907-49.441406 0-29.304688 23.84375-53.148438 53.148438-53.148438 10.09375 0 19.8125 2.804688 28.25 8.125 6.957031 14.828126 21.898438 26.820313 37.65625 32.914063-19.089844 26.332031-48.214844 47.238281-85.425781 61.550781zm93.855469-74.660156c-14.710938-4.792969-29.460938-16.511719-33.746094-29.792969h45.804687c-1.707031 6.90625-5.175781 17.574219-12.058593 29.792969zm0 0"/><path d="m30.8125 423.1875c-4.183594-.214844-7.765625 2.988281-7.988281 7.175781-1.28125 23.902344-1.929688 48.554688-1.929688 73.273438 0 4.191406 3.398438 7.589843 7.589844 7.589843 4.195313 0 7.59375-3.398437 7.59375-7.589843 0-24.449219.640625-48.828125 1.910156-72.460938.222657-4.1875-2.988281-7.761719-7.175781-7.988281zm0 0"/><path d="m162.265625 135.820312-147.347656-133.847656c-1.789063-1.625-4.246094-2.300781-6.613281-1.820312-2.371094.480468-4.367188 2.058594-5.382813 4.253906-.636719 1.378906-6.011719 14.203125 1.664063 39.15625 9.417968 30.628906 33.816406 66.097656 72.558593 105.488281-8.929687 20.980469-42.058593 107.464844-52.875 258.234375-.300781 4.183594 2.847657 7.816406 7.027344 8.117188.1875.011718.371094.019531.550781.019531 3.945313 0 7.277344-3.050781 7.566406-7.050781 12.054688-168 53.21875-256.859375 53.632813-257.734375 1.371094-2.898438.773437-6.347657-1.492187-8.617188-61.527344-61.523437-73.945313-100.171875-75.597657-118.585937l136.09375 123.628906c3.105469 2.816406 7.90625 2.589844 10.726563-.515625 2.820312-3.105469 2.589844-7.910156-.511719-10.726563zm0 0"/><path d="m203.683594 214.195312v-22.832031c0-4.191406-3.398438-7.59375-7.589844-7.59375-4.195312 0-7.59375 3.402344-7.59375 7.59375v22.832031c0 4.195313 3.398438 7.59375 7.59375 7.59375 4.191406 0 7.589844-3.398437 7.589844-7.59375zm0 0"/><path d="m239.546875 214.195312v-22.832031c0-4.191406-3.398437-7.59375-7.59375-7.59375-4.191406 0-7.589844 3.402344-7.589844 7.59375v22.832031c0 4.195313 3.398438 7.59375 7.589844 7.59375 4.195313 0 7.59375-3.398437 7.59375-7.59375zm0 0"/></svg>